<?xml version="1.0" standalone="no"?>
<!DOCTYPE svg PUBLIC "-//W3C//DTD SVG 1.1//EN" "http://www.w3.org/Graphics/SVG/1.1/DTD/svg11.dtd" >
<svg xmlns="http://www.w3.org/2000/svg" xmlns:xlink="http://www.w3.org/1999/xlink" version="1.1">
<metadata>
Created by FontForge 20170910 at Sat Oct 18 11:26:17 2014
 By Jimmy Wärting
Copyright (c) 2014 by B\u0142 a\u017C ej Ostoja Lniski. All rights reserved.
</metadata>
<defs>
<font id="Cervo-LightItalic" horiz-adv-x="376" >
  <font-face 
    font-family="Cervo Light Italic"
    font-weight="400"
    font-style="italic"
    font-stretch="normal"
    units-per-em="1000"
    panose-1="0 0 0 0 0 0 0 0 0 0"
    ascent="700"
    descent="-300"
    x-height="500"
    cap-height="700"
    bbox="-165 -318 810.447 1136"
    underline-thickness="50"
    underline-position="-100"
    unicode-range="U+0020-2248"
  />
<missing-glyph horiz-adv-x="464" 
d="M-26 -292l192 995h404l-193 -995h-403z" />
    <glyph glyph-name=".notdef" horiz-adv-x="464" 
d="M-26 -292l192 995h404l-193 -995h-403z" />
    <glyph glyph-name="C" unicode="C" horiz-adv-x="386" 
d="M333 187h28c15 0 20 -6 15 -23c-25 -123 -100 -168 -182 -168c-83 0 -141 47 -117 170l71 368c24 123 100 170 183 170c82 0 141 -45 118 -168c-3 -17 -10 -23 -25 -23h-28c-14 0 -19 4 -17 16c13 82 -8 111 -60 111c-55 0 -89 -33 -106 -123l-65 -334
c-17 -90 3 -123 58 -123c52 0 85 29 104 111c2 12 9 16 23 16z" />
    <glyph glyph-name="A" unicode="A" horiz-adv-x="402" 
d="M349 0h-30c-13 0 -19 0 -20 15l2 69c0 20 0 20 -18 20h-123c-20 0 -19 0 -27 -20l-26 -69c-5 -15 -11 -15 -24 -15h-30c-10 0 -20 0 -14 17l254 665c6 15 10 18 26 18h36c16 0 18 -3 18 -18l-4 -665c0 -17 -10 -17 -20 -17zM302 543l-130 -355c-7 -20 -7 -20 13 -20h96
c20 0 20 0 21 20l8 355c0 5 -6 5 -8 0z" />
    <glyph glyph-name="I" unicode="I" horiz-adv-x="178" 
d="M126 20c-3 -15 -8 -20 -23 -20h-28c-15 0 -20 5 -17 20l129 660c3 15 9 20 24 20h28c15 0 19 -5 16 -20z" />
    <glyph glyph-name="E" unicode="E" horiz-adv-x="341" 
d="M75 0c-15 0 -20 5 -17 20l129 660c3 15 9 20 24 20h201c15 0 19 -5 16 -20l-5 -24c-3 -15 -9 -20 -24 -20h-133c-20 0 -20 0 -24 -20l-38 -195c-4 -20 -4 -20 16 -20h133c15 0 19 -5 17 -20l-5 -24c-3 -15 -9 -20 -24 -20h-133c-20 0 -20 0 -24 -20l-45 -233
c-4 -20 -4 -20 16 -20h133c15 0 19 -5 16 -20l-5 -24c-3 -15 -8 -20 -23 -20h-201z" />
    <glyph glyph-name="F" unicode="F" horiz-adv-x="331" 
d="M75 0c-15 0 -20 5 -17 20l129 660c3 15 9 20 24 20h201c15 0 19 -5 16 -20l-5 -24c-3 -15 -9 -20 -24 -20h-133c-20 0 -20 0 -24 -20l-38 -195c-4 -20 -4 -20 16 -20h102c15 0 19 -5 17 -20l-5 -24c-3 -15 -9 -20 -24 -20h-102c-20 0 -20 0 -24 -20l-58 -297
c-3 -15 -8 -20 -23 -20h-28z" />
    <glyph glyph-name="H" unicode="H" horiz-adv-x="410" 
d="M348 317c4 20 4 20 -16 20h-124c-20 0 -20 0 -24 -20l-58 -297c-3 -15 -8 -20 -23 -20h-28c-15 0 -20 5 -17 20l129 660c3 15 9 20 24 20h28c15 0 19 -5 16 -20l-51 -259c-4 -20 -4 -20 16 -20h124c20 0 20 0 24 20l51 259c3 15 9 20 24 20h28c15 0 19 -5 16 -20
l-129 -660c-3 -15 -8 -20 -23 -20h-28c-15 0 -20 5 -17 20z" />
    <glyph glyph-name="L" unicode="L" horiz-adv-x="326" 
d="M75 0c-15 0 -20 5 -17 20l129 660c3 15 9 20 24 20h28c15 0 19 -5 16 -20c-8 -39 -34 -171 -116 -596c-4 -20 -4 -20 16 -20h143c15 0 19 -5 16 -20l-5 -24c-3 -15 -8 -20 -23 -20h-211z" />
    <glyph glyph-name="V" unicode="V" horiz-adv-x="459" 
d="M512 700h30c10 0 20 0 13 -17l-289 -665c-6 -15 -9 -18 -25 -18h-26c-16 0 -19 3 -19 18l-31 665c1 17 11 17 21 17h30c13 0 19 0 19 -15l17 -538c0 -5 6 -5 8 0l227 538c6 15 12 15 25 15z" />
    <glyph glyph-name="G" unicode="G" horiz-adv-x="391" 
d="M338 317c4 20 4 20 -16 20h-40c-15 0 -19 5 -16 20l5 24c2 15 8 20 23 20h108c15 0 19 -5 17 -20l-42 -215c-24 -123 -100 -170 -183 -170s-141 47 -117 170l71 368c24 123 100 170 183 170c82 0 139 -46 118 -168c-3 -17 -10 -23 -25 -23h-28c-14 0 -18 4 -17 16
c13 81 -8 111 -60 111c-55 0 -89 -33 -106 -123l-65 -334c-17 -90 3 -123 58 -123s89 33 106 123z" />
    <glyph glyph-name="T" unicode="T" horiz-adv-x="340" 
d="M152 680c3 15 9 20 24 20h260c15 0 19 -5 16 -20l-5 -24c-3 -15 -9 -20 -24 -20h-76c-20 0 -20 0 -24 -20l-116 -596c-3 -15 -8 -20 -23 -20h-28c-15 0 -20 5 -17 20l116 596c4 20 4 20 -15 20h-77c-15 0 -19 5 -16 20z" />
    <glyph glyph-name="J" unicode="J" horiz-adv-x="222" 
d="M52 64c65 4 72 43 84 104l100 512c3 15 9 20 24 20h28c15 0 19 -5 16 -20l-94 -481c-19 -97 -38 -199 -170 -199c-15 0 -20 5 -17 20l5 24c3 15 9 19 24 20z" />
    <glyph glyph-name="space" unicode=" " horiz-adv-x="220" 
 />
    <glyph glyph-name="U" unicode="U" horiz-adv-x="400" 
d="M382 166c-24 -123 -100 -170 -183 -170s-141 47 -117 170l100 514c3 15 9 20 24 20h28c15 0 19 -5 16 -20l-97 -497c-17 -90 3 -123 58 -123s89 33 106 123l97 497c3 15 9 20 24 20h28c15 0 19 -5 16 -20z" />
    <glyph glyph-name="W" unicode="W" horiz-adv-x="639" 
d="M463 700c11 0 16 -2 16 -15l1 -479c0 -5 6 -5 8 0l178 479c6 15 12 15 25 15h31c10 0 20 0 13 -17l-254 -665c-6 -15 -9 -18 -25 -18h-20c-16 0 -19 3 -19 18l1 457c0 8 -10 8 -12 0l-178 -457c-6 -15 -9 -18 -25 -18h-20c-16 0 -19 3 -19 18l4 665c1 17 11 17 21 17h31
c13 0 19 0 19 -15l-8 -479c0 -5 6 -5 8 0l187 479c4 13 11 15 22 15h15z" />
    <glyph glyph-name="Y" unicode="Y" horiz-adv-x="371" 
d="M171 0c-15 0 -20 5 -17 20l47 238l-42 425c-1 17 11 17 21 17h28c13 0 18 0 19 -15l26 -312c0 -5 6 -5 8 0l149 312c7 15 12 15 25 15h28c10 0 22 0 13 -17l-207 -425l-47 -238c-3 -15 -8 -20 -23 -20h-28z" />
    <glyph glyph-name="N" unicode="N" horiz-adv-x="423" 
d="M348 0h-20c-9 0 -16 2 -18 12l-87 466c0 7 -7 5 -8 0l-89 -458c-3 -15 -8 -20 -23 -20h-28c-15 0 -20 5 -17 20l129 660c3 15 9 20 24 20h20c11 0 15 -2 17 -13l86 -466c1 -6 7 -5 8 0l90 459c3 15 9 20 24 20h28c15 0 19 -5 16 -20l-129 -660c-3 -15 -8 -20 -23 -20z
" />
    <glyph glyph-name="M" unicode="M" horiz-adv-x="520" 
d="M257 0c-10 0 -18 0 -20 14l-29 395c0 5 -5 4 -6 0l-76 -389c-3 -15 -8 -20 -23 -20h-28c-15 0 -20 5 -17 20l129 660c3 15 9 20 24 20h20c12 0 16 -3 16 -12l39 -531c0 -5 6 -5 8 0l245 531c4 9 10 12 22 12h20c15 0 19 -5 16 -20l-129 -660c-3 -15 -8 -20 -23 -20h-28
c-15 0 -20 5 -17 20l76 389c1 4 -4 5 -6 0l-183 -395c-6 -14 -14 -14 -24 -14h-6z" />
    <glyph glyph-name="Z" unicode="Z" horiz-adv-x="344" 
d="M426 627l-306 -555c-3 -6 -1 -8 4 -8h177c15 0 19 -5 16 -20l-5 -24c-3 -15 -8 -20 -23 -20h-234c-15 0 -20 5 -17 20l6 31c2 10 3 12 9 22l306 555c3 5 1 8 -4 8h-177c-15 0 -19 5 -16 20l5 24c3 15 9 20 24 20h234c15 0 19 -5 16 -20l-6 -31c-2 -10 -2 -10 -9 -22z" />
    <glyph glyph-name="K" unicode="K" horiz-adv-x="389" 
d="M126 20c-3 -15 -8 -20 -23 -20h-28c-15 0 -20 5 -17 20l129 660c3 15 9 20 24 20h28c15 0 19 -5 16 -20l-61 -310c0 -4 4 -6 8 0l230 315c11 15 12 15 25 15h34c8 0 17 -3 4 -21l-172 -239c-8 -11 -8 -15 -7 -24c15 -111 55 -395 55 -395c1 -16 -9 -21 -17 -21h-31
c-13 0 -17 0 -20 15l-45 332c0 4 -4 4 -7 0l-79 -111c-5 -8 -7 -15 -8 -22z" />
    <glyph glyph-name="X" unicode="X" horiz-adv-x="331" 
d="M200 350l-47 329c-1 16 8 21 16 21h32c13 0 17 0 19 -15l30 -227c0 -6 4 -6 8 0l119 227c8 15 12 15 25 15h32c8 0 15 -5 6 -21l-173 -329l46 -329c1 -16 -7 -21 -15 -21h-32c-13 0 -17 0 -20 15l-30 227c-1 6 -5 6 -8 0l-119 -227c-7 -15 -11 -15 -24 -15h-32
c-8 0 -16 5 -7 21z" />
    <glyph glyph-name="Q" unicode="Q" horiz-adv-x="390" 
d="M377 166c-16 -82 -56 -130 -104 -153l4 -58c1 -15 -3 -21 -19 -25l-28 -6c-16 -4 -21 0 -22 14l-3 59c-4 0 -8 -1 -11 -1c-83 0 -141 47 -117 170l71 368c24 123 100 170 183 170s141 -47 117 -170zM377 517c17 90 -3 123 -58 123s-89 -33 -106 -123l-65 -334
c-17 -90 3 -123 58 -123s89 33 106 123z" />
    <glyph glyph-name="B" unicode="B" horiz-adv-x="400" 
d="M388 170c-24 -123 -100 -170 -183 -170h-130c-15 0 -20 5 -17 20l129 660c3 15 9 20 24 20h130c83 0 140 -47 117 -170l-5 -23c-13 -66 -40 -110 -75 -136c-2 -1 -2 -3 -1 -4c25 -27 35 -70 22 -136zM184 317l-45 -233c-4 -20 -4 -20 16 -20h62c53 0 86 31 104 115l9 46
c14 81 -7 112 -60 112h-62c-20 0 -20 0 -24 -20zM242 616l-38 -195c-4 -20 -4 -20 16 -20h62c53 0 86 31 105 115l1 8c14 81 -7 112 -60 112h-62c-20 0 -20 0 -24 -20z" />
    <glyph glyph-name="P" unicode="P" horiz-adv-x="374" 
d="M242 616l-55 -286c-4 -20 -4 -20 16 -20h46c55 0 88 33 106 123l15 80c18 90 -3 123 -58 123h-46c-20 0 -20 0 -24 -20zM166 226l-40 -206c-3 -15 -8 -20 -23 -20h-28c-15 0 -20 5 -17 20l129 660c3 15 9 20 24 20h114c83 0 140 -47 117 -170l-23 -114
c-24 -123 -100 -170 -183 -170h-46c-20 0 -20 0 -24 -20z" />
    <glyph glyph-name="R" unicode="R" horiz-adv-x="384" 
d="M75 0c-15 0 -20 5 -17 20l129 660c3 15 9 20 24 20h114c83 0 140 -47 117 -170l-11 -55c-15 -75 -49 -122 -92 -147l2 -311c0 -17 -10 -17 -20 -17h-29c-13 0 -19 0 -20 15l-1 275c0 15 -2 15 -16 15h-53c-20 0 -20 0 -24 -20l-52 -265c-3 -15 -8 -20 -23 -20h-28z
M242 616l-44 -227c-4 -20 -4 -20 16 -20h46c55 0 89 33 106 123l4 21c18 90 -3 123 -58 123h-46c-20 0 -20 0 -24 -20z" />
    <glyph glyph-name="S" unicode="S" 
d="M54 145c1 14 4 27 22 27h31c13 0 19 -5 15 -23c-5 -45 21 -89 75 -89c68 0 112 61 116 113c11 133 -189 208 -166 373c12 88 86 158 173 158c68 0 126 -52 113 -141c-3 -12 -10 -14 -24 -14h-22c-13 0 -18 2 -17 14c4 44 -18 77 -62 77c-45 0 -92 -37 -97 -100
c-8 -122 181 -199 168 -363c-8 -90 -91 -181 -194 -181c-86 0 -141 67 -131 149z" />
    <glyph glyph-name="ogonek" unicode="&#x2db;" horiz-adv-x="151" 
d="M66 16h50c-40 -33 -74 -84 -15 -95c6 -1 9 -5 5 -14c-5 -15 -9 -24 -15 -36c-3 -8 -7 -9 -14 -8c-63 11 -83 63 -41 119c5 7 21 27 30 34z" />
    <glyph glyph-name="Aogonek" unicode="&#x104;" horiz-adv-x="413" 
d="M369 17c0 -16 -9 -17 -19 -17c-30 -31 -47 -69 3 -79c6 -1 9 -5 5 -14c-5 -15 -9 -24 -15 -36c-3 -8 -7 -9 -14 -8c-63 11 -83 63 -41 119c3 4 9 13 16 20c-3 2 -5 5 -5 13l2 69c0 20 0 20 -18 20h-123c-20 0 -19 0 -27 -20l-26 -69c-5 -15 -11 -15 -24 -15h-30
c-10 0 -20 0 -14 17l254 665c6 15 10 18 26 18h36c16 0 18 -3 18 -18zM302 543l-130 -355c-7 -20 -7 -20 13 -20h96c20 0 20 0 21 20l8 355c0 5 -6 5 -8 0z" />
    <glyph glyph-name="o" unicode="o" horiz-adv-x="358" 
d="M178 -4c-71 0 -126 43 -100 176l30 156c26 133 97 176 168 176s126 -43 100 -176l-30 -156c-26 -133 -97 -176 -168 -176zM312 347c13 66 -11 93 -48 93s-71 -27 -84 -93l-38 -194c-13 -66 11 -93 48 -93s71 27 84 93z" />
    <glyph glyph-name="l" unicode="l" horiz-adv-x="199" 
d="M166 64c15 -1 19 -5 16 -20l-5 -24c-3 -15 -8 -20 -23 -20c-104 0 -87 91 -66 199l94 481c3 15 9 20 24 20h28c15 0 19 -5 16 -20l-100 -512c-12 -61 -20 -102 16 -104z" />
    <glyph glyph-name="d" unicode="d" 
d="M282 153l38 193c13 68 -17 94 -52 94c-37 0 -75 -27 -88 -93l-38 -194c-13 -66 15 -93 52 -93c35 0 75 27 88 93zM453 680l-129 -660c-3 -15 -8 -20 -23 -20h-28c-15 0 -20 5 -17 20l4 18c-28 -30 -60 -41 -88 -42c-72 -2 -120 43 -94 176l30 156c26 133 92 178 162 176
c28 -1 56 -12 72 -43l43 219c3 15 9 20 24 20h28c15 0 19 -5 16 -20z" />
    <glyph glyph-name="b" unicode="b" 
d="M190 346l-38 -193c-13 -66 17 -93 52 -93c37 0 75 27 88 93l38 194c13 66 -15 93 -52 93c-35 0 -75 -26 -88 -94zM58 20l129 660c3 15 9 20 24 20h28c15 0 19 -5 16 -20l-43 -219c28 31 60 42 88 43c72 2 120 -43 94 -176l-30 -156c-26 -133 -92 -178 -162 -176
c-28 1 -56 12 -72 42l-4 -18c-3 -15 -8 -20 -23 -20h-28c-15 0 -20 5 -17 20z" />
    <glyph glyph-name="period" unicode="." horiz-adv-x="128" 
d="M42 39c4 21 26 39 47 39c22 0 35 -18 31 -39c-4 -22 -24 -39 -46 -39c-21 0 -36 17 -32 39z" />
    <glyph glyph-name="i" unicode="i" horiz-adv-x="178" 
d="M216 480l-90 -460c-3 -15 -8 -20 -23 -20h-28c-15 0 -20 5 -17 20l90 460c3 15 9 20 24 20h28c15 0 19 -5 16 -20zM163 584c4 21 26 39 47 39c22 0 35 -18 31 -39c-4 -22 -25 -39 -47 -39c-21 0 -35 17 -31 39z" />
    <glyph glyph-name="p" unicode="p" 
d="M190 347l-38 -193c-13 -68 17 -94 52 -94c37 0 75 27 88 93l38 194c13 66 -15 93 -52 93c-35 0 -75 -27 -88 -93zM23 -160l125 640c3 15 9 20 24 20h28c15 0 19 -5 16 -20l-4 -18c28 30 60 41 88 42c72 2 120 -43 94 -176l-30 -156c-26 -133 -92 -178 -162 -176
c-28 1 -56 12 -72 43l-39 -199c-3 -15 -8 -20 -23 -20h-28c-15 0 -20 5 -17 20z" />
    <glyph glyph-name="n" unicode="n" horiz-adv-x="381" 
d="M330 347c13 66 -15 93 -52 93c-35 0 -75 -26 -88 -94l-64 -326c-3 -15 -8 -20 -23 -20h-28c-15 0 -20 5 -17 20l90 460c3 15 9 20 24 20h28c15 0 19 -5 16 -20l-4 -19c28 31 60 42 88 43c72 2 120 -43 94 -176l-60 -308c-3 -15 -8 -20 -23 -20h-28c-15 0 -20 5 -17 20z
" />
    <glyph glyph-name="g" unicode="g" 
d="M38 -73l40 12c13 4 14 -1 16 -8c7 -40 36 -50 59 -50c37 0 82 27 94 93l13 65c-28 -31 -60 -42 -88 -43c-72 -2 -120 43 -94 176l30 156c26 133 92 178 162 176c28 -1 56 -12 72 -42l4 18c3 15 9 20 24 20h28c15 0 19 -5 16 -20l-95 -487c-26 -133 -107 -176 -178 -176
c-53 0 -103 23 -113 91c-1 5 -3 14 10 19zM282 154l38 193c13 66 -17 93 -52 93c-37 0 -75 -27 -88 -93l-38 -194c-13 -66 15 -93 52 -93c35 0 75 26 88 94z" />
    <glyph glyph-name="a" unicode="a" horiz-adv-x="360" 
d="M260 32c-27 -22 -63 -36 -95 -36c-72 0 -116 44 -98 133l6 31c29 150 199 110 235 193c20 47 2 87 -43 87c-30 0 -68 -24 -78 -75c-3 -18 -8 -20 -21 -20h-28c-15 0 -18 5 -17 20c9 71 77 139 156 139c55 0 123 -40 103 -140l-55 -285c-5 -26 -4 -45 -4 -59
c0 -15 -8 -20 -23 -20h-22c-15 0 -18 4 -16 32zM195 60c35 3 62 19 73 77l25 128c-76 -30 -139 -34 -155 -117l-2 -11c-10 -52 8 -81 59 -77z" />
    <glyph glyph-name="u" unicode="u" horiz-adv-x="381" 
d="M177 -4c-72 -2 -120 43 -94 176l60 308c3 15 9 20 24 20h28c15 0 19 -5 16 -20l-64 -327c-13 -66 15 -93 52 -93c35 0 75 26 88 94l64 326c3 15 9 20 24 20h28c15 0 19 -5 16 -20l-90 -460c-3 -15 -8 -20 -23 -20h-28c-15 0 -20 5 -17 20l4 19c-28 -31 -60 -42 -88 -43z
" />
    <glyph glyph-name="e" unicode="e" horiz-adv-x="358" 
d="M157 227l-15 -74c-13 -66 11 -93 48 -93c35 0 66 25 80 75c4 18 9 20 22 20h27c17 0 20 -7 14 -29c-19 -67 -69 -130 -155 -130c-71 0 -126 43 -100 176l30 156c26 133 97 176 168 176s126 -43 100 -176l-12 -62c-3 -15 -9 -20 -24 -20h-160c-20 0 -20 0 -23 -19z
M264 440c-37 0 -71 -27 -84 -93l-3 -17c-4 -20 -4 -20 16 -20h92c20 0 20 0 24 20l3 17c13 66 -11 93 -48 93z" />
    <glyph glyph-name="f" unicode="f" horiz-adv-x="212" 
d="M310 636c-65 -4 -72 -43 -84 -104l-7 -38c-2 -8 0 -10 8 -10h40c15 0 19 -5 16 -20l-5 -22c-2 -15 -8 -20 -23 -20h-40c-8 0 -11 -2 -12 -10l-77 -392c-3 -15 -8 -20 -23 -20h-28c-15 0 -20 5 -17 20l77 392c1 7 0 10 -8 10c-15 0 -19 5 -17 20l5 22c3 15 9 20 24 20
c8 0 10 2 12 10l1 7c19 97 39 199 171 199c15 0 19 -5 16 -20l-5 -24c-3 -15 -9 -19 -24 -20z" />
    <glyph glyph-name="h" unicode="h" horiz-adv-x="381" 
d="M330 347c13 66 -15 93 -52 93c-35 0 -75 -26 -88 -94l-64 -326c-3 -15 -8 -20 -23 -20h-28c-15 0 -20 5 -17 20l129 660c3 15 9 20 24 20h28c15 0 19 -5 16 -20l-43 -219c28 31 60 42 88 43c72 2 120 -43 94 -176l-60 -308c-3 -15 -8 -20 -23 -20h-28c-15 0 -20 5 -17 20
z" />
    <glyph glyph-name="m" unicode="m" horiz-adv-x="589" 
d="M538 347c13 66 -15 93 -52 93c-35 0 -75 -26 -88 -94l-64 -326c-3 -15 -8 -20 -23 -20h-28c-15 0 -20 5 -17 20l64 327c13 66 -15 93 -52 93c-35 0 -75 -26 -88 -94l-64 -326c-3 -15 -8 -20 -23 -20h-28c-15 0 -20 5 -17 20l90 460c3 15 9 20 24 20h28c15 0 19 -5 16 -20
l-4 -19c28 31 60 42 88 43c43 2 77 -15 92 -55c41 49 90 55 116 55c71 0 120 -43 94 -176l-60 -308c-3 -15 -8 -20 -23 -20h-28c-15 0 -20 5 -17 20z" />
    <glyph glyph-name="r" unicode="r" horiz-adv-x="237" 
d="M280 428c-7 2 -14 5 -23 5c-49 0 -60 -52 -70 -102l-61 -311c-3 -15 -8 -20 -23 -20h-28c-15 0 -20 5 -17 20l90 460c3 15 9 20 24 20h28c15 0 19 -5 16 -20l-3 -12c28 23 57 31 79 32h2c15 0 19 -5 16 -20l-6 -32c-3 -15 -10 -24 -24 -20z" />
    <glyph glyph-name="q" unicode="q" 
d="M282 154l38 193c13 66 -17 93 -52 93c-37 0 -75 -27 -88 -93l-38 -194c-13 -66 15 -93 52 -93c35 0 75 26 88 94zM414 480l-125 -640c-3 -15 -8 -20 -23 -20h-28c-15 0 -20 5 -17 20l39 199c-28 -31 -60 -42 -88 -43c-72 -2 -120 43 -94 176l30 156
c26 133 92 178 162 176c28 -1 56 -12 72 -42l4 18c3 15 9 20 24 20h28c15 0 19 -5 16 -20z" />
    <glyph glyph-name="k" unicode="k" horiz-adv-x="339" 
d="M75 0c-15 0 -20 5 -17 20l129 660c3 15 9 20 24 20h28c15 0 19 -5 16 -20l-81 -416l156 216c11 15 16 20 31 20h34c11 0 17 -5 6 -20l-141 -195l65 -265c4 -14 -4 -20 -16 -20h-33c-15 0 -18 5 -22 20l-50 204l-53 -76l-25 -128c-3 -15 -8 -20 -23 -20h-28z" />
    <glyph glyph-name="v" unicode="v" horiz-adv-x="354" 
d="M383 500h28c10 0 21 0 13 -17l-211 -465c-7 -15 -9 -18 -25 -18h-22c-16 0 -18 3 -19 18l-31 465c0 17 11 17 21 17h28c13 0 18 0 19 -15l16 -343c0 -5 6 -5 8 0l150 343c7 15 12 15 25 15z" />
    <glyph glyph-name="w" unicode="w" horiz-adv-x="544" 
d="M373 500c13 0 18 0 19 -15l20 -322c0 -5 6 -5 8 0l128 322c6 15 12 15 25 15h28c10 0 21 0 13 -17l-191 -465c-6 -15 -9 -18 -25 -18h-16c-16 0 -18 3 -19 18l-21 325c0 5 -6 5 -8 0l-147 -325c-8 -15 -9 -18 -25 -18h-16c-16 0 -19 3 -19 18l-11 465c0 17 11 17 21 17
h28c13 0 19 0 19 -15l2 -322c0 -5 6 -5 8 0l146 322c7 15 12 15 25 15h8z" />
    <glyph glyph-name="y" unicode="y" horiz-adv-x="328" 
d="M117 483c0 14 4 17 21 17h28c13 0 19 0 19 -15v-354c0 -5 6 -5 8 0l138 354c6 15 12 15 25 15h28c17 0 19 -3 13 -17l-226 -555c-31 -76 -63 -105 -117 -108c-15 0 -20 4 -17 20l5 24c3 15 9 19 24 20c25 1 49 36 57 76s4 32 -6 523z" />
    <glyph glyph-name="x" unicode="x" horiz-adv-x="315" 
d="M279 0h-28c-16 0 -22 3 -26 20l-35 150l-94 -150c-10 -17 -16 -20 -32 -20h-28c-13 0 -15 7 -8 20l143 230l-53 230c-3 12 1 20 16 20h28c18 0 21 -5 24 -20l34 -151l95 151c9 15 14 20 32 20h28c15 0 15 -8 8 -20l-144 -230l54 -230c3 -13 -1 -20 -14 -20z" />
    <glyph glyph-name="z" unicode="z" horiz-adv-x="308" 
d="M354 416l-240 -344c-2 -4 -1 -8 4 -8h152c15 0 19 -5 16 -20l-5 -24c-3 -15 -8 -20 -23 -20h-208c-15 0 -20 5 -17 20l9 43c2 10 2 13 8 22l240 342c4 6 1 9 -3 9h-153c-15 0 -19 5 -16 20l5 24c3 15 9 20 24 20h208c16 0 19 -5 16 -20l-8 -41c-2 -10 -3 -14 -9 -23z" />
    <glyph glyph-name="s" unicode="s" horiz-adv-x="316" 
d="M350 390c-3 -17 -9 -20 -24 -20h-23c-10 0 -15 1 -14 17c3 33 -19 53 -45 53c-28 0 -58 -23 -65 -55c-17 -90 167 -123 134 -262c-17 -74 -87 -127 -157 -127c-75 0 -118 57 -107 128c3 18 8 20 21 20h28c14 0 19 -5 17 -20c-4 -35 16 -64 53 -64c38 0 74 29 82 69
c19 96 -159 131 -134 258c13 67 76 117 138 117c59 0 106 -41 96 -114z" />
    <glyph glyph-name="Eogonek" unicode="&#x118;" horiz-adv-x="343" 
d="M75 0c-15 0 -20 5 -17 20l129 660c3 15 9 20 24 20h201c15 0 19 -5 16 -20l-5 -24c-3 -15 -9 -20 -24 -20h-133c-20 0 -20 0 -24 -20l-38 -195c-4 -20 -4 -20 16 -20h133c15 0 19 -5 17 -20l-5 -24c-3 -15 -9 -20 -24 -20h-133c-20 0 -20 0 -24 -20l-45 -233
c-4 -20 -4 -20 16 -20h133c15 0 19 -5 16 -20l-5 -24c-3 -15 -8 -20 -23 -20h-6c-30 -31 -47 -69 3 -79c6 -1 9 -5 5 -14c-5 -15 -9 -24 -15 -36c-3 -8 -7 -9 -14 -8c-63 11 -83 63 -41 119c2 4 8 11 14 18h-147z" />
    <glyph glyph-name="aogonek" unicode="&#x105;" horiz-adv-x="360" 
d="M260 32c-27 -22 -63 -36 -95 -36c-72 0 -116 44 -98 133l6 31c29 150 199 110 235 193c20 47 2 87 -43 87c-30 0 -68 -24 -78 -75c-3 -18 -8 -20 -21 -20h-28c-15 0 -18 5 -17 20c9 71 77 139 156 139c55 0 123 -40 103 -140l-55 -285c-5 -26 -4 -45 -4 -59
s-7 -19 -19 -20c-30 -31 -47 -69 3 -79c6 -1 9 -5 5 -14c-5 -15 -9 -24 -15 -36c-3 -8 -7 -9 -14 -8c-63 11 -83 63 -41 119c3 5 12 17 20 25c-1 5 -1 12 0 25zM195 60c35 3 62 19 73 77l25 128c-76 -30 -139 -34 -155 -117l-2 -11c-10 -52 8 -81 59 -77z" />
    <glyph glyph-name="eogonek" unicode="&#x119;" horiz-adv-x="358" 
d="M157 227l-15 -74c-13 -66 11 -93 48 -93c35 0 66 25 80 75c4 18 9 20 22 20h27c17 0 20 -7 14 -29c-15 -53 -50 -104 -106 -123c-33 -31 -53 -72 -1 -82c6 -1 9 -5 5 -14c-5 -15 -9 -24 -15 -36c-3 -8 -7 -9 -14 -8c-63 11 -83 63 -41 119c2 3 6 9 11 14
c-68 3 -120 46 -94 176l30 156c26 133 97 176 168 176s126 -43 100 -176l-12 -62c-3 -15 -9 -20 -24 -20h-160c-20 0 -20 0 -23 -19zM264 440c-37 0 -71 -27 -84 -93l-3 -17c-4 -20 -4 -20 16 -20h92c20 0 20 0 24 20l3 17c13 66 -11 93 -48 93z" />
    <glyph glyph-name="acute" unicode="&#xb4;" horiz-adv-x="136" 
d="M182 735c-7 0 -9 3 -8 10l19 98c4 17 10 21 25 21h38c15 0 19 -8 8 -27l-46 -85c-8 -15 -11 -17 -21 -17h-15z" />
    <glyph glyph-name="Oacute" unicode="&#xd3;" horiz-adv-x="390" 
d="M377 166c-24 -123 -100 -170 -183 -170s-141 47 -117 170l71 368c24 123 100 170 183 170s141 -47 117 -170zM377 517c17 90 -3 123 -58 123s-89 -33 -106 -123l-65 -334c-17 -90 3 -123 58 -123s89 33 106 123zM330 735c-7 0 -9 3 -8 10l19 98c4 17 10 21 25 21h38
c15 0 19 -8 8 -27l-46 -85c-8 -15 -11 -17 -21 -17h-15z" />
    <glyph glyph-name="caron" unicode="&#x2c7;" horiz-adv-x="233" 
d="M273 786l37 67c3 6 7 11 15 11h43c13 0 13 -10 6 -18l-84 -104c-7 -7 -10 -7 -17 -7h-28c-7 0 -10 0 -13 7l-44 104c-3 8 -1 18 12 18h43c8 0 10 -5 11 -11l11 -67c1 -5 5 -5 8 0z" />
    <glyph glyph-name="circumflex" unicode="&#x2c6;" horiz-adv-x="233" 
d="M290 746l-11 67c-1 5 -5 5 -8 0l-37 -67c-4 -6 -8 -11 -16 -11h-43c-13 0 -12 10 -5 18l84 104c6 7 9 7 16 7h28c7 0 10 0 14 -7l44 -104c3 -8 0 -18 -13 -18h-43c-8 0 -10 5 -10 11z" />
    <glyph glyph-name="Acircumflex" unicode="&#xc2;" horiz-adv-x="402" 
d="M349 0h-30c-13 0 -19 0 -20 15l2 69c0 20 0 20 -18 20h-123c-20 0 -19 0 -27 -20l-26 -69c-5 -15 -11 -15 -24 -15h-30c-10 0 -20 0 -14 17l254 665c6 15 10 18 26 18h36c16 0 18 -3 18 -18l-4 -665c0 -17 -10 -17 -20 -17zM302 543l-130 -355c-7 -20 -7 -20 13 -20h96
c20 0 20 0 21 20l8 355c0 5 -6 5 -8 0zM374 746l-11 67c-1 5 -5 5 -8 0l-37 -67c-4 -6 -8 -11 -16 -11h-43c-13 0 -12 10 -5 18l84 104c6 7 9 7 16 7h28c7 0 10 0 14 -7l44 -104c3 -8 0 -18 -13 -18h-43c-8 0 -10 5 -10 11z" />
    <glyph glyph-name="oacute" unicode="&#xf3;" horiz-adv-x="358" 
d="M178 -4c-71 0 -126 43 -100 176l30 156c26 133 97 176 168 176s126 -43 100 -176l-30 -156c-26 -133 -97 -176 -168 -176zM312 347c13 66 -11 93 -48 93s-71 -27 -84 -93l-38 -194c-13 -66 11 -93 48 -93s71 27 84 93zM280 549c-7 0 -9 3 -8 10l19 98c4 17 10 21 25 21
h38c15 0 19 -8 8 -27l-46 -85c-8 -15 -11 -17 -21 -17h-15z" />
    <glyph glyph-name="sacute" unicode="&#x15b;" horiz-adv-x="316" 
d="M350 390c-3 -17 -9 -20 -24 -20h-23c-10 0 -15 1 -14 17c3 33 -19 53 -45 53c-28 0 -58 -23 -65 -55c-17 -90 167 -123 134 -262c-17 -74 -87 -127 -157 -127c-75 0 -118 57 -107 128c3 18 8 20 21 20h28c14 0 19 -5 17 -20c-4 -35 16 -64 53 -64c38 0 74 29 82 69
c19 96 -159 131 -134 258c13 67 76 117 138 117c59 0 106 -41 96 -114zM246 549c-7 0 -9 3 -8 10l19 98c4 17 10 21 25 21h38c15 0 19 -8 8 -27l-46 -85c-8 -15 -11 -17 -21 -17h-15z" />
    <glyph glyph-name="zcaron" unicode="&#x17e;" horiz-adv-x="308" 
d="M354 416l-240 -344c-2 -4 -1 -8 4 -8h152c15 0 19 -5 16 -20l-5 -24c-3 -15 -8 -20 -23 -20h-208c-15 0 -20 5 -17 20l9 43c2 10 2 13 8 22l240 342c4 6 1 9 -3 9h-153c-15 0 -19 5 -16 20l5 24c3 15 9 20 24 20h208c16 0 19 -5 16 -20l-8 -41c-2 -10 -3 -14 -9 -23z
M274 600l37 67c3 6 7 11 15 11h43c13 0 13 -10 6 -18l-84 -104c-7 -7 -10 -7 -17 -7h-28c-7 0 -10 0 -13 7l-44 104c-3 8 -1 18 12 18h43c8 0 10 -5 11 -11l11 -67c1 -5 5 -5 8 0z" />
    <glyph glyph-name="scaron" unicode="&#x161;" horiz-adv-x="316" 
d="M350 390c-3 -17 -9 -20 -24 -20h-23c-10 0 -15 1 -14 17c3 33 -19 53 -45 53c-28 0 -58 -23 -65 -55c-17 -90 167 -123 134 -262c-17 -74 -87 -127 -157 -127c-75 0 -118 57 -107 128c3 18 8 20 21 20h28c14 0 19 -5 17 -20c-4 -35 16 -64 53 -64c38 0 74 29 82 69
c19 96 -159 131 -134 258c13 67 76 117 138 117c59 0 106 -41 96 -114zM274 600l37 67c3 6 7 11 15 11h43c13 0 13 -10 6 -18l-84 -104c-7 -7 -10 -7 -17 -7h-28c-7 0 -10 0 -13 7l-44 104c-3 8 -1 18 12 18h43c8 0 10 -5 11 -11l11 -67c1 -5 5 -5 8 0z" />
    <glyph glyph-name="Zcaron" unicode="&#x17d;" horiz-adv-x="344" 
d="M426 627l-306 -555c-3 -6 -1 -8 4 -8h177c15 0 19 -5 16 -20l-5 -24c-3 -15 -8 -20 -23 -20h-234c-15 0 -20 5 -17 20l6 31c2 10 3 12 9 22l306 555c3 5 1 8 -4 8h-177c-15 0 -19 5 -16 20l5 24c3 15 9 20 24 20h234c15 0 19 -5 16 -20l-6 -31c-2 -10 -2 -10 -9 -22z
M335 786l37 67c3 6 7 11 15 11h43c13 0 13 -10 6 -18l-84 -104c-7 -7 -10 -7 -17 -7h-28c-7 0 -10 0 -13 7l-44 104c-3 8 -1 18 12 18h43c8 0 10 -5 11 -11l11 -67c1 -5 5 -5 8 0z" />
    <glyph glyph-name="Scaron" unicode="&#x160;" 
d="M54 145c1 14 4 27 22 27h31c13 0 19 -5 15 -23c-5 -45 21 -89 75 -89c68 0 112 61 116 113c11 133 -189 208 -166 373c12 88 86 158 173 158c68 0 126 -52 113 -141c-3 -12 -10 -14 -24 -14h-22c-13 0 -18 2 -17 14c4 44 -18 77 -62 77c-45 0 -92 -37 -97 -100
c-8 -122 181 -199 168 -363c-8 -90 -91 -181 -194 -181c-86 0 -141 67 -131 149zM343 786l37 67c3 6 7 11 15 11h43c13 0 13 -10 6 -18l-84 -104c-7 -7 -10 -7 -17 -7h-28c-7 0 -10 0 -13 7l-44 104c-3 8 -1 18 12 18h43c8 0 10 -5 11 -11l11 -67c1 -5 5 -5 8 0z" />
    <glyph glyph-name="Ccaron" unicode="&#x10c;" horiz-adv-x="386" 
d="M333 187h28c15 0 20 -6 15 -23c-25 -123 -100 -168 -182 -168c-83 0 -141 47 -117 170l71 368c24 123 100 170 183 170c82 0 141 -45 118 -168c-3 -17 -10 -23 -25 -23h-28c-14 0 -19 4 -17 16c13 82 -8 111 -60 111c-55 0 -89 -33 -106 -123l-65 -334
c-17 -90 3 -123 58 -123c52 0 85 29 104 111c2 12 9 16 23 16zM353 786l37 67c3 6 7 11 15 11h43c13 0 13 -10 6 -18l-84 -104c-7 -7 -10 -7 -17 -7h-28c-7 0 -10 0 -13 7l-44 104c-3 8 -1 18 12 18h43c8 0 10 -5 11 -11l11 -67c1 -5 5 -5 8 0z" />
    <glyph glyph-name="Zacute" unicode="&#x179;" horiz-adv-x="344" 
d="M426 627l-306 -555c-3 -6 -1 -8 4 -8h177c15 0 19 -5 16 -20l-5 -24c-3 -15 -8 -20 -23 -20h-234c-15 0 -20 5 -17 20l6 31c2 10 3 12 9 22l306 555c3 5 1 8 -4 8h-177c-15 0 -19 5 -16 20l5 24c3 15 9 20 24 20h234c15 0 19 -5 16 -20l-6 -31c-2 -10 -2 -10 -9 -22z
M308 735c-7 0 -9 3 -8 10l19 98c4 17 10 21 25 21h38c15 0 19 -8 8 -27l-46 -85c-8 -15 -11 -17 -21 -17h-15z" />
    <glyph glyph-name="Nacute" unicode="&#x143;" horiz-adv-x="423" 
d="M348 0h-20c-9 0 -16 2 -18 12l-87 466c0 7 -7 5 -8 0l-89 -458c-3 -15 -8 -20 -23 -20h-28c-15 0 -20 5 -17 20l129 660c3 15 9 20 24 20h20c11 0 15 -2 17 -13l86 -466c1 -6 7 -5 8 0l90 459c3 15 9 20 24 20h28c15 0 19 -5 16 -20l-129 -660c-3 -15 -8 -20 -23 -20z
M345 735c-7 0 -9 3 -8 10l19 98c4 17 10 21 25 21h38c15 0 19 -8 8 -27l-46 -85c-8 -15 -11 -17 -21 -17h-15z" />
    <glyph glyph-name="Sacute" unicode="&#x15a;" 
d="M54 145c1 14 4 27 22 27h31c13 0 19 -5 15 -23c-5 -45 21 -89 75 -89c68 0 112 61 116 113c11 133 -189 208 -166 373c12 88 86 158 173 158c68 0 126 -52 113 -141c-3 -12 -10 -14 -24 -14h-22c-13 0 -18 2 -17 14c4 44 -18 77 -62 77c-45 0 -92 -37 -97 -100
c-8 -122 181 -199 168 -363c-8 -90 -91 -181 -194 -181c-86 0 -141 67 -131 149zM315 735c-7 0 -9 3 -8 10l19 98c4 17 10 21 25 21h38c15 0 19 -8 8 -27l-46 -85c-8 -15 -11 -17 -21 -17h-15z" />
    <glyph glyph-name="zacute" unicode="&#x17a;" horiz-adv-x="308" 
d="M354 416l-240 -344c-2 -4 -1 -8 4 -8h152c15 0 19 -5 16 -20l-5 -24c-3 -15 -8 -20 -23 -20h-208c-15 0 -20 5 -17 20l9 43c2 10 2 13 8 22l240 342c4 6 1 9 -3 9h-153c-15 0 -19 5 -16 20l5 24c3 15 9 20 24 20h208c16 0 19 -5 16 -20l-8 -41c-2 -10 -3 -14 -9 -23z
M247 549c-7 0 -9 3 -8 10l19 98c4 17 10 21 25 21h38c15 0 19 -8 8 -27l-46 -85c-8 -15 -11 -17 -21 -17h-15z" />
    <glyph glyph-name="eacute" unicode="&#xe9;" horiz-adv-x="358" 
d="M157 227l-15 -74c-13 -66 11 -93 48 -93c35 0 66 25 80 75c4 18 9 20 22 20h27c17 0 20 -7 14 -29c-19 -67 -69 -130 -155 -130c-71 0 -126 43 -100 176l30 156c26 133 97 176 168 176s126 -43 100 -176l-12 -62c-3 -15 -9 -20 -24 -20h-160c-20 0 -20 0 -23 -19z
M264 440c-37 0 -71 -27 -84 -93l-3 -17c-4 -20 -4 -20 16 -20h92c20 0 20 0 24 20l3 17c13 66 -11 93 -48 93zM274 549c-7 0 -9 3 -8 10l19 98c4 17 10 21 25 21h38c15 0 19 -8 8 -27l-46 -85c-8 -15 -11 -17 -21 -17h-15z" />
    <glyph glyph-name="nacute" unicode="&#x144;" horiz-adv-x="381" 
d="M330 347c13 66 -15 93 -52 93c-35 0 -75 -26 -88 -94l-64 -326c-3 -15 -8 -20 -23 -20h-28c-15 0 -20 5 -17 20l90 460c3 15 9 20 24 20h28c15 0 19 -5 16 -20l-4 -19c28 31 60 42 88 43c72 2 120 -43 94 -176l-60 -308c-3 -15 -8 -20 -23 -20h-28c-15 0 -20 5 -17 20z
M288 549c-7 0 -9 3 -8 10l19 98c4 17 10 21 25 21h38c15 0 19 -8 8 -27l-46 -85c-8 -15 -11 -17 -21 -17h-15z" />
    <glyph glyph-name="ycircumflex" unicode="&#x177;" horiz-adv-x="328" 
d="M117 483c0 14 4 17 21 17h28c13 0 19 0 19 -15v-354c0 -5 6 -5 8 0l138 354c6 15 12 15 25 15h28c17 0 19 -3 13 -17l-226 -555c-31 -76 -63 -105 -117 -108c-15 0 -20 4 -17 20l5 24c3 15 9 19 24 20c25 1 49 36 57 76s4 32 -6 523zM300 560l-11 67c-1 5 -5 5 -8 0
l-37 -67c-4 -6 -8 -11 -16 -11h-43c-13 0 -12 10 -5 18l84 104c6 7 9 7 16 7h28c7 0 10 0 14 -7l44 -104c3 -8 0 -18 -13 -18h-43c-8 0 -10 5 -10 11z" />
    <glyph glyph-name="wcircumflex" unicode="&#x175;" horiz-adv-x="544" 
d="M373 500c13 0 18 0 19 -15l20 -322c0 -5 6 -5 8 0l128 322c6 15 12 15 25 15h28c10 0 21 0 13 -17l-191 -465c-6 -15 -9 -18 -25 -18h-16c-16 0 -18 3 -19 18l-21 325c0 5 -6 5 -8 0l-147 -325c-8 -15 -9 -18 -25 -18h-16c-16 0 -19 3 -19 18l-11 465c0 17 11 17 21 17
h28c13 0 19 0 19 -15l2 -322c0 -5 6 -5 8 0l146 322c7 15 12 15 25 15h8zM404 560l-11 67c-1 5 -5 5 -8 0l-37 -67c-4 -6 -8 -11 -16 -11h-43c-13 0 -12 10 -5 18l84 104c6 7 9 7 16 7h28c7 0 10 0 14 -7l44 -104c3 -8 0 -18 -13 -18h-43c-8 0 -10 5 -10 11z" />
    <glyph glyph-name="dotaccent" unicode="&#x2d9;" horiz-adv-x="142" 
d="M146 590c4 21 26 39 47 39c22 0 35 -18 31 -39c-4 -22 -24 -39 -46 -39c-21 0 -36 17 -32 39z" />
    <glyph glyph-name="Zdotaccent" unicode="&#x17b;" horiz-adv-x="344" 
d="M426 627l-306 -555c-3 -6 -1 -8 4 -8h177c15 0 19 -5 16 -20l-5 -24c-3 -15 -8 -20 -23 -20h-234c-15 0 -20 5 -17 20l6 31c2 10 3 12 9 22l306 555c3 5 1 8 -4 8h-177c-15 0 -19 5 -16 20l5 24c3 15 9 20 24 20h234c15 0 19 -5 16 -20l-6 -31c-2 -10 -2 -10 -9 -22z
M288 771c4 21 26 39 47 39c22 0 35 -18 31 -39c-4 -22 -24 -39 -46 -39c-21 0 -36 17 -32 39z" />
    <glyph glyph-name="zdotaccent" unicode="&#x17c;" horiz-adv-x="308" 
d="M354 416l-240 -344c-2 -4 -1 -8 4 -8h152c15 0 19 -5 16 -20l-5 -24c-3 -15 -8 -20 -23 -20h-208c-15 0 -20 5 -17 20l9 43c2 10 2 13 8 22l240 342c4 6 1 9 -3 9h-153c-15 0 -19 5 -16 20l5 24c3 15 9 20 24 20h208c16 0 19 -5 16 -20l-8 -41c-2 -10 -3 -14 -9 -23z
M228 584c4 21 26 39 47 39c22 0 35 -18 31 -39c-4 -22 -24 -39 -46 -39c-21 0 -36 17 -32 39z" />
    <glyph glyph-name="dotlessi" unicode="&#x131;" horiz-adv-x="178" 
d="M216 480l-90 -460c-3 -15 -8 -20 -23 -20h-28c-15 0 -20 5 -17 20l90 460c3 15 9 20 24 20h28c15 0 19 -5 16 -20z" />
    <glyph glyph-name="dotlessj" unicode="&#x237;" horiz-adv-x="178" 
d="M-3 -116c35 2 43 43 55 104l96 492c3 15 9 20 24 20h28c15 0 19 -5 16 -20l-90 -461c-21 -108 -38 -199 -141 -199c-15 0 -20 5 -17 20l5 24c3 15 9 19 24 20z" />
    <glyph glyph-name="jcircumflex" unicode="&#x135;" horiz-adv-x="178" 
d="M-3 -116h3c27 3 37 33 47 78c1 8 3 17 5 26l96 492c0 2 0 3 1 5c0 2 1 4 2 6c1 0 1 1 1 1c1 1 1 2 2 2c0 1 1 1 2 2c0 0 1 0 1 1c1 0 2 1 3 1c0 0 1 1 2 1c3 1 6 1 10 1h28h5c2 0 3 -1 4 -1l5 -3l1 -1s0 -1 1 -1v-2c0 -1 1 -1 1 -2v-5c0 -2 -1 -3 -1 -5l-90 -461
c-4 -19 -7 -37 -11 -54l-4 -15l-5 -21l-12 -33c-4 -10 -9 -19 -14 -27c-6 -9 -12 -16 -19 -22c-5 -5 -12 -10 -19 -14c-5 -3 -10 -5 -16 -7c-8 -2 -17 -4 -26 -5c-2 0 -5 -1 -7 -1h-8c-4 0 -7 0 -10 1s-6 3 -7 6s-1 8 0 13l5 24l3 9c0 2 1 3 2 4c2 3 4 4 7 5c1 0 2 1 2 1
c3 1 6 1 10 1zM226 560l-11 67c-1 5 -5 5 -8 0l-37 -67c-4 -6 -8 -11 -16 -11h-43c-13 0 -12 10 -5 18l84 104c6 7 9 7 16 7h28c7 0 10 0 14 -7l44 -104c3 -8 0 -18 -13 -18h-43c-8 0 -10 5 -10 11z" />
    <glyph glyph-name="ncaron" unicode="&#x148;" horiz-adv-x="381" 
d="M330 347c13 66 -15 93 -52 93c-35 0 -75 -26 -88 -94l-64 -326c-3 -15 -8 -20 -23 -20h-28c-15 0 -20 5 -17 20l90 460c3 15 9 20 24 20h28c15 0 19 -5 16 -20l-4 -19c28 31 60 42 88 43c72 2 120 -43 94 -176l-60 -308c-3 -15 -8 -20 -23 -20h-28c-15 0 -20 5 -17 20z
M311 600l37 67c3 6 7 11 15 11h43c13 0 13 -10 6 -18l-84 -104c-7 -7 -10 -7 -17 -7h-28c-7 0 -10 0 -13 7l-44 104c-3 8 -1 18 12 18h43c8 0 10 -5 11 -11l11 -67c1 -5 5 -5 8 0z" />
    <glyph glyph-name="gcircumflex" unicode="&#x11d;" 
d="M38 -73l40 12c13 4 14 -1 16 -8c7 -40 36 -50 59 -50c37 0 82 27 94 93l13 65c-28 -31 -60 -42 -88 -43c-72 -2 -120 43 -94 176l30 156c26 133 92 178 162 176c28 -1 56 -12 72 -42l4 18c3 15 9 20 24 20h28c15 0 19 -5 16 -20l-95 -487c-26 -133 -107 -176 -178 -176
c-53 0 -103 23 -113 91c-1 5 -3 14 10 19zM282 154l38 193c13 66 -17 93 -52 93c-37 0 -75 -27 -88 -93l-38 -194c-13 -66 15 -93 52 -93c35 0 75 26 88 94zM320 560l-11 67c-1 5 -5 5 -8 0l-37 -67c-4 -6 -8 -11 -16 -11h-43c-13 0 -12 10 -5 18l84 104c6 7 9 7 16 7h28
c7 0 10 0 14 -7l44 -104c3 -8 0 -18 -13 -18h-43c-8 0 -10 5 -10 11z" />
    <glyph glyph-name="aacute" unicode="&#xe1;" horiz-adv-x="360" 
d="M260 32c-27 -22 -63 -36 -95 -36c-72 0 -116 44 -98 133l6 31c29 150 199 110 235 193c20 47 2 87 -43 87c-30 0 -68 -24 -78 -75c-3 -18 -8 -20 -21 -20h-28c-15 0 -18 5 -17 20c9 71 77 139 156 139c55 0 123 -40 103 -140l-55 -285c-5 -26 -4 -45 -4 -59
c0 -15 -8 -20 -23 -20h-22c-15 0 -18 4 -16 32zM195 60c35 3 62 19 73 77l25 128c-76 -30 -139 -34 -155 -117l-2 -11c-10 -52 8 -81 59 -77zM277 549c-7 0 -9 3 -8 10l19 98c4 17 10 21 25 21h38c15 0 19 -8 8 -27l-46 -85c-8 -15 -11 -17 -21 -17h-15z" />
    <glyph glyph-name="grave" unicode="`" horiz-adv-x="136" 
d="M238 735h-15c-10 0 -11 2 -13 17l-14 85c-3 19 3 27 18 27h38c15 0 21 -4 17 -21l-19 -98c-1 -7 -5 -10 -12 -10z" />
    <glyph glyph-name="agrave" unicode="&#xe0;" horiz-adv-x="360" 
d="M260 32c-27 -22 -63 -36 -95 -36c-72 0 -116 44 -98 133l6 31c29 150 199 110 235 193c20 47 2 87 -43 87c-30 0 -68 -24 -78 -75c-3 -18 -8 -20 -21 -20h-28c-15 0 -18 5 -17 20c9 71 77 139 156 139c55 0 123 -40 103 -140l-55 -285c-5 -26 -4 -45 -4 -59
c0 -15 -8 -20 -23 -20h-22c-15 0 -18 4 -16 32zM195 60c35 3 62 19 73 77l25 128c-76 -30 -139 -34 -155 -117l-2 -11c-10 -52 8 -81 59 -77zM300 549h-15c-10 0 -11 2 -13 17l-14 85c-3 19 3 27 18 27h38c15 0 21 -4 17 -21l-19 -98c-1 -7 -5 -10 -12 -10z" />
    <glyph glyph-name="acircumflex" unicode="&#xe2;" horiz-adv-x="360" 
d="M260 32c-27 -22 -63 -36 -95 -36c-72 0 -116 44 -98 133l6 31c29 150 199 110 235 193c20 47 2 87 -43 87c-30 0 -68 -24 -78 -75c-3 -18 -8 -20 -21 -20h-28c-15 0 -18 5 -17 20c9 71 77 139 156 139c55 0 123 -40 103 -140l-55 -285c-5 -26 -4 -45 -4 -59
c0 -15 -8 -20 -23 -20h-22c-15 0 -18 4 -16 32zM195 60c35 3 62 19 73 77l25 128c-76 -30 -139 -34 -155 -117l-2 -11c-10 -52 8 -81 59 -77zM323 560l-11 67c-1 5 -5 5 -8 0l-37 -67c-4 -6 -8 -11 -16 -11h-43c-13 0 -12 10 -5 18l84 104c6 7 9 7 16 7h28c7 0 10 0 14 -7
l44 -104c3 -8 0 -18 -13 -18h-43c-8 0 -10 5 -10 11z" />
    <glyph glyph-name="ograve" unicode="&#xf2;" horiz-adv-x="358" 
d="M178 -4c-71 0 -126 43 -100 176l30 156c26 133 97 176 168 176s126 -43 100 -176l-30 -156c-26 -133 -97 -176 -168 -176zM312 347c13 66 -11 93 -48 93s-71 -27 -84 -93l-38 -194c-13 -66 11 -93 48 -93s71 27 84 93zM293 549h-15c-10 0 -11 2 -13 17l-14 85
c-3 19 3 27 18 27h38c15 0 21 -4 17 -21l-19 -98c-1 -7 -5 -10 -12 -10z" />
    <glyph glyph-name="Wacute" unicode="&#x1e82;" horiz-adv-x="639" 
d="M463 700c11 0 16 -2 16 -15l1 -479c0 -5 6 -5 8 0l178 479c6 15 12 15 25 15h31c10 0 20 0 13 -17l-254 -665c-6 -15 -9 -18 -25 -18h-20c-16 0 -19 3 -19 18l1 457c0 8 -10 8 -12 0l-178 -457c-6 -15 -9 -18 -25 -18h-20c-16 0 -19 3 -19 18l4 665c1 17 11 17 21 17h31
c13 0 19 0 19 -15l-8 -479c0 -5 6 -5 8 0l187 479c4 13 11 15 22 15h15zM453 735c-7 0 -9 3 -8 10l19 98c4 17 10 21 25 21h38c15 0 19 -8 8 -27l-46 -85c-8 -15 -11 -17 -21 -17h-15z" />
    <glyph glyph-name="Wgrave" unicode="&#x1e80;" horiz-adv-x="639" 
d="M463 700c11 0 16 -2 16 -15l1 -479c0 -5 6 -5 8 0l178 479c6 15 12 15 25 15h31c10 0 20 0 13 -17l-254 -665c-6 -15 -9 -18 -25 -18h-20c-16 0 -19 3 -19 18l1 457c0 8 -10 8 -12 0l-178 -457c-6 -15 -9 -18 -25 -18h-20c-16 0 -19 3 -19 18l4 665c1 17 11 17 21 17h31
c13 0 19 0 19 -15l-8 -479c0 -5 6 -5 8 0l187 479c4 13 11 15 22 15h15zM466 735h-15c-10 0 -11 2 -13 17l-14 85c-3 19 3 27 18 27h38c15 0 21 -4 17 -21l-19 -98c-1 -7 -5 -10 -12 -10z" />
    <glyph glyph-name="Yacute" unicode="&#xdd;" horiz-adv-x="371" 
d="M171 0c-15 0 -20 5 -17 20l47 238l-42 425c-1 17 11 17 21 17h28c13 0 18 0 19 -15l26 -312c0 -5 6 -5 8 0l149 312c7 15 12 15 25 15h28c10 0 22 0 13 -17l-207 -425l-47 -238c-3 -15 -8 -20 -23 -20h-28zM320 735c-7 0 -9 3 -8 10l19 98c4 17 10 21 25 21h38
c15 0 19 -8 8 -27l-46 -85c-8 -15 -11 -17 -21 -17h-15z" />
    <glyph glyph-name="Ygrave" unicode="&#x1ef2;" horiz-adv-x="371" 
d="M171 0c-15 0 -20 5 -17 20l47 238l-42 425c-1 17 11 17 21 17h28c13 0 18 0 19 -15l26 -312c0 -5 6 -5 8 0l149 312c7 15 12 15 25 15h28c10 0 22 0 13 -17l-207 -425l-47 -238c-3 -15 -8 -20 -23 -20h-28zM336 735h-15c-10 0 -11 2 -13 17l-14 85c-3 19 3 27 18 27h38
c15 0 21 -4 17 -21l-19 -98c-1 -7 -5 -10 -12 -10z" />
    <glyph glyph-name="Tcaron" unicode="&#x164;" horiz-adv-x="340" 
d="M152 680c3 15 9 20 24 20h260c15 0 19 -5 16 -20l-5 -24c-3 -15 -9 -20 -24 -20h-76c-20 0 -20 0 -24 -20l-116 -596c-3 -15 -8 -20 -23 -20h-28c-15 0 -20 5 -17 20l116 596c4 20 4 20 -15 20h-77c-15 0 -19 5 -16 20zM327 786l37 67c3 6 7 11 15 11h43
c13 0 13 -10 6 -18l-84 -104c-7 -7 -10 -7 -17 -7h-28c-7 0 -10 0 -13 7l-44 104c-3 8 -1 18 12 18h43c8 0 10 -5 11 -11l11 -67c1 -5 5 -5 8 0z" />
    <glyph glyph-name="Uacute" unicode="&#xda;" horiz-adv-x="400" 
d="M382 166c-24 -123 -100 -170 -183 -170s-141 47 -117 170l100 514c3 15 9 20 24 20h28c15 0 19 -5 16 -20l-97 -497c-17 -90 3 -123 58 -123s89 33 106 123l97 497c3 15 9 20 24 20h28c15 0 19 -5 16 -20zM336 735c-7 0 -9 3 -8 10l19 98c4 17 10 21 25 21h38
c15 0 19 -8 8 -27l-46 -85c-8 -15 -11 -17 -21 -17h-15z" />
    <glyph glyph-name="Ugrave" unicode="&#xd9;" horiz-adv-x="400" 
d="M382 166c-24 -123 -100 -170 -183 -170s-141 47 -117 170l100 514c3 15 9 20 24 20h28c15 0 19 -5 16 -20l-97 -497c-17 -90 3 -123 58 -123s89 33 106 123l97 497c3 15 9 20 24 20h28c15 0 19 -5 16 -20zM350 735h-15c-10 0 -11 2 -13 17l-14 85c-3 19 3 27 18 27h38
c15 0 21 -4 17 -21l-19 -98c-1 -7 -5 -10 -12 -10z" />
    <glyph glyph-name="Racute" unicode="&#x154;" horiz-adv-x="384" 
d="M75 0c-15 0 -20 5 -17 20l129 660c3 15 9 20 24 20h114c83 0 140 -47 117 -170l-11 -55c-15 -75 -49 -122 -92 -147l2 -311c0 -17 -10 -17 -20 -17h-29c-13 0 -19 0 -20 15l-1 275c0 15 -2 15 -16 15h-53c-20 0 -20 0 -24 -20l-52 -265c-3 -15 -8 -20 -23 -20h-28z
M242 616l-44 -227c-4 -20 -4 -20 16 -20h46c55 0 89 33 106 123l4 21c18 90 -3 123 -58 123h-46c-20 0 -20 0 -24 -20zM307 735c-7 0 -9 3 -8 10l19 98c4 17 10 21 25 21h38c15 0 19 -8 8 -27l-46 -85c-8 -15 -11 -17 -21 -17h-15z" />
    <glyph glyph-name="Ycircumflex" unicode="&#x176;" horiz-adv-x="371" 
d="M171 0c-15 0 -20 5 -17 20l47 238l-42 425c-1 17 11 17 21 17h28c13 0 18 0 19 -15l26 -312c0 -5 6 -5 8 0l149 312c7 15 12 15 25 15h28c10 0 22 0 13 -17l-207 -425l-47 -238c-3 -15 -8 -20 -23 -20h-28zM358 746l-11 67c-1 5 -5 5 -8 0l-37 -67c-4 -6 -8 -11 -16 -11
h-43c-13 0 -12 10 -5 18l84 104c6 7 9 7 16 7h28c7 0 10 0 14 -7l44 -104c3 -8 0 -18 -13 -18h-43c-8 0 -10 5 -10 11z" />
    <glyph glyph-name="Lslash" unicode="&#x141;" horiz-adv-x="326" 
d="M75 0c-15 0 -20 5 -17 20l129 660c3 15 9 20 24 20h28c15 0 19 -5 16 -20l-49 -251l41 40c13 13 19 11 27 3l17 -17c8 -9 10 -14 -2 -27l-103 -100l-47 -243c-4 -21 -4 -21 17 -21h142c15 0 19 -5 16 -20l-5 -24c-3 -15 -8 -20 -23 -20h-211z" />
    <glyph glyph-name="lslash" unicode="&#x142;" horiz-adv-x="214" 
d="M176 64c15 -1 19 -5 16 -20l-5 -24c-3 -15 -8 -20 -23 -20c-104 0 -87 91 -66 199l19 95l-21 -17c-7 -6 -13 -4 -12 5l11 55c3 15 5 22 16 31l24 20l57 292c3 15 9 20 24 20h28c15 0 19 -5 16 -20l-42 -215l39 33c11 9 15 3 13 -5l-12 -61c-1 -6 -2 -14 -14 -24l-44 -37
l-40 -203c-12 -61 -20 -102 16 -104z" />
    <glyph glyph-name="macron" unicode="&#xaf;" horiz-adv-x="239" 
d="M170 773c3 15 9 20 24 20h159c15 0 19 -5 16 -20l-4 -18c-3 -15 -9 -20 -24 -20h-159c-15 0 -19 5 -16 20z" />
    <glyph glyph-name="Umacron" unicode="&#x16a;" horiz-adv-x="400" 
d="M382 166c-24 -123 -100 -170 -183 -170s-141 47 -117 170l100 514c3 15 9 20 24 20h28c15 0 19 -5 16 -20l-97 -497c-17 -90 3 -123 58 -123s89 33 106 123l97 497c3 15 9 20 24 20h28c15 0 19 -5 16 -20zM251 773c3 15 9 20 24 20h159c15 0 19 -5 16 -20l-4 -18
c-3 -15 -9 -20 -24 -20h-159c-15 0 -19 5 -16 20z" />
    <glyph glyph-name="Omacron" unicode="&#x14c;" horiz-adv-x="390" 
d="M377 166c-24 -123 -100 -170 -183 -170s-141 47 -117 170l71 368c24 123 100 170 183 170s141 -47 117 -170zM377 517c17 90 -3 123 -58 123s-89 -33 -106 -123l-65 -334c-17 -90 3 -123 58 -123s89 33 106 123zM246 773c3 15 9 20 24 20h159c15 0 19 -5 16 -20l-4 -18
c-3 -15 -9 -20 -24 -20h-159c-15 0 -19 5 -16 20z" />
    <glyph glyph-name="Amacron" unicode="&#x100;" horiz-adv-x="402" 
d="M349 0h-30c-13 0 -19 0 -20 15l2 69c0 20 0 20 -18 20h-123c-20 0 -19 0 -27 -20l-26 -69c-5 -15 -11 -15 -24 -15h-30c-10 0 -20 0 -14 17l254 665c6 15 10 18 26 18h36c16 0 18 -3 18 -18l-4 -665c0 -17 -10 -17 -20 -17zM302 543l-130 -355c-7 -20 -7 -20 13 -20h96
c20 0 20 0 21 20l8 355c0 5 -6 5 -8 0zM252 773c3 15 9 20 24 20h159c15 0 19 -5 16 -20l-4 -18c-3 -15 -9 -20 -24 -20h-159c-15 0 -19 5 -16 20z" />
    <glyph glyph-name="Emacron" unicode="&#x112;" horiz-adv-x="341" 
d="M75 0c-15 0 -20 5 -17 20l129 660c3 15 9 20 24 20h201c15 0 19 -5 16 -20l-5 -24c-3 -15 -9 -20 -24 -20h-133c-20 0 -20 0 -24 -20l-38 -195c-4 -20 -4 -20 16 -20h133c15 0 19 -5 17 -20l-5 -24c-3 -15 -9 -20 -24 -20h-133c-20 0 -20 0 -24 -20l-45 -233
c-4 -20 -4 -20 16 -20h133c15 0 19 -5 16 -20l-5 -24c-3 -15 -8 -20 -23 -20h-201zM228 773c3 15 9 20 24 20h159c15 0 19 -5 16 -20l-4 -18c-3 -15 -9 -20 -24 -20h-159c-15 0 -19 5 -16 20z" />
    <glyph glyph-name="Gcircumflex" unicode="&#x11c;" horiz-adv-x="391" 
d="M338 317c4 20 4 20 -16 20h-40c-15 0 -19 5 -16 20l5 24c2 15 8 20 23 20h108c15 0 19 -5 17 -20l-42 -215c-24 -123 -100 -170 -183 -170s-141 47 -117 170l71 368c24 123 100 170 183 170c82 0 139 -46 118 -168c-3 -17 -10 -23 -25 -23h-28c-14 0 -18 4 -17 16
c13 81 -8 111 -60 111c-55 0 -89 -33 -106 -123l-65 -334c-17 -90 3 -123 58 -123s89 33 106 123zM371 746l-11 67c-1 5 -5 5 -8 0l-37 -67c-4 -6 -8 -11 -16 -11h-43c-13 0 -12 10 -5 18l84 104c6 7 9 7 16 7h28c7 0 10 0 14 -7l44 -104c3 -8 0 -18 -13 -18h-43
c-8 0 -10 5 -10 11z" />
    <glyph glyph-name="Gdotaccent" unicode="&#x120;" horiz-adv-x="391" 
d="M338 317c4 20 4 20 -16 20h-40c-15 0 -19 5 -16 20l5 24c2 15 8 20 23 20h108c15 0 19 -5 17 -20l-42 -215c-24 -123 -100 -170 -183 -170s-141 47 -117 170l71 368c24 123 100 170 183 170c82 0 139 -46 118 -168c-3 -17 -10 -23 -25 -23h-28c-14 0 -18 4 -17 16
c13 81 -8 111 -60 111c-55 0 -89 -33 -106 -123l-65 -334c-17 -90 3 -123 58 -123s89 33 106 123zM303 770c4 21 26 39 47 39c22 0 35 -18 31 -39c-4 -22 -24 -39 -46 -39c-21 0 -36 17 -32 39z" />
    <glyph glyph-name="Hcircumflex" unicode="&#x124;" horiz-adv-x="410" 
d="M348 317c4 20 4 20 -16 20h-124c-20 0 -20 0 -24 -20l-58 -297c-3 -15 -8 -20 -23 -20h-28c-15 0 -20 5 -17 20l129 660c3 15 9 20 24 20h28c15 0 19 -5 16 -20l-51 -259c-4 -20 -4 -20 16 -20h124c20 0 20 0 24 20l51 259c3 15 9 20 24 20h28c15 0 19 -5 16 -20
l-129 -660c-3 -15 -8 -20 -23 -20h-28c-15 0 -20 5 -17 20zM379 746l-11 67c-1 5 -5 5 -8 0l-37 -67c-4 -6 -8 -11 -16 -11h-43c-13 0 -12 10 -5 18l84 104c6 7 9 7 16 7h28c7 0 10 0 14 -7l44 -104c3 -8 0 -18 -13 -18h-43c-8 0 -10 5 -10 11z" />
    <glyph glyph-name="Jcircumflex" unicode="&#x134;" horiz-adv-x="222" 
d="M52 64c65 4 72 43 84 104l100 512c3 15 9 20 24 20h28c15 0 19 -5 16 -20l-94 -481c-19 -97 -38 -199 -170 -199c-15 0 -20 5 -17 20l5 24c3 15 9 19 24 20zM311 746l-11 67c-1 5 -5 5 -8 0l-37 -67c-4 -6 -8 -11 -16 -11h-43c-13 0 -12 10 -5 18l84 104c6 7 9 7 16 7h28
c7 0 10 0 14 -7l44 -104c3 -8 0 -18 -13 -18h-43c-8 0 -10 5 -10 11z" />
    <glyph glyph-name="Lacute" unicode="&#x139;" horiz-adv-x="326" 
d="M75 0c-15 0 -20 5 -17 20l129 660c3 15 9 20 24 20h28c15 0 19 -5 16 -20c-8 -39 -34 -171 -116 -596c-4 -20 -4 -20 16 -20h143c15 0 19 -5 16 -20l-5 -24c-3 -15 -8 -20 -23 -20h-211zM221 735c-7 0 -9 3 -8 10l19 98c4 17 10 21 25 21h38c15 0 19 -8 8 -27l-46 -85
c-8 -15 -11 -17 -21 -17h-15z" />
    <glyph glyph-name="Ncaron" unicode="&#x147;" horiz-adv-x="423" 
d="M348 0h-20c-9 0 -16 2 -18 12l-87 466c0 7 -7 5 -8 0l-89 -458c-3 -15 -8 -20 -23 -20h-28c-15 0 -20 5 -17 20l129 660c3 15 9 20 24 20h20c11 0 15 -2 17 -13l86 -466c1 -6 7 -5 8 0l90 459c3 15 9 20 24 20h28c15 0 19 -5 16 -20l-129 -660c-3 -15 -8 -20 -23 -20z
M367 786l37 67c3 6 7 11 15 11h43c13 0 13 -10 6 -18l-84 -104c-7 -7 -10 -7 -17 -7h-28c-7 0 -10 0 -13 7l-44 104c-3 8 -1 18 12 18h43c8 0 10 -5 11 -11l11 -67c1 -5 5 -5 8 0z" />
    <glyph glyph-name="Ocircumflex" unicode="&#xd4;" horiz-adv-x="390" 
d="M377 166c-24 -123 -100 -170 -183 -170s-141 47 -117 170l71 368c24 123 100 170 183 170s141 -47 117 -170zM377 517c17 90 -3 123 -58 123s-89 -33 -106 -123l-65 -334c-17 -90 3 -123 58 -123s89 33 106 123zM371 746l-11 67c-1 5 -5 5 -8 0l-37 -67
c-4 -6 -8 -11 -16 -11h-43c-13 0 -12 10 -5 18l84 104c6 7 9 7 16 7h28c7 0 10 0 14 -7l44 -104c3 -8 0 -18 -13 -18h-43c-8 0 -10 5 -10 11z" />
    <glyph glyph-name="Ograve" unicode="&#xd2;" horiz-adv-x="390" 
d="M377 166c-24 -123 -100 -170 -183 -170s-141 47 -117 170l71 368c24 123 100 170 183 170s141 -47 117 -170zM377 517c17 90 -3 123 -58 123s-89 -33 -106 -123l-65 -334c-17 -90 3 -123 58 -123s89 33 106 123zM345 735h-15c-10 0 -11 2 -13 17l-14 85c-3 19 3 27 18 27
h38c15 0 21 -4 17 -21l-19 -98c-1 -7 -5 -10 -12 -10z" />
    <glyph glyph-name="Rcaron" unicode="&#x158;" horiz-adv-x="384" 
d="M75 0c-15 0 -20 5 -17 20l129 660c3 15 9 20 24 20h114c83 0 140 -47 117 -170l-11 -55c-15 -75 -49 -122 -92 -147l2 -311c0 -17 -10 -17 -20 -17h-29c-13 0 -19 0 -20 15l-1 275c0 15 -2 15 -16 15h-53c-20 0 -20 0 -24 -20l-52 -265c-3 -15 -8 -20 -23 -20h-28z
M242 616l-44 -227c-4 -20 -4 -20 16 -20h46c55 0 89 33 106 123l4 21c18 90 -3 123 -58 123h-46c-20 0 -20 0 -24 -20zM333 786l37 67c3 6 7 11 15 11h43c13 0 13 -10 6 -18l-84 -104c-7 -7 -10 -7 -17 -7h-28c-7 0 -10 0 -13 7l-44 104c-3 8 -1 18 12 18h43
c8 0 10 -5 11 -11l11 -67c1 -5 5 -5 8 0z" />
    <glyph glyph-name="Scircumflex" unicode="&#x15c;" 
d="M54 145c1 14 4 27 22 27h31c13 0 19 -5 15 -23c-5 -45 21 -89 75 -89c68 0 112 61 116 113c11 133 -189 208 -166 373c12 88 86 158 173 158c68 0 126 -52 113 -141c-3 -12 -10 -14 -24 -14h-22c-13 0 -18 2 -17 14c4 44 -18 77 -62 77c-45 0 -92 -37 -97 -100
c-8 -122 181 -199 168 -363c-8 -90 -91 -181 -194 -181c-86 0 -141 67 -131 149zM365 746l-11 67c-1 5 -5 5 -8 0l-37 -67c-4 -6 -8 -11 -16 -11h-43c-13 0 -12 10 -5 18l84 104c6 7 9 7 16 7h28c7 0 10 0 14 -7l44 -104c3 -8 0 -18 -13 -18h-43c-8 0 -10 5 -10 11z" />
    <glyph glyph-name="Ubreve" unicode="&#x16c;" horiz-adv-x="400" 
d="M382 166c-24 -123 -100 -170 -183 -170s-141 47 -117 170l100 514c3 15 9 20 24 20h28c15 0 19 -5 16 -20l-97 -497c-17 -90 3 -123 58 -123s89 33 106 123l97 497c3 15 9 20 24 20h28c15 0 19 -5 16 -20zM299 844c-11 -85 104 -87 126 0c5 17 9 17 24 17h12
c13 0 20 0 15 -17c-34 -149 -252 -151 -228 0c3 17 10 17 23 17h12c15 0 19 0 16 -17z" />
    <glyph glyph-name="Ucircumflex" unicode="&#xdb;" horiz-adv-x="400" 
d="M382 166c-24 -123 -100 -170 -183 -170s-141 47 -117 170l100 514c3 15 9 20 24 20h28c15 0 19 -5 16 -20l-97 -497c-17 -90 3 -123 58 -123s89 33 106 123l97 497c3 15 9 20 24 20h28c15 0 19 -5 16 -20zM375 746l-11 67c-1 5 -5 5 -8 0l-37 -67c-4 -6 -8 -11 -16 -11
h-43c-13 0 -12 10 -5 18l84 104c6 7 9 7 16 7h28c7 0 10 0 14 -7l44 -104c3 -8 0 -18 -13 -18h-43c-8 0 -10 5 -10 11z" />
    <glyph glyph-name="Wcircumflex" unicode="&#x174;" horiz-adv-x="639" 
d="M463 700c11 0 16 -2 16 -15l1 -479c0 -5 6 -5 8 0l178 479c6 15 12 15 25 15h31c10 0 20 0 13 -17l-254 -665c-6 -15 -9 -18 -25 -18h-20c-16 0 -19 3 -19 18l1 457c0 8 -10 8 -12 0l-178 -457c-6 -15 -9 -18 -25 -18h-20c-16 0 -19 3 -19 18l4 665c1 17 11 17 21 17h31
c13 0 19 0 19 -15l-8 -479c0 -5 6 -5 8 0l187 479c4 13 11 15 22 15h15zM490 746l-11 67c-1 5 -5 5 -8 0l-37 -67c-4 -6 -8 -11 -16 -11h-43c-13 0 -12 10 -5 18l84 104c6 7 9 7 16 7h28c7 0 10 0 14 -7l44 -104c3 -8 0 -18 -13 -18h-43c-8 0 -10 5 -10 11z" />
    <glyph glyph-name="ygrave" unicode="&#x1ef3;" horiz-adv-x="328" 
d="M117 483c0 14 4 17 21 17h28c13 0 19 0 19 -15v-354c0 -5 6 -5 8 0l138 354c6 15 12 15 25 15h28c17 0 19 -3 13 -17l-226 -555c-31 -76 -63 -105 -117 -108c-15 0 -20 4 -17 20l5 24c3 15 9 19 24 20c25 1 49 36 57 76s4 32 -6 523zM279 549h-15c-10 0 -11 2 -13 17
l-14 85c-3 19 3 27 18 27h38c15 0 21 -4 17 -21l-19 -98c-1 -7 -5 -10 -12 -10z" />
    <glyph glyph-name="yacute" unicode="&#xfd;" horiz-adv-x="328" 
d="M117 483c0 14 4 17 21 17h28c13 0 19 0 19 -15v-354c0 -5 6 -5 8 0l138 354c6 15 12 15 25 15h28c17 0 19 -3 13 -17l-226 -555c-31 -76 -63 -105 -117 -108c-15 0 -20 4 -17 20l5 24c3 15 9 19 24 20c25 1 49 36 57 76s4 32 -6 523zM256 549c-7 0 -9 3 -8 10l19 98
c4 17 10 21 25 21h38c15 0 19 -8 8 -27l-46 -85c-8 -15 -11 -17 -21 -17h-15z" />
    <glyph glyph-name="wgrave" unicode="&#x1e81;" horiz-adv-x="544" 
d="M373 500c13 0 18 0 19 -15l20 -322c0 -5 6 -5 8 0l128 322c6 15 12 15 25 15h28c10 0 21 0 13 -17l-191 -465c-6 -15 -9 -18 -25 -18h-16c-16 0 -18 3 -19 18l-21 325c0 5 -6 5 -8 0l-147 -325c-8 -15 -9 -18 -25 -18h-16c-16 0 -19 3 -19 18l-11 465c0 17 11 17 21 17
h28c13 0 19 0 19 -15l2 -322c0 -5 6 -5 8 0l146 322c7 15 12 15 25 15h8zM381 549h-15c-10 0 -11 2 -13 17l-14 85c-3 19 3 27 18 27h38c15 0 21 -4 17 -21l-19 -98c-1 -7 -5 -10 -12 -10z" />
    <glyph glyph-name="wacute" unicode="&#x1e83;" horiz-adv-x="544" 
d="M373 500c13 0 18 0 19 -15l20 -322c0 -5 6 -5 8 0l128 322c6 15 12 15 25 15h28c10 0 21 0 13 -17l-191 -465c-6 -15 -9 -18 -25 -18h-16c-16 0 -18 3 -19 18l-21 325c0 5 -6 5 -8 0l-147 -325c-8 -15 -9 -18 -25 -18h-16c-16 0 -19 3 -19 18l-11 465c0 17 11 17 21 17
h28c13 0 19 0 19 -15l2 -322c0 -5 6 -5 8 0l146 322c7 15 12 15 25 15h8zM370 549c-7 0 -9 3 -8 10l19 98c4 17 10 21 25 21h38c15 0 19 -8 8 -27l-46 -85c-8 -15 -11 -17 -21 -17h-15z" />
    <glyph glyph-name="umacron" unicode="&#x16b;" horiz-adv-x="381" 
d="M177 -4c-72 -2 -120 43 -94 176l60 308c3 15 9 20 24 20h28c15 0 19 -5 16 -20l-64 -327c-13 -66 15 -93 52 -93c35 0 75 26 88 94l64 326c3 15 9 20 24 20h28c15 0 19 -5 16 -20l-90 -460c-3 -15 -8 -20 -23 -20h-28c-15 0 -20 5 -17 20l4 19c-28 -31 -60 -42 -88 -43z
M202 587c3 15 9 20 24 20h159c15 0 19 -5 16 -20l-4 -18c-3 -15 -9 -20 -24 -20h-159c-15 0 -19 5 -16 20z" />
    <glyph glyph-name="ugrave" unicode="&#xf9;" horiz-adv-x="381" 
d="M177 -4c-72 -2 -120 43 -94 176l60 308c3 15 9 20 24 20h28c15 0 19 -5 16 -20l-64 -327c-13 -66 15 -93 52 -93c35 0 75 26 88 94l64 326c3 15 9 20 24 20h28c15 0 19 -5 16 -20l-90 -460c-3 -15 -8 -20 -23 -20h-28c-15 0 -20 5 -17 20l4 19c-28 -31 -60 -42 -88 -43z
M309 549h-15c-10 0 -11 2 -13 17l-14 85c-3 19 3 27 18 27h38c15 0 21 -4 17 -21l-19 -98c-1 -7 -5 -10 -12 -10z" />
    <glyph glyph-name="ucircumflex" unicode="&#xfb;" horiz-adv-x="381" 
d="M177 -4c-72 -2 -120 43 -94 176l60 308c3 15 9 20 24 20h28c15 0 19 -5 16 -20l-64 -327c-13 -66 15 -93 52 -93c35 0 75 26 88 94l64 326c3 15 9 20 24 20h28c15 0 19 -5 16 -20l-90 -460c-3 -15 -8 -20 -23 -20h-28c-15 0 -20 5 -17 20l4 19c-28 -31 -60 -42 -88 -43z
M328 560l-11 67c-1 5 -5 5 -8 0l-37 -67c-4 -6 -8 -11 -16 -11h-43c-13 0 -12 10 -5 18l84 104c6 7 9 7 16 7h28c7 0 10 0 14 -7l44 -104c3 -8 0 -18 -13 -18h-43c-8 0 -10 5 -10 11z" />
    <glyph glyph-name="uacute" unicode="&#xfa;" horiz-adv-x="381" 
d="M177 -4c-72 -2 -120 43 -94 176l60 308c3 15 9 20 24 20h28c15 0 19 -5 16 -20l-64 -327c-13 -66 15 -93 52 -93c35 0 75 26 88 94l64 326c3 15 9 20 24 20h28c15 0 19 -5 16 -20l-90 -460c-3 -15 -8 -20 -23 -20h-28c-15 0 -20 5 -17 20l4 19c-28 -31 -60 -42 -88 -43z
M285 549c-7 0 -9 3 -8 10l19 98c4 17 10 21 25 21h38c15 0 19 -8 8 -27l-46 -85c-8 -15 -11 -17 -21 -17h-15z" />
    <glyph glyph-name="scircumflex" unicode="&#x15d;" horiz-adv-x="316" 
d="M350 390c-3 -17 -9 -20 -24 -20h-23c-10 0 -15 1 -14 17c3 33 -19 53 -45 53c-28 0 -58 -23 -65 -55c-17 -90 167 -123 134 -262c-17 -74 -87 -127 -157 -127c-75 0 -118 57 -107 128c3 18 8 20 21 20h28c14 0 19 -5 17 -20c-4 -35 16 -64 53 -64c38 0 74 29 82 69
c19 96 -159 131 -134 258c13 67 76 117 138 117c59 0 106 -41 96 -114zM294 560l-11 67c-1 5 -5 5 -8 0l-37 -67c-4 -6 -8 -11 -16 -11h-43c-13 0 -12 10 -5 18l84 104c6 7 9 7 16 7h28c7 0 10 0 14 -7l44 -104c3 -8 0 -18 -13 -18h-43c-8 0 -10 5 -10 11z" />
    <glyph glyph-name="rcaron" unicode="&#x159;" horiz-adv-x="237" 
d="M280 428c-7 2 -14 5 -23 5c-49 0 -60 -52 -70 -102l-61 -311c-3 -15 -8 -20 -23 -20h-28c-15 0 -20 5 -17 20l90 460c3 15 9 20 24 20h28c15 0 19 -5 16 -20l-3 -12c28 23 57 31 79 32h2c15 0 19 -5 16 -20l-6 -32c-3 -15 -10 -24 -24 -20zM208 600l37 67c3 6 7 11 15 11
h43c13 0 13 -10 6 -18l-84 -104c-7 -7 -10 -7 -17 -7h-28c-7 0 -10 0 -13 7l-44 104c-3 8 -1 18 12 18h43c8 0 10 -5 11 -11l11 -67c1 -5 5 -5 8 0z" />
    <glyph glyph-name="racute" unicode="&#x155;" horiz-adv-x="237" 
d="M280 428c-7 2 -14 5 -23 5c-49 0 -60 -52 -70 -102l-61 -311c-3 -15 -8 -20 -23 -20h-28c-15 0 -20 5 -17 20l90 460c3 15 9 20 24 20h28c15 0 19 -5 16 -20l-3 -12c28 23 57 31 79 32h2c15 0 19 -5 16 -20l-6 -32c-3 -15 -10 -24 -24 -20zM186 549c-7 0 -9 3 -8 10
l19 98c4 17 10 21 25 21h38c15 0 19 -8 8 -27l-46 -85c-8 -15 -11 -17 -21 -17h-15z" />
    <glyph glyph-name="omacron" unicode="&#x14d;" horiz-adv-x="358" 
d="M178 -4c-71 0 -126 43 -100 176l30 156c26 133 97 176 168 176s126 -43 100 -176l-30 -156c-26 -133 -97 -176 -168 -176zM312 347c13 66 -11 93 -48 93s-71 -27 -84 -93l-38 -194c-13 -66 11 -93 48 -93s71 27 84 93zM193 587c3 15 9 20 24 20h159c15 0 19 -5 16 -20
l-4 -18c-3 -15 -9 -20 -24 -20h-159c-15 0 -19 5 -16 20z" />
    <glyph glyph-name="ocircumflex" unicode="&#xf4;" horiz-adv-x="358" 
d="M178 -4c-71 0 -126 43 -100 176l30 156c26 133 97 176 168 176s126 -43 100 -176l-30 -156c-26 -133 -97 -176 -168 -176zM312 347c13 66 -11 93 -48 93s-71 -27 -84 -93l-38 -194c-13 -66 11 -93 48 -93s71 27 84 93zM317 560l-11 67c-1 5 -5 5 -8 0l-37 -67
c-4 -6 -8 -11 -16 -11h-43c-13 0 -12 10 -5 18l84 104c6 7 9 7 16 7h28c7 0 10 0 14 -7l44 -104c3 -8 0 -18 -13 -18h-43c-8 0 -10 5 -10 11z" />
    <glyph glyph-name="lacute" unicode="&#x13a;" horiz-adv-x="199" 
d="M166 64c15 -1 19 -5 16 -20l-5 -24c-3 -15 -8 -20 -23 -20c-104 0 -87 91 -66 199l94 481c3 15 9 20 24 20h28c15 0 19 -5 16 -20l-100 -512c-12 -61 -20 -102 16 -104zM216 735c-7 0 -9 3 -8 10l19 98c4 17 10 21 25 21h38c15 0 19 -8 8 -27l-46 -85
c-8 -15 -11 -17 -21 -17h-15z" />
    <glyph glyph-name="gdotaccent" unicode="&#x121;" 
d="M38 -73l40 12c13 4 14 -1 16 -8c7 -40 36 -50 59 -50c37 0 82 27 94 93l13 65c-28 -31 -60 -42 -88 -43c-72 -2 -120 43 -94 176l30 156c26 133 92 178 162 176c28 -1 56 -12 72 -42l4 18c3 15 9 20 24 20h28c15 0 19 -5 16 -20l-95 -487c-26 -133 -107 -176 -178 -176
c-53 0 -103 23 -113 91c-1 5 -3 14 10 19zM282 154l38 193c13 66 -17 93 -52 93c-37 0 -75 -27 -88 -93l-38 -194c-13 -66 15 -93 52 -93c35 0 75 26 88 94zM256 584c4 21 26 39 47 39c22 0 35 -18 31 -39c-4 -22 -24 -39 -46 -39c-21 0 -36 17 -32 39z" />
    <glyph glyph-name="emacron" unicode="&#x113;" horiz-adv-x="358" 
d="M157 227l-15 -74c-13 -66 11 -93 48 -93c35 0 66 25 80 75c4 18 9 20 22 20h27c17 0 20 -7 14 -29c-19 -67 -69 -130 -155 -130c-71 0 -126 43 -100 176l30 156c26 133 97 176 168 176s126 -43 100 -176l-12 -62c-3 -15 -9 -20 -24 -20h-160c-20 0 -20 0 -23 -19z
M264 440c-37 0 -71 -27 -84 -93l-3 -17c-4 -20 -4 -20 16 -20h92c20 0 20 0 24 20l3 17c13 66 -11 93 -48 93zM194 587c3 15 9 20 24 20h159c15 0 19 -5 16 -20l-4 -18c-3 -15 -9 -20 -24 -20h-159c-15 0 -19 5 -16 20z" />
    <glyph glyph-name="egrave" unicode="&#xe8;" horiz-adv-x="358" 
d="M157 227l-15 -74c-13 -66 11 -93 48 -93c35 0 66 25 80 75c4 18 9 20 22 20h27c17 0 20 -7 14 -29c-19 -67 -69 -130 -155 -130c-71 0 -126 43 -100 176l30 156c26 133 97 176 168 176s126 -43 100 -176l-12 -62c-3 -15 -9 -20 -24 -20h-160c-20 0 -20 0 -23 -19z
M264 440c-37 0 -71 -27 -84 -93l-3 -17c-4 -20 -4 -20 16 -20h92c20 0 20 0 24 20l3 17c13 66 -11 93 -48 93zM290 549h-15c-10 0 -11 2 -13 17l-14 85c-3 19 3 27 18 27h38c15 0 21 -4 17 -21l-19 -98c-1 -7 -5 -10 -12 -10z" />
    <glyph glyph-name="edotaccent" unicode="&#x117;" horiz-adv-x="358" 
d="M157 227l-15 -74c-13 -66 11 -93 48 -93c35 0 66 25 80 75c4 18 9 20 22 20h27c17 0 20 -7 14 -29c-19 -67 -69 -130 -155 -130c-71 0 -126 43 -100 176l30 156c26 133 97 176 168 176s126 -43 100 -176l-12 -62c-3 -15 -9 -20 -24 -20h-160c-20 0 -20 0 -23 -19z
M264 440c-37 0 -71 -27 -84 -93l-3 -17c-4 -20 -4 -20 16 -20h92c20 0 20 0 24 20l3 17c13 66 -11 93 -48 93zM253 584c4 21 26 39 47 39c22 0 35 -18 31 -39c-4 -22 -24 -39 -46 -39c-21 0 -36 17 -32 39z" />
    <glyph glyph-name="ecircumflex" unicode="&#xea;" horiz-adv-x="358" 
d="M157 227l-15 -74c-13 -66 11 -93 48 -93c35 0 66 25 80 75c4 18 9 20 22 20h27c17 0 20 -7 14 -29c-19 -67 -69 -130 -155 -130c-71 0 -126 43 -100 176l30 156c26 133 97 176 168 176s126 -43 100 -176l-12 -62c-3 -15 -9 -20 -24 -20h-160c-20 0 -20 0 -23 -19z
M264 440c-37 0 -71 -27 -84 -93l-3 -17c-4 -20 -4 -20 16 -20h92c20 0 20 0 24 20l3 17c13 66 -11 93 -48 93zM317 560l-11 67c-1 5 -5 5 -8 0l-37 -67c-4 -6 -8 -11 -16 -11h-43c-13 0 -12 10 -5 18l84 104c6 7 9 7 16 7h28c7 0 10 0 14 -7l44 -104c3 -8 0 -18 -13 -18h-43
c-8 0 -10 5 -10 11z" />
    <glyph glyph-name="ecaron" unicode="&#x11b;" horiz-adv-x="358" 
d="M157 227l-15 -74c-13 -66 11 -93 48 -93c35 0 66 25 80 75c4 18 9 20 22 20h27c17 0 20 -7 14 -29c-19 -67 -69 -130 -155 -130c-71 0 -126 43 -100 176l30 156c26 133 97 176 168 176s126 -43 100 -176l-12 -62c-3 -15 -9 -20 -24 -20h-160c-20 0 -20 0 -23 -19z
M264 440c-37 0 -71 -27 -84 -93l-3 -17c-4 -20 -4 -20 16 -20h92c20 0 20 0 24 20l3 17c13 66 -11 93 -48 93zM300 600l37 67c3 6 7 11 15 11h43c13 0 13 -10 6 -18l-84 -104c-7 -7 -10 -7 -17 -7h-28c-7 0 -10 0 -13 7l-44 104c-3 8 -1 18 12 18h43c8 0 10 -5 11 -11
l11 -67c1 -5 5 -5 8 0z" />
    <glyph glyph-name="amacron" unicode="&#x101;" horiz-adv-x="360" 
d="M260 32c-27 -22 -63 -36 -95 -36c-72 0 -116 44 -98 133l6 31c29 150 199 110 235 193c20 47 2 87 -43 87c-30 0 -68 -24 -78 -75c-3 -18 -8 -20 -21 -20h-28c-15 0 -18 5 -17 20c9 71 77 139 156 139c55 0 123 -40 103 -140l-55 -285c-5 -26 -4 -45 -4 -59
c0 -15 -8 -20 -23 -20h-22c-15 0 -18 4 -16 32zM195 60c35 3 62 19 73 77l25 128c-76 -30 -139 -34 -155 -117l-2 -11c-10 -52 8 -81 59 -77zM195 587c3 15 9 20 24 20h159c15 0 19 -5 16 -20l-4 -18c-3 -15 -9 -20 -24 -20h-159c-15 0 -19 5 -16 20z" />
    <glyph glyph-name="Cacute" unicode="&#x106;" horiz-adv-x="386" 
d="M333 187h28c15 0 20 -6 15 -23c-25 -123 -100 -168 -182 -168c-83 0 -141 47 -117 170l71 368c24 123 100 170 183 170c82 0 141 -45 118 -168c-3 -17 -10 -23 -25 -23h-28c-14 0 -19 4 -17 16c13 82 -8 111 -60 111c-55 0 -89 -33 -106 -123l-65 -334
c-17 -90 3 -123 58 -123c52 0 85 29 104 111c2 12 9 16 23 16zM323 735c-7 0 -9 3 -8 10l19 98c4 17 10 21 25 21h38c15 0 19 -8 8 -27l-46 -85c-8 -15 -11 -17 -21 -17h-15z" />
    <glyph glyph-name="Agrave" unicode="&#xc0;" horiz-adv-x="402" 
d="M349 0h-30c-13 0 -19 0 -20 15l2 69c0 20 0 20 -18 20h-123c-20 0 -19 0 -27 -20l-26 -69c-5 -15 -11 -15 -24 -15h-30c-10 0 -20 0 -14 17l254 665c6 15 10 18 26 18h36c16 0 18 -3 18 -18l-4 -665c0 -17 -10 -17 -20 -17zM302 543l-130 -355c-7 -20 -7 -20 13 -20h96
c20 0 20 0 21 20l8 355c0 5 -6 5 -8 0zM350 735h-15c-10 0 -11 2 -13 17l-14 85c-3 19 3 27 18 27h38c15 0 21 -4 17 -21l-19 -98c-1 -7 -5 -10 -12 -10z" />
    <glyph glyph-name="Aacute" unicode="&#xc1;" horiz-adv-x="402" 
d="M349 0h-30c-13 0 -19 0 -20 15l2 69c0 20 0 20 -18 20h-123c-20 0 -19 0 -27 -20l-26 -69c-5 -15 -11 -15 -24 -15h-30c-10 0 -20 0 -14 17l254 665c6 15 10 18 26 18h36c16 0 18 -3 18 -18l-4 -665c0 -17 -10 -17 -20 -17zM302 543l-130 -355c-7 -20 -7 -20 13 -20h96
c20 0 20 0 21 20l8 355c0 5 -6 5 -8 0zM335 735c-7 0 -9 3 -8 10l19 98c4 17 10 21 25 21h38c15 0 19 -8 8 -27l-46 -85c-8 -15 -11 -17 -21 -17h-15z" />
    <glyph glyph-name="Cdotaccent" unicode="&#x10a;" horiz-adv-x="386" 
d="M333 187h28c15 0 20 -6 15 -23c-25 -123 -100 -168 -182 -168c-83 0 -141 47 -117 170l71 368c24 123 100 170 183 170c82 0 141 -45 118 -168c-3 -17 -10 -23 -25 -23h-28c-14 0 -19 4 -17 16c13 82 -8 111 -60 111c-55 0 -89 -33 -106 -123l-65 -334
c-17 -90 3 -123 58 -123c52 0 85 29 104 111c2 12 9 16 23 16zM303 770c4 21 26 39 47 39c22 0 35 -18 31 -39c-4 -22 -24 -39 -46 -39c-21 0 -36 17 -32 39z" />
    <glyph glyph-name="Edotaccent" unicode="&#x116;" horiz-adv-x="341" 
d="M75 0c-15 0 -20 5 -17 20l129 660c3 15 9 20 24 20h201c15 0 19 -5 16 -20l-5 -24c-3 -15 -9 -20 -24 -20h-133c-20 0 -20 0 -24 -20l-38 -195c-4 -20 -4 -20 16 -20h133c15 0 19 -5 17 -20l-5 -24c-3 -15 -9 -20 -24 -20h-133c-20 0 -20 0 -24 -20l-45 -233
c-4 -20 -4 -20 16 -20h133c15 0 19 -5 16 -20l-5 -24c-3 -15 -8 -20 -23 -20h-201zM288 770c4 21 26 39 47 39c22 0 35 -18 31 -39c-4 -22 -24 -39 -46 -39c-21 0 -36 17 -32 39z" />
    <glyph glyph-name="Ecircumflex" unicode="&#xca;" horiz-adv-x="341" 
d="M75 0c-15 0 -20 5 -17 20l129 660c3 15 9 20 24 20h201c15 0 19 -5 16 -20l-5 -24c-3 -15 -9 -20 -24 -20h-133c-20 0 -20 0 -24 -20l-38 -195c-4 -20 -4 -20 16 -20h133c15 0 19 -5 17 -20l-5 -24c-3 -15 -9 -20 -24 -20h-133c-20 0 -20 0 -24 -20l-45 -233
c-4 -20 -4 -20 16 -20h133c15 0 19 -5 16 -20l-5 -24c-3 -15 -8 -20 -23 -20h-201zM349 746l-11 67c-1 5 -5 5 -8 0l-37 -67c-4 -6 -8 -11 -16 -11h-43c-13 0 -12 10 -5 18l84 104c6 7 9 7 16 7h28c7 0 10 0 14 -7l44 -104c3 -8 0 -18 -13 -18h-43c-8 0 -10 5 -10 11z" />
    <glyph glyph-name="Ecaron" unicode="&#x11a;" horiz-adv-x="341" 
d="M75 0c-15 0 -20 5 -17 20l129 660c3 15 9 20 24 20h201c15 0 19 -5 16 -20l-5 -24c-3 -15 -9 -20 -24 -20h-133c-20 0 -20 0 -24 -20l-38 -195c-4 -20 -4 -20 16 -20h133c15 0 19 -5 17 -20l-5 -24c-3 -15 -9 -20 -24 -20h-133c-20 0 -20 0 -24 -20l-45 -233
c-4 -20 -4 -20 16 -20h133c15 0 19 -5 16 -20l-5 -24c-3 -15 -8 -20 -23 -20h-201zM330 786l37 67c3 6 7 11 15 11h43c13 0 13 -10 6 -18l-84 -104c-7 -7 -10 -7 -17 -7h-28c-7 0 -10 0 -13 7l-44 104c-3 8 -1 18 12 18h43c8 0 10 -5 11 -11l11 -67c1 -5 5 -5 8 0z" />
    <glyph glyph-name="Eacute" unicode="&#xc9;" horiz-adv-x="341" 
d="M75 0c-15 0 -20 5 -17 20l129 660c3 15 9 20 24 20h201c15 0 19 -5 16 -20l-5 -24c-3 -15 -9 -20 -24 -20h-133c-20 0 -20 0 -24 -20l-38 -195c-4 -20 -4 -20 16 -20h133c15 0 19 -5 17 -20l-5 -24c-3 -15 -9 -20 -24 -20h-133c-20 0 -20 0 -24 -20l-45 -233
c-4 -20 -4 -20 16 -20h133c15 0 19 -5 16 -20l-5 -24c-3 -15 -8 -20 -23 -20h-201zM313 735c-7 0 -9 3 -8 10l19 98c4 17 10 21 25 21h38c15 0 19 -8 8 -27l-46 -85c-8 -15 -11 -17 -21 -17h-15z" />
    <glyph glyph-name="breve" unicode="&#x2d8;" horiz-adv-x="268" 
d="M232 843c-11 -85 104 -87 126 0c5 17 9 17 24 17h12c13 0 20 0 15 -17c-34 -149 -252 -151 -228 0c3 17 10 17 23 17h12c15 0 19 0 16 -17z" />
    <glyph glyph-name="Abreve" unicode="&#x102;" horiz-adv-x="402" 
d="M349 0h-30c-13 0 -19 0 -20 15l2 69c0 20 0 20 -18 20h-123c-20 0 -19 0 -27 -20l-26 -69c-5 -15 -11 -15 -24 -15h-30c-10 0 -20 0 -14 17l254 665c6 15 10 18 26 18h36c16 0 18 -3 18 -18l-4 -665c0 -17 -10 -17 -20 -17zM302 543l-130 -355c-7 -20 -7 -20 13 -20h96
c20 0 20 0 21 20l8 355c0 5 -6 5 -8 0zM301 843c-11 -85 104 -87 126 0c5 17 9 17 24 17h12c13 0 20 0 15 -17c-34 -149 -252 -151 -228 0c3 17 10 17 23 17h12c15 0 19 0 16 -17z" />
    <glyph glyph-name="Dcaron" unicode="&#x10e;" horiz-adv-x="414" 
d="M402 170c-24 -123 -100 -170 -183 -170h-144c-15 0 -20 5 -17 20l129 660c3 15 9 20 24 20h144c83 0 140 -47 117 -170zM242 616l-103 -532c-4 -20 -4 -20 16 -20h76c55 0 88 33 106 123l63 326c18 90 -3 123 -58 123h-76c-20 0 -20 0 -24 -20zM347 786l37 67
c3 6 7 11 15 11h43c13 0 13 -10 6 -18l-84 -104c-7 -7 -10 -7 -17 -7h-28c-7 0 -10 0 -13 7l-44 104c-3 8 -1 18 12 18h43c8 0 10 -5 11 -11l11 -67c1 -5 5 -5 8 0z" />
    <glyph glyph-name="Ebreve" unicode="&#x114;" horiz-adv-x="341" 
d="M75 0c-15 0 -20 5 -17 20l129 660c3 15 9 20 24 20h201c15 0 19 -5 16 -20l-5 -24c-3 -15 -9 -20 -24 -20h-133c-20 0 -20 0 -24 -20l-38 -195c-4 -20 -4 -20 16 -20h133c15 0 19 -5 17 -20l-5 -24c-3 -15 -9 -20 -24 -20h-133c-20 0 -20 0 -24 -20l-45 -233
c-4 -20 -4 -20 16 -20h133c15 0 19 -5 16 -20l-5 -24c-3 -15 -8 -20 -23 -20h-201zM278 843c-11 -85 104 -87 126 0c5 17 9 17 24 17h12c13 0 20 0 15 -17c-34 -149 -252 -151 -228 0c3 17 10 17 23 17h12c15 0 19 0 16 -17z" />
    <glyph glyph-name="Egrave" unicode="&#xc8;" horiz-adv-x="341" 
d="M75 0c-15 0 -20 5 -17 20l129 660c3 15 9 20 24 20h201c15 0 19 -5 16 -20l-5 -24c-3 -15 -9 -20 -24 -20h-133c-20 0 -20 0 -24 -20l-38 -195c-4 -20 -4 -20 16 -20h133c15 0 19 -5 17 -20l-5 -24c-3 -15 -9 -20 -24 -20h-133c-20 0 -20 0 -24 -20l-45 -233
c-4 -20 -4 -20 16 -20h133c15 0 19 -5 16 -20l-5 -24c-3 -15 -8 -20 -23 -20h-201zM330 735h-15c-10 0 -11 2 -13 17l-14 85c-3 19 3 27 18 27h38c15 0 21 -4 17 -21l-19 -98c-1 -7 -5 -10 -12 -10z" />
    <glyph glyph-name="Gbreve" unicode="&#x11e;" horiz-adv-x="391" 
d="M338 317c4 20 4 20 -16 20h-40c-15 0 -19 5 -16 20l5 24c2 15 8 20 23 20h108c15 0 19 -5 17 -20l-42 -215c-24 -123 -100 -170 -183 -170s-141 47 -117 170l71 368c24 123 100 170 183 170c82 0 139 -46 118 -168c-3 -17 -10 -23 -25 -23h-28c-14 0 -18 4 -17 16
c13 81 -8 111 -60 111c-55 0 -89 -33 -106 -123l-65 -334c-17 -90 3 -123 58 -123s89 33 106 123zM296 844c-11 -85 104 -87 126 0c5 17 9 17 24 17h12c13 0 20 0 15 -17c-34 -149 -252 -151 -228 0c3 17 10 17 23 17h12c15 0 19 0 16 -17z" />
    <glyph glyph-name="Obreve" unicode="&#x14e;" horiz-adv-x="390" 
d="M377 166c-24 -123 -100 -170 -183 -170s-141 47 -117 170l71 368c24 123 100 170 183 170s141 -47 117 -170zM377 517c17 90 -3 123 -58 123s-89 -33 -106 -123l-65 -334c-17 -90 3 -123 58 -123s89 33 106 123zM295 844c-11 -85 104 -87 126 0c5 17 9 17 24 17h12
c13 0 20 0 15 -17c-34 -149 -252 -151 -228 0c3 17 10 17 23 17h12c15 0 19 0 16 -17z" />
    <glyph glyph-name="abreve" unicode="&#x103;" horiz-adv-x="360" 
d="M260 32c-27 -22 -63 -36 -95 -36c-72 0 -116 44 -98 133l6 31c29 150 199 110 235 193c20 47 2 87 -43 87c-30 0 -68 -24 -78 -75c-3 -18 -8 -20 -21 -20h-28c-15 0 -18 5 -17 20c9 71 77 139 156 139c55 0 123 -40 103 -140l-55 -285c-5 -26 -4 -45 -4 -59
c0 -15 -8 -20 -23 -20h-22c-15 0 -18 4 -16 32zM195 60c35 3 62 19 73 77l25 128c-76 -30 -139 -34 -155 -117l-2 -11c-10 -52 8 -81 59 -77zM248 658c-11 -85 104 -87 126 0c5 17 9 17 24 17h12c13 0 20 0 15 -17c-34 -149 -252 -151 -228 0c3 17 10 17 23 17h12
c15 0 19 0 16 -17z" />
    <glyph glyph-name="ebreve" unicode="&#x115;" horiz-adv-x="358" 
d="M157 227l-15 -74c-13 -66 11 -93 48 -93c35 0 66 25 80 75c4 18 9 20 22 20h27c17 0 20 -7 14 -29c-19 -67 -69 -130 -155 -130c-71 0 -126 43 -100 176l30 156c26 133 97 176 168 176s126 -43 100 -176l-12 -62c-3 -15 -9 -20 -24 -20h-160c-20 0 -20 0 -23 -19z
M264 440c-37 0 -71 -27 -84 -93l-3 -17c-4 -20 -4 -20 16 -20h92c20 0 20 0 24 20l3 17c13 66 -11 93 -48 93zM240 657c-11 -85 104 -87 126 0c5 17 9 17 24 17h12c13 0 20 0 15 -17c-34 -149 -252 -151 -228 0c3 17 10 17 23 17h12c15 0 19 0 16 -17z" />
    <glyph glyph-name="gbreve" unicode="&#x11f;" 
d="M38 -73l40 12c13 4 14 -1 16 -8c7 -40 36 -50 59 -50c37 0 82 27 94 93l13 65c-28 -31 -60 -42 -88 -43c-72 -2 -120 43 -94 176l30 156c26 133 92 178 162 176c28 -1 56 -12 72 -42l4 18c3 15 9 20 24 20h28c15 0 19 -5 16 -20l-95 -487c-26 -133 -107 -176 -178 -176
c-53 0 -103 23 -113 91c-1 5 -3 14 10 19zM282 154l38 193c13 66 -17 93 -52 93c-37 0 -75 -27 -88 -93l-38 -194c-13 -66 15 -93 52 -93c35 0 75 26 88 94zM247 657c-11 -85 104 -87 126 0c5 17 9 17 24 17h12c13 0 20 0 15 -17c-34 -149 -252 -151 -228 0
c3 17 10 17 23 17h12c15 0 19 0 16 -17z" />
    <glyph glyph-name="obreve" unicode="&#x14f;" horiz-adv-x="358" 
d="M178 -4c-71 0 -126 43 -100 176l30 156c26 133 97 176 168 176s126 -43 100 -176l-30 -156c-26 -133 -97 -176 -168 -176zM312 347c13 66 -11 93 -48 93s-71 -27 -84 -93l-38 -194c-13 -66 11 -93 48 -93s71 27 84 93zM242 657c-11 -85 104 -87 126 0c5 17 9 17 24 17h12
c13 0 20 0 15 -17c-34 -149 -252 -151 -228 0c3 17 10 17 23 17h12c15 0 19 0 16 -17z" />
    <glyph glyph-name="ubreve" unicode="&#x16d;" horiz-adv-x="381" 
d="M177 -4c-72 -2 -120 43 -94 176l60 308c3 15 9 20 24 20h28c15 0 19 -5 16 -20l-64 -327c-13 -66 15 -93 52 -93c35 0 75 26 88 94l64 326c3 15 9 20 24 20h28c15 0 19 -5 16 -20l-90 -460c-3 -15 -8 -20 -23 -20h-28c-15 0 -20 5 -17 20l4 19c-28 -31 -60 -42 -88 -43z
M255 656c-11 -85 104 -87 126 0c5 17 9 17 24 17h12c13 0 20 0 15 -17c-34 -149 -252 -151 -228 0c3 17 10 17 23 17h12c15 0 19 0 16 -17z" />
    <glyph glyph-name="Ccircumflex" unicode="&#x108;" horiz-adv-x="386" 
d="M333 187h28c15 0 20 -6 15 -23c-25 -123 -100 -168 -182 -168c-83 0 -141 47 -117 170l71 368c24 123 100 170 183 170c82 0 141 -45 118 -168c-3 -17 -10 -23 -25 -23h-28c-14 0 -19 4 -17 16c13 82 -8 111 -60 111c-55 0 -89 -33 -106 -123l-65 -334
c-17 -90 3 -123 58 -123c52 0 85 29 104 111c2 12 9 16 23 16zM370 746l-11 67c-1 5 -5 5 -8 0l-37 -67c-4 -6 -8 -11 -16 -11h-43c-13 0 -12 10 -5 18l84 104c6 7 9 7 16 7h28c7 0 10 0 14 -7l44 -104c3 -8 0 -18 -13 -18h-43c-8 0 -10 5 -10 11z" />
    <glyph glyph-name="ring" unicode="&#x2da;" horiz-adv-x="241" 
d="M262 731c-45 0 -76 38 -67 83c9 46 54 84 99 84c46 0 77 -38 68 -84c-9 -45 -54 -83 -100 -83zM239 814c-5 -22 10 -39 31 -39c22 0 42 17 47 39c4 21 -10 39 -32 39c-21 0 -42 -18 -46 -39z" />
    <glyph glyph-name="aring" unicode="&#xe5;" horiz-adv-x="360" 
d="M260 32c-27 -22 -63 -36 -95 -36c-72 0 -116 44 -98 133l6 31c29 150 199 110 235 193c20 47 2 87 -43 87c-30 0 -68 -24 -78 -75c-3 -18 -8 -20 -21 -20h-28c-15 0 -18 5 -17 20c9 71 77 139 156 139c55 0 123 -40 103 -140l-55 -285c-5 -26 -4 -45 -4 -59
c0 -15 -8 -20 -23 -20h-22c-15 0 -18 4 -16 32zM195 60c35 3 62 19 73 77l25 128c-76 -30 -139 -34 -155 -117l-2 -11c-10 -52 8 -81 59 -77zM286 545c-45 0 -76 38 -67 83c9 46 54 84 99 84c46 0 77 -38 68 -84c-9 -45 -54 -83 -100 -83zM263 628c-5 -22 10 -39 31 -39
c22 0 42 17 47 39c4 21 -10 39 -32 39c-21 0 -42 -18 -46 -39z" />
    <glyph glyph-name="Uring" unicode="&#x16e;" horiz-adv-x="400" 
d="M382 166c-24 -123 -100 -170 -183 -170s-141 47 -117 170l100 514c3 15 9 20 24 20h28c15 0 19 -5 16 -20l-97 -497c-17 -90 3 -123 58 -123s89 33 106 123l97 497c3 15 9 20 24 20h28c15 0 19 -5 16 -20zM341 731c-45 0 -76 38 -67 83c9 46 54 84 99 84
c46 0 77 -38 68 -84c-9 -45 -54 -83 -100 -83zM318 814c-5 -22 10 -39 31 -39c22 0 42 17 47 39c4 21 -10 39 -32 39c-21 0 -42 -18 -46 -39z" />
    <glyph glyph-name="uring" unicode="&#x16f;" horiz-adv-x="381" 
d="M177 -4c-72 -2 -120 43 -94 176l60 308c3 15 9 20 24 20h28c15 0 19 -5 16 -20l-64 -327c-13 -66 15 -93 52 -93c35 0 75 26 88 94l64 326c3 15 9 20 24 20h28c15 0 19 -5 16 -20l-90 -460c-3 -15 -8 -20 -23 -20h-28c-15 0 -20 5 -17 20l4 19c-28 -31 -60 -42 -88 -43z
M296 545c-45 0 -76 38 -67 83c9 46 54 84 99 84c46 0 77 -38 68 -84c-9 -45 -54 -83 -100 -83zM273 628c-5 -22 10 -39 31 -39c22 0 42 17 47 39c4 21 -10 39 -32 39c-21 0 -42 -18 -46 -39z" />
    <glyph glyph-name="zero" unicode="0" horiz-adv-x="400" 
d="M382 166c-24 -123 -100 -170 -183 -170s-141 47 -117 170l71 368c24 123 100 170 183 170s141 -47 117 -170zM382 517c17 90 -3 123 -58 123s-89 -33 -106 -123l-65 -334c-17 -90 3 -123 58 -123s89 33 106 123z" />
    <glyph glyph-name="colon" unicode=":" horiz-adv-x="128" 
d="M101 341c4 21 25 39 46 39c22 0 36 -18 32 -39c-4 -22 -25 -39 -47 -39c-21 0 -35 17 -31 39zM42 39c4 21 26 39 47 39c22 0 35 -18 31 -39c-4 -22 -24 -39 -46 -39c-21 0 -36 17 -32 39z" />
    <glyph glyph-name="semicolon" unicode=";" horiz-adv-x="125" 
d="M37 39c4 20 25 39 47 39c39 0 59 -59 -35 -143c-4 -3 -6 -5 -11 -2l-8 7c-4 3 -4 6 0 10c56 61 -1 46 7 89zM96 341c4 21 25 39 46 39c22 0 36 -18 32 -39c-4 -22 -25 -39 -47 -39c-21 0 -35 17 -31 39z" />
    <glyph glyph-name="comma" unicode="," horiz-adv-x="125" 
d="M37 39c4 20 25 39 47 39c39 0 59 -59 -35 -143c-4 -3 -6 -5 -11 -2l-8 7c-4 3 -4 6 0 10c56 61 -1 46 7 89z" />
    <glyph glyph-name="dieresis" unicode="&#xa8;" horiz-adv-x="263" 
d="M186 770c4 21 25 39 47 39c21 0 35 -18 31 -39c-4 -22 -25 -39 -46 -39c-22 0 -36 17 -32 39zM297 770c4 21 26 39 47 39c22 0 35 -18 31 -39c-4 -22 -24 -39 -46 -39c-21 0 -36 17 -32 39z" />
    <glyph glyph-name="Adieresis" unicode="&#xc4;" horiz-adv-x="402" 
d="M349 0h-30c-13 0 -19 0 -20 15l2 69c0 20 0 20 -18 20h-123c-20 0 -19 0 -27 -20l-26 -69c-5 -15 -11 -15 -24 -15h-30c-10 0 -20 0 -14 17l254 665c6 15 10 18 26 18h36c16 0 18 -3 18 -18l-4 -665c0 -17 -10 -17 -20 -17zM302 543l-130 -355c-7 -20 -7 -20 13 -20h96
c20 0 20 0 21 20l8 355c0 5 -6 5 -8 0zM256 770c4 21 25 39 47 39c21 0 35 -18 31 -39c-4 -22 -25 -39 -46 -39c-22 0 -36 17 -32 39zM367 770c4 21 26 39 47 39c22 0 35 -18 31 -39c-4 -22 -24 -39 -46 -39c-21 0 -36 17 -32 39z" />
    <glyph glyph-name="Wdieresis" unicode="&#x1e84;" horiz-adv-x="639" 
d="M463 700c11 0 16 -2 16 -15l1 -479c0 -5 6 -5 8 0l178 479c6 15 12 15 25 15h31c10 0 20 0 13 -17l-254 -665c-6 -15 -9 -18 -25 -18h-20c-16 0 -19 3 -19 18l1 457c0 8 -10 8 -12 0l-178 -457c-6 -15 -9 -18 -25 -18h-20c-16 0 -19 3 -19 18l4 665c1 17 11 17 21 17h31
c13 0 19 0 19 -15l-8 -479c0 -5 6 -5 8 0l187 479c4 13 11 15 22 15h15zM373 770c4 21 25 39 47 39c21 0 35 -18 31 -39c-4 -22 -25 -39 -46 -39c-22 0 -36 17 -32 39zM484 770c4 21 26 39 47 39c22 0 35 -18 31 -39c-4 -22 -24 -39 -46 -39c-21 0 -36 17 -32 39z" />
    <glyph glyph-name="Ydieresis" unicode="&#x178;" horiz-adv-x="371" 
d="M171 0c-15 0 -20 5 -17 20l47 238l-42 425c-1 17 11 17 21 17h28c13 0 18 0 19 -15l26 -312c0 -5 6 -5 8 0l149 312c7 15 12 15 25 15h28c10 0 22 0 13 -17l-207 -425l-47 -238c-3 -15 -8 -20 -23 -20h-28zM240 770c4 21 25 39 47 39c21 0 35 -18 31 -39
c-4 -22 -25 -39 -46 -39c-22 0 -36 17 -32 39zM351 770c4 21 26 39 47 39c22 0 35 -18 31 -39c-4 -22 -24 -39 -46 -39c-21 0 -36 17 -32 39z" />
    <glyph glyph-name="Udieresis" unicode="&#xdc;" horiz-adv-x="400" 
d="M382 166c-24 -123 -100 -170 -183 -170s-141 47 -117 170l100 514c3 15 9 20 24 20h28c15 0 19 -5 16 -20l-97 -497c-17 -90 3 -123 58 -123s89 33 106 123l97 497c3 15 9 20 24 20h28c15 0 19 -5 16 -20zM257 770c4 21 25 39 47 39c21 0 35 -18 31 -39
c-4 -22 -25 -39 -46 -39c-22 0 -36 17 -32 39zM368 770c4 21 26 39 47 39c22 0 35 -18 31 -39c-4 -22 -24 -39 -46 -39c-21 0 -36 17 -32 39z" />
    <glyph glyph-name="tilde" unicode="&#x2dc;" horiz-adv-x="279" 
d="M319 731c-30 3 -55 33 -75 33c-16 0 -24 -11 -31 -26c-2 -3 -3 -7 -9 -7h-40c-4 0 -7 1 -5 6c16 42 47 80 101 76c29 -2 54 -33 74 -33c16 0 24 11 31 26c2 3 4 7 10 7h40c4 0 6 -1 4 -6c-16 -42 -47 -81 -100 -76z" />
    <glyph glyph-name="Ntilde" unicode="&#xd1;" horiz-adv-x="423" 
d="M348 0h-20c-9 0 -16 2 -18 12l-87 466c0 7 -7 5 -8 0l-89 -458c-3 -15 -8 -20 -23 -20h-28c-15 0 -20 5 -17 20l129 660c3 15 9 20 24 20h20c11 0 15 -2 17 -13l86 -466c1 -6 7 -5 8 0l90 459c3 15 9 20 24 20h28c15 0 19 -5 16 -20l-129 -660c-3 -15 -8 -20 -23 -20z
M396 731c-30 3 -55 33 -75 33c-16 0 -24 -11 -31 -26c-2 -3 -3 -7 -9 -7h-40c-4 0 -7 1 -5 6c16 42 47 80 101 76c29 -2 54 -33 74 -33c16 0 24 11 31 26c2 3 4 7 10 7h40c4 0 6 -1 4 -6c-16 -42 -47 -81 -100 -76z" />
    <glyph glyph-name="Odieresis" unicode="&#xd6;" horiz-adv-x="390" 
d="M377 166c-24 -123 -100 -170 -183 -170s-141 47 -117 170l71 368c24 123 100 170 183 170s141 -47 117 -170zM377 517c17 90 -3 123 -58 123s-89 -33 -106 -123l-65 -334c-17 -90 3 -123 58 -123s89 33 106 123zM249 770c4 21 25 39 47 39c21 0 35 -18 31 -39
c-4 -22 -25 -39 -46 -39c-22 0 -36 17 -32 39zM360 770c4 21 26 39 47 39c22 0 35 -18 31 -39c-4 -22 -24 -39 -46 -39c-21 0 -36 17 -32 39z" />
    <glyph glyph-name="Otilde" unicode="&#xd5;" horiz-adv-x="390" 
d="M377 166c-24 -123 -100 -170 -183 -170s-141 47 -117 170l71 368c24 123 100 170 183 170s141 -47 117 -170zM377 517c17 90 -3 123 -58 123s-89 -33 -106 -123l-65 -334c-17 -90 3 -123 58 -123s89 33 106 123zM374 731c-30 3 -55 32 -74 32c-16 0 -24 -11 -31 -25
c-2 -3 -3 -7 -9 -7h-40c-4 0 -7 1 -5 6c16 41 47 79 100 75c29 -2 54 -33 74 -33c15 0 23 11 30 26c2 3 4 7 10 7h40c4 0 6 -1 4 -6c-16 -42 -47 -80 -99 -75z" />
    <glyph glyph-name="Utilde" unicode="&#x168;" horiz-adv-x="400" 
d="M382 166c-24 -123 -100 -170 -183 -170s-141 47 -117 170l100 514c3 15 9 20 24 20h28c15 0 19 -5 16 -20l-97 -497c-17 -90 3 -123 58 -123s89 33 106 123l97 497c3 15 9 20 24 20h28c15 0 19 -5 16 -20zM380 731c-30 3 -55 33 -75 33c-16 0 -24 -11 -31 -26
c-2 -3 -3 -7 -9 -7h-40c-4 0 -7 1 -5 6c16 42 47 80 101 76c29 -2 54 -33 74 -33c16 0 24 11 31 26c2 3 4 7 10 7h40c4 0 6 -1 4 -6c-16 -42 -47 -81 -100 -76z" />
    <glyph glyph-name="atilde" unicode="&#xe3;" horiz-adv-x="360" 
d="M260 32c-27 -22 -63 -36 -95 -36c-72 0 -116 44 -98 133l6 31c29 150 199 110 235 193c20 47 2 87 -43 87c-30 0 -68 -24 -78 -75c-3 -18 -8 -20 -21 -20h-28c-15 0 -18 5 -17 20c9 71 77 139 156 139c55 0 123 -40 103 -140l-55 -285c-5 -26 -4 -45 -4 -59
c0 -15 -8 -20 -23 -20h-22c-15 0 -18 4 -16 32zM195 60c35 3 62 19 73 77l25 128c-76 -30 -139 -34 -155 -117l-2 -11c-10 -52 8 -81 59 -77zM323 545c-30 3 -55 33 -75 33c-16 0 -24 -11 -31 -26c-2 -3 -3 -7 -9 -7h-40c-4 0 -7 1 -5 6c16 42 47 80 101 76
c29 -2 54 -33 74 -33c16 0 24 11 31 26c2 3 4 7 10 7h40c4 0 6 -1 4 -6c-16 -42 -47 -81 -100 -76z" />
    <glyph glyph-name="ntilde" unicode="&#xf1;" horiz-adv-x="381" 
d="M330 347c13 66 -15 93 -52 93c-35 0 -75 -26 -88 -94l-64 -326c-3 -15 -8 -20 -23 -20h-28c-15 0 -20 5 -17 20l90 460c3 15 9 20 24 20h28c15 0 19 -5 16 -20l-4 -19c28 31 60 42 88 43c72 2 120 -43 94 -176l-60 -308c-3 -15 -8 -20 -23 -20h-28c-15 0 -20 5 -17 20z
M338 545c-29 3 -53 31 -72 31c-16 0 -23 -10 -30 -25c-2 -2 -3 -6 -9 -6h-38c-4 0 -7 1 -5 6c15 40 45 76 97 72c28 -1 53 -31 72 -31c15 0 23 10 30 25c2 3 4 6 9 6h39c4 0 6 0 4 -5c-15 -41 -45 -78 -97 -73z" />
    <glyph glyph-name="otilde" unicode="&#xf5;" horiz-adv-x="358" 
d="M178 -4c-71 0 -126 43 -100 176l30 156c26 133 97 176 168 176s126 -43 100 -176l-30 -156c-26 -133 -97 -176 -168 -176zM312 347c13 66 -11 93 -48 93s-71 -27 -84 -93l-38 -194c-13 -66 11 -93 48 -93s71 27 84 93zM323 545c-29 3 -53 31 -72 31
c-16 0 -23 -10 -30 -25c-2 -2 -3 -6 -9 -6h-38c-4 0 -7 1 -5 6c15 40 45 76 97 72c28 -1 53 -31 72 -31c15 0 23 10 30 25c2 3 4 6 9 6h39c4 0 6 0 4 -5c-15 -41 -45 -78 -97 -73z" />
    <glyph glyph-name="utilde" unicode="&#x169;" horiz-adv-x="381" 
d="M177 -4c-72 -2 -120 43 -94 176l60 308c3 15 9 20 24 20h28c15 0 19 -5 16 -20l-64 -327c-13 -66 15 -93 52 -93c35 0 75 26 88 94l64 326c3 15 9 20 24 20h28c15 0 19 -5 16 -20l-90 -460c-3 -15 -8 -20 -23 -20h-28c-15 0 -20 5 -17 20l4 19c-28 -31 -60 -42 -88 -43z
M334 545c-29 3 -53 31 -72 31c-16 0 -23 -10 -30 -25c-2 -2 -3 -6 -9 -6h-38c-4 0 -7 1 -5 6c15 40 45 76 97 72c28 -1 53 -31 72 -31c15 0 23 10 30 25c2 3 4 6 9 6h39c4 0 6 0 4 -5c-15 -41 -45 -78 -97 -73z" />
    <glyph glyph-name="uogonek" unicode="&#x173;" horiz-adv-x="381" 
d="M177 -4c-72 -2 -120 43 -94 176l60 308c3 15 9 20 24 20h28c15 0 19 -5 16 -20l-64 -327c-13 -66 15 -93 52 -93c35 0 75 26 88 94l64 326c3 15 9 20 24 20h28c15 0 19 -5 16 -20l-90 -460c-3 -14 -7 -19 -20 -20c-30 -31 -47 -69 3 -79c6 -1 9 -5 5 -14
c-5 -15 -9 -24 -15 -36c-3 -8 -7 -9 -14 -8c-63 11 -83 63 -41 119c3 5 10 14 17 21c-4 3 -5 8 -3 17l4 19c-28 -31 -60 -42 -88 -43z" />
    <glyph glyph-name="Uogonek" unicode="&#x172;" horiz-adv-x="400" 
d="M382 166c-22 -114 -89 -162 -164 -169c-28 -31 -43 -67 6 -76c6 -1 9 -5 5 -14c-5 -15 -9 -24 -15 -36c-3 -8 -7 -9 -14 -8c-63 11 -83 63 -41 119c2 4 7 10 12 16c-68 10 -111 59 -89 168l100 514c3 15 9 20 24 20h28c15 0 19 -5 16 -20l-97 -497
c-17 -90 3 -123 58 -123s89 33 106 123l97 497c3 15 9 20 24 20h28c15 0 19 -5 16 -20z" />
    <glyph glyph-name="cedilla" unicode="&#xb8;" horiz-adv-x="229" 
d="M40 -120l-30 8c-10 3 -10 6 -8 14l61 120l53 -9l-33 -67c71 23 110 -30 99 -84c-18 -80 -105 -123 -163 -90c-4 2 -3 7 0 12l19 36c4 8 10 6 13 5c10 -3 17 -4 23 -4c23 0 43 19 48 41c4 20 -10 39 -33 39c-13 0 -25 -6 -35 -16c-5 -5 -6 -7 -14 -5z" />
    <glyph glyph-name="Ccedilla" unicode="&#xc7;" horiz-adv-x="386" 
d="M132 -120l-30 8c-10 3 -10 6 -8 14l51 100c-55 17 -87 67 -68 164l71 368c24 123 100 170 183 170c82 0 141 -45 118 -168c-3 -17 -10 -23 -25 -23h-28c-14 0 -19 4 -17 16c13 82 -8 111 -60 111c-55 0 -89 -33 -106 -123l-65 -334c-17 -90 3 -123 58 -123
c52 0 85 29 104 111c2 12 9 16 23 16h28c15 0 20 -6 15 -23c-25 -120 -97 -166 -177 -168l-24 -50c71 23 110 -30 99 -84c-18 -80 -105 -123 -163 -90c-4 2 -3 7 0 12l19 36c4 8 10 6 13 5c10 -3 17 -4 23 -4c23 0 43 19 48 41c4 20 -10 39 -33 39c-13 0 -25 -6 -35 -16
c-5 -5 -6 -7 -14 -5z" />
    <glyph glyph-name="Scedilla" unicode="&#x15e;" 
d="M145 -120l-30 8c-10 3 -10 6 -8 14l49 97c-69 13 -111 73 -102 146c1 14 4 27 22 27h31c13 0 19 -5 15 -23c-5 -45 21 -89 75 -89c68 0 112 61 116 113c11 133 -189 208 -166 373c12 88 86 158 173 158c68 0 126 -52 113 -141c-3 -12 -10 -14 -24 -14h-22
c-13 0 -18 2 -17 14c4 44 -18 77 -62 77c-45 0 -92 -37 -97 -100c-8 -122 181 -199 168 -363c-7 -82 -76 -164 -165 -178l-26 -53c71 23 110 -30 99 -84c-18 -80 -105 -123 -163 -90c-4 2 -3 7 0 12l19 36c4 8 10 6 13 5c10 -3 17 -4 23 -4c23 0 43 19 48 41
c4 20 -10 39 -33 39c-13 0 -25 -6 -35 -16c-5 -5 -6 -7 -14 -5z" />
    <glyph glyph-name="scedilla" unicode="&#x15f;" horiz-adv-x="316" 
d="M112 -120l-30 8c-10 3 -10 6 -8 14l49 98c-54 13 -84 64 -74 124c3 18 8 20 21 20h28c14 0 19 -5 17 -20c-4 -35 16 -64 53 -64c38 0 74 29 82 69c19 96 -159 131 -134 258c13 67 76 117 138 117c59 0 106 -41 96 -114c-3 -17 -9 -20 -24 -20h-23c-10 0 -15 1 -14 17
c3 33 -19 53 -45 53c-28 0 -58 -23 -65 -55c-17 -90 167 -123 134 -262c-15 -66 -72 -115 -133 -125l-25 -52c71 23 110 -30 99 -84c-18 -80 -105 -123 -163 -90c-4 2 -3 7 0 12l19 36c4 8 10 6 13 5c10 -3 17 -4 23 -4c23 0 43 19 48 41c4 20 -10 39 -33 39
c-13 0 -25 -6 -35 -16c-5 -5 -6 -7 -14 -5z" />
    <glyph glyph-name="quotedbl" unicode="&#x22;" horiz-adv-x="227" 
d="M186 742h43c11 0 16 -7 12 -21l-50 -142c-4 -10 -12 -14 -18 -14c-7 0 -13 4 -13 14l6 142c0 14 9 21 20 21zM286 742h43c11 0 16 -7 12 -21l-50 -142c-4 -10 -12 -14 -18 -14c-7 0 -13 4 -13 14l6 142c0 14 9 21 20 21z" />
    <glyph glyph-name="numbersign" unicode="#" horiz-adv-x="617" 
d="M175 427c-15 0 -20 5 -17 20l6 28c3 15 9 20 24 20h115l59 185c5 15 11 20 26 20h28c15 0 19 -5 14 -20l-59 -185h108l59 185c5 15 11 20 26 20h28c15 0 19 -5 14 -20l-59 -185h101c15 0 19 -5 16 -20l-6 -28c-3 -15 -8 -20 -23 -20h-109l-37 -116h96c15 0 19 -5 16 -20
l-5 -28c-3 -15 -9 -20 -24 -20h-105l-71 -223c-5 -15 -11 -20 -26 -20h-28c-15 0 -19 5 -14 20l71 223h-108l-71 -223c-5 -15 -11 -20 -26 -20h-28c-15 0 -19 5 -14 20l71 223h-111c-15 0 -19 5 -16 20l5 28c3 15 9 20 24 20h120l37 116h-107zM350 427l-37 -116h108l37 116
h-108z" />
    <glyph glyph-name="slash" unicode="/" horiz-adv-x="221" 
d="M39 20l209 658c5 15 13 22 28 22h26c15 0 18 -8 15 -20l-209 -658c-5 -15 -12 -22 -27 -22h-26c-15 0 -19 8 -16 20z" />
    <glyph glyph-name="percent" unicode="%" horiz-adv-x="463" 
d="M221 535c-46 0 -75 37 -66 83c9 47 53 84 99 84c47 0 77 -37 68 -84c-9 -46 -54 -83 -101 -83zM202 618c-4 -20 9 -36 29 -36c21 0 40 16 44 36c4 21 -9 37 -30 37c-20 0 -39 -16 -43 -37zM141 20l250 658c6 15 15 22 30 22h26c15 0 17 -8 13 -20l-250 -658
c-6 -15 -13 -22 -28 -22h-26c-15 0 -19 8 -15 20zM344 -4c-47 0 -77 37 -68 83c9 47 53 84 100 84c46 0 76 -37 67 -84c-9 -46 -53 -83 -99 -83zM396 79c4 21 -9 37 -29 37c-21 0 -40 -16 -44 -37c-4 -20 9 -36 30 -36c20 0 39 16 43 36z" />
    <glyph glyph-name="quotesingle" unicode="'" horiz-adv-x="127" 
d="M186 742h43c11 0 16 -7 12 -21l-50 -142c-4 -10 -12 -14 -18 -14c-7 0 -13 4 -13 14l6 142c0 14 9 21 20 21z" />
    <glyph glyph-name="asterisk" unicode="*" horiz-adv-x="325" 
d="M346 629l-32 40l-11 -56c-3 -15 -9 -20 -24 -20h-2c-15 0 -19 5 -16 20l11 57l-49 -41c-13 -10 -20 -10 -28 0l-2 2c-8 10 -7 17 6 28l47 40h-56c-15 0 -19 5 -16 20l1 2c3 15 9 20 24 20h57l-33 40c-9 11 -7 18 6 29l1 1c13 11 20 11 29 0l32 -40l11 57c3 15 9 20 24 20
h2c15 0 19 -5 16 -20l-10 -56l46 39c13 11 20 11 29 0l1 -1c9 -11 7 -18 -6 -29l-47 -40h57c15 0 19 -5 16 -20l-1 -2c-3 -15 -9 -20 -24 -20h-56l33 -40c7 -11 6 -18 -6 -28l-2 -2c-12 -10 -19 -10 -28 0z" />
    <glyph glyph-name="plus" unicode="+" horiz-adv-x="350" 
d="M289 412c-2 -8 0 -10 8 -10h76c15 0 19 -5 16 -20l-6 -28c-3 -15 -9 -20 -24 -20h-76c-8 0 -10 -2 -12 -10l-16 -85c-3 -15 -9 -20 -24 -20h-28c-15 0 -19 5 -16 20l16 85c2 8 0 10 -8 10h-76c-15 0 -19 5 -16 20l6 28c3 15 9 20 24 20h76c8 0 10 2 12 10l16 87
c3 15 9 20 24 20h28c15 0 19 -5 16 -20z" />
    <glyph glyph-name="minus" unicode="&#x2212;" horiz-adv-x="350" 
d="M109 382c3 15 9 20 24 20h240c15 0 19 -5 16 -20l-6 -28c-3 -15 -9 -20 -24 -20h-240c-15 0 -19 5 -16 20z" />
    <glyph glyph-name="hyphen" unicode="-" horiz-adv-x="270" 
d="M70 289c2 15 6 20 17 20h171c11 0 14 -5 11 -20l-4 -28c-2 -15 -6 -20 -17 -20h-171c-11 0 -14 5 -12 20z" />
    <glyph glyph-name="equal" unicode="=" horiz-adv-x="370" 
d="M122 450c3 15 9 20 24 20h260c15 0 19 -5 16 -20l-5 -28c-3 -15 -9 -20 -24 -20h-260c-15 0 -19 5 -16 20zM96 314c2 15 8 20 23 20h260c15 0 19 -5 17 -20l-6 -28c-3 -15 -9 -20 -24 -20h-260c-15 0 -19 5 -16 20z" />
    <glyph glyph-name="question" unicode="?" horiz-adv-x="339" 
d="M178 192c31 147 121 209 161 350c23 84 -26 98 -46 98c-21 0 -67 -12 -83 -90c-3 -15 -8 -20 -23 -20h-28c-15 0 -19 5 -17 20c15 105 97 154 163 154c61 0 130 -46 103 -161c-34 -144 -140 -202 -172 -351l-7 -35c-3 -15 -10 -20 -24 -20h-18c-15 0 -19 5 -16 20z
M138 39c4 21 26 39 47 39c22 0 35 -18 31 -39c-4 -22 -24 -39 -46 -39c-21 0 -36 17 -32 39z" />
    <glyph glyph-name="parenleft" unicode="(" horiz-adv-x="218" 
d="M222 615l-104 -533c-9 -50 -15 -112 39 -110c15 0 19 -5 16 -20l-4 -24c-3 -15 -9 -20 -24 -20c-94 0 -117 56 -90 200l94 481c28 144 73 200 167 200c15 0 19 -5 16 -20l-5 -24c-3 -15 -9 -20 -24 -20c-53 2 -71 -60 -81 -110z" />
    <glyph glyph-name="parenright" unicode=")" horiz-adv-x="218" 
d="M130 82l104 533c10 50 16 112 -39 110c-15 0 -19 5 -16 20l5 24c3 15 9 20 24 20c94 0 117 -56 89 -200l-94 -481c-27 -144 -72 -200 -166 -200c-15 0 -19 5 -16 20l4 24c3 15 9 20 24 20c54 -2 72 60 81 110z" />
    <glyph glyph-name="braceleft" unicode="{" horiz-adv-x="291" 
d="M268 477c-11 -56 -27 -80 -53 -108c15 -28 22 -52 11 -107l-55 -287c-10 -50 -16 -112 38 -110c15 0 19 -5 16 -20l-4 -24c-3 -15 -9 -20 -24 -20c-94 0 -117 56 -89 200l48 248c7 44 18 87 -40 87c-12 1 -15 6 -12 20l5 26c3 15 9 20 24 20c54 2 60 45 70 87l29 149
c28 144 72 200 166 200c15 0 19 -5 17 -20l-5 -24c-3 -15 -9 -20 -24 -20c-54 2 -72 -60 -81 -110z" />
    <glyph glyph-name="braceright" unicode="}" horiz-adv-x="291" 
d="M207 477l37 187c9 50 15 112 -39 110c-15 0 -19 5 -16 20l5 24c2 15 8 20 23 20c94 0 118 -56 90 -200l-29 -149c-8 -42 -18 -85 36 -87c15 0 19 -5 16 -20l-5 -26c-3 -14 -8 -19 -20 -20c-58 0 -65 -43 -74 -87l-48 -248c-28 -144 -73 -200 -167 -200
c-15 0 -18 5 -16 20l4 24c3 15 9 20 24 20c54 -2 72 60 82 110l55 287c11 55 28 79 53 107c-14 28 -22 52 -11 108z" />
    <glyph glyph-name="bar" unicode="|" horiz-adv-x="138" 
d="M-1 -293c-10 0 -20 0 -17 20l194 1002c3 15 9 20 24 20h28c15 0 19 -5 16 -20l-195 -1002c-3 -20 -13 -20 -23 -20h-27z" />
    <glyph glyph-name="backslash" unicode="\" horiz-adv-x="221" 
d="M235 678l-47 -658c-1 -12 -7 -20 -22 -20h-26c-15 0 -20 7 -19 22l47 658c1 12 8 20 23 20h26c15 0 19 -7 18 -22z" />
    <glyph glyph-name="bracketleft" unicode="[" horiz-adv-x="222" 
d="M80 -115c-4 -20 -4 -20 16 -20h44c15 0 19 -5 16 -20l-4 -24c-3 -15 -9 -20 -24 -20h-112c-15 0 -18 5 -16 20l186 957c3 15 9 20 24 20h112c15 0 19 -5 16 -20l-5 -24c-3 -15 -9 -20 -24 -20h-44c-20 0 -20 0 -24 -20z" />
    <glyph glyph-name="bracketright" unicode="]" horiz-adv-x="222" 
d="M96 -115l161 829c4 20 4 20 -16 20h-44c-15 0 -19 5 -16 20l5 24c3 15 9 20 24 20h112c15 0 19 -5 16 -20l-186 -957c-3 -15 -9 -20 -24 -20h-112c-15 0 -18 5 -16 20l4 24c3 15 9 20 24 20h44c20 0 20 0 24 20z" />
    <glyph glyph-name="underscore" unicode="_" horiz-adv-x="469" 
d="M31 -20c3 15 9 20 24 20h359c15 0 19 -5 16 -20l-6 -28c-3 -15 -9 -20 -24 -20h-359c-15 0 -19 5 -16 20z" />
    <glyph glyph-name="asciicircum" unicode="^" horiz-adv-x="449" 
d="M396 687c74 -220 91 -265 93 -276c4 -11 1 -20 -10 -20h-42c-13 0 -16 4 -19 13l-65 196c-4 12 -16 12 -24 0l-142 -196c-7 -9 -10 -13 -23 -13h-42c-11 0 -12 9 -4 20l201 276c7 9 11 13 24 13h35c13 0 15 -4 18 -13z" />
    <glyph glyph-name="asciitilde" unicode="~" horiz-adv-x="517" 
d="M418 307c-67 0 -114 46 -180 52c-36 3 -67 -29 -83 -48c-7 -8 -10 -7 -17 -3l-31 23c-5 4 -8 7 -3 14c28 46 84 81 136 81c68 0 115 -46 180 -52c37 -3 68 29 84 48c6 8 10 7 16 3l32 -23c5 -4 7 -7 3 -14c-28 -46 -85 -81 -137 -81z" />
    <glyph glyph-name="at" unicode="@" horiz-adv-x="757" 
d="M100 285c62 317 263 405 412 405c150 0 316 -90 255 -406l-38 -193c-25 -129 -110 -164 -166 -164c-61 0 -109 40 -107 114c-29 -33 -65 -45 -93 -45c-71 0 -120 43 -94 176l30 156c26 133 91 176 162 176c28 0 56 -12 72 -43l4 19c3 15 9 20 24 20h28c15 0 19 -5 16 -20
l-75 -383c-16 -82 7 -106 46 -106c38 0 70 24 86 106l37 188c30 155 8 342 -200 342c-207 0 -301 -186 -331 -343l-11 -56c-31 -157 -9 -343 198 -343c13 0 17 -5 15 -17l-6 -29c-2 -12 -8 -17 -21 -17c-149 0 -316 88 -254 405zM473 153l38 193c13 68 -17 94 -52 94
c-37 0 -75 -27 -88 -93l-38 -194c-13 -66 15 -93 52 -93c35 0 75 27 88 93z" />
    <glyph glyph-name="multiply" unicode="&#xd7;" horiz-adv-x="375" 
d="M316 376c-6 -5 -7 -9 -3 -14l70 -88c9 -10 7 -17 -6 -28l-23 -20c-13 -10 -20 -10 -29 0l-69 88c-4 5 -9 5 -15 0l-106 -89c-13 -10 -20 -10 -28 0l-16 20c-9 11 -7 18 6 29l105 88c6 5 7 9 3 14l-70 88c-9 10 -8 17 5 28l24 20c12 10 19 10 28 0l70 -88c4 -5 9 -5 15 0
l105 89c13 10 20 10 28 0l16 -20c9 -11 8 -18 -5 -29z" />
    <glyph glyph-name="quotedblright" unicode="&#x201d;" horiz-adv-x="232" 
d="M153 661c4 20 25 39 47 39c39 0 59 -59 -35 -143c-4 -3 -6 -5 -11 -2l-8 7c-4 3 -4 6 0 10c56 61 -1 46 7 89zM255 661c4 20 25 39 47 39c39 0 59 -59 -35 -143c-4 -3 -6 -5 -11 -2l-8 7c-4 3 -4 6 0 10c56 61 -1 46 7 89z" />
    <glyph glyph-name="quotedblbase" unicode="&#x201e;" horiz-adv-x="232" 
d="M32 39c4 20 25 39 47 39c39 0 59 -59 -35 -143c-4 -3 -6 -5 -11 -2l-8 7c-4 3 -4 6 0 10c56 61 -1 46 7 89zM134 39c4 20 25 39 47 39c39 0 59 -59 -35 -143c-4 -3 -6 -5 -11 -2l-8 7c-4 3 -4 6 0 10c56 61 -1 46 7 89z" />
    <glyph glyph-name="quotedblleft" unicode="&#x201c;" horiz-adv-x="232" 
d="M325 608c-4 -20 -25 -39 -47 -39c-39 0 -59 59 35 143c3 3 6 5 10 2l9 -7c3 -3 4 -6 0 -10c-56 -61 1 -46 -7 -89zM223 608c-4 -20 -25 -39 -47 -39c-39 0 -59 59 35 143c3 3 6 5 10 2l9 -7c3 -3 4 -6 0 -10c-56 -61 1 -46 -7 -89z" />
    <glyph glyph-name="copyright" unicode="&#xa9;" horiz-adv-x="771" 
d="M103 350c37 194 226 351 419 351s319 -157 282 -351c-38 -194 -225 -350 -418 -350s-321 156 -283 350zM169 350c-31 -157 74 -285 233 -285c156 0 310 128 341 285c31 160 -73 289 -229 289c-159 0 -314 -129 -345 -289zM405 97c-71 0 -125 43 -99 176l30 156
c26 133 97 176 168 176c76 0 117 -62 104 -130c-4 -22 -9 -29 -26 -29h-38c-13 0 -17 2 -14 20c9 46 -9 70 -39 70c-37 0 -62 -27 -73 -88l-38 -194c-12 -61 2 -88 39 -88c30 0 58 27 66 70c4 18 9 20 22 20h38c17 0 19 -7 15 -29c-14 -68 -79 -130 -155 -130z" />
    <glyph glyph-name="parenleftsuperior" unicode="&#x207d;" horiz-adv-x="134" 
d="M195 673l-45 -230c-4 -21 -6 -48 17 -47c7 0 8 -2 7 -9l-2 -10c-1 -7 -4 -9 -10 -9c-41 0 -51 24 -39 87l41 207c12 62 31 87 72 87c6 0 8 -3 7 -9l-2 -10c-2 -7 -4 -9 -11 -9c-23 1 -30 -26 -35 -48z" />
    <glyph glyph-name="parenrightsuperior" unicode="&#x207e;" horiz-adv-x="134" 
d="M155 442l45 230c5 22 7 49 -17 48c-6 0 -8 2 -6 9l2 10c1 6 4 9 10 9c41 0 51 -25 39 -87l-41 -207c-12 -63 -31 -87 -72 -87c-6 0 -8 2 -7 9l2 10c1 7 4 9 10 9c24 -1 31 26 35 47z" />
    <glyph glyph-name="fraction" unicode="&#x2044;" horiz-adv-x="279" 
d="M79 220l274 657c7 18 12 22 23 22h28c13 0 14 -8 8 -20l-273 -657c-8 -18 -13 -22 -24 -22h-28c-13 0 -13 8 -8 20z" />
    <glyph glyph-name="endash" unicode="&#x2013;" horiz-adv-x="499" 
d="M91 289c3 15 9 20 24 20h389c15 0 19 -5 16 -20l-6 -28c-3 -15 -9 -20 -24 -20h-389c-15 0 -19 5 -16 20z" />
    <glyph glyph-name="emdash" unicode="&#x2014;" horiz-adv-x="609" 
d="M91 289c3 15 9 20 24 20h499c15 0 19 -5 16 -20l-6 -28c-3 -15 -9 -20 -24 -20h-499c-15 0 -19 5 -16 20z" />
    <glyph glyph-name="registered" unicode="&#xae;" horiz-adv-x="771" 
d="M103 350c37 194 226 351 419 351s319 -157 282 -351c-38 -194 -225 -350 -418 -350s-321 156 -283 350zM165 350c-31 -157 74 -285 233 -285c156 0 310 128 341 285c31 160 -73 289 -229 289c-159 0 -314 -129 -345 -289zM331 107c-11 0 -13 3 -11 13l90 462
c2 11 5 14 16 14h80c57 0 98 -33 81 -119l-7 -39c-10 -51 -35 -85 -63 -101v-219c0 -11 -7 -11 -15 -11h-36c-9 0 -14 0 -14 10l1 193c1 9 -1 9 -12 9h-5c-13 0 -13 0 -16 -14l-36 -185c-2 -10 -7 -13 -18 -13h-35zM463 526l-27 -136c-3 -15 -3 -15 10 -15c40 0 60 14 72 75
l3 16c12 62 -2 75 -42 75c-13 0 -13 0 -16 -15z" />
    <glyph glyph-name="hbar" unicode="&#x127;" horiz-adv-x="381" 
d="M160 541c1 8 0 10 -8 10c-15 0 -19 5 -17 20l5 22c3 15 9 20 24 20c8 0 10 2 12 10l11 57c3 15 9 20 24 20h28c15 0 19 -5 16 -20l-11 -57c-2 -8 0 -10 8 -10h122c15 0 19 -5 16 -20l-5 -22c-2 -15 -8 -20 -23 -20h-122c-8 0 -11 -2 -12 -10l-16 -80c28 31 60 42 88 43
c72 2 120 -43 94 -176l-60 -308c-3 -15 -8 -20 -23 -20h-28c-15 0 -20 5 -17 20l64 327c13 66 -15 93 -52 93c-35 0 -75 -26 -88 -94l-64 -326c-3 -15 -8 -20 -23 -20h-28c-15 0 -20 5 -17 20z" />
    <glyph glyph-name="ae" unicode="&#xe6;" horiz-adv-x="550" 
d="M375 -4c-43 0 -84 17 -96 59c-38 -42 -75 -59 -114 -59c-72 0 -116 44 -98 133l6 31c29 150 199 110 235 193c20 47 2 87 -43 87c-30 0 -68 -24 -78 -75c-3 -18 -8 -20 -21 -20h-28c-15 0 -18 5 -17 20c9 71 77 139 156 139c32 0 68 -14 89 -45c31 32 69 45 107 45
c76 0 121 -43 95 -176l-12 -62c-3 -15 -9 -20 -24 -20h-155c-15 0 -21 -5 -24 -20l-14 -73c-13 -66 11 -93 48 -93c30 0 68 24 78 75c3 15 9 20 22 20h28c17 0 18 -7 14 -29c-13 -68 -78 -130 -154 -130zM195 60c35 3 62 19 73 77l25 128c-76 -30 -139 -34 -155 -117l-2 -11
c-10 -52 8 -81 59 -77zM377 347l-3 -17c-4 -20 -4 -20 16 -20h89c20 0 20 0 24 20l3 17c13 66 -8 93 -45 93s-71 -27 -84 -93z" />
    <glyph glyph-name="oslash" unicode="&#xf8;" horiz-adv-x="358" 
d="M178 -4h-3l-10 -32c-5 -15 -13 -22 -28 -22h-26c-15 0 -18 8 -15 20l16 51c-34 23 -51 72 -34 159l30 156c26 133 97 176 168 176h4l11 32c5 15 12 22 27 22h26c15 0 18 -8 15 -20l-17 -52c33 -24 51 -72 34 -158l-30 -156c-26 -133 -97 -176 -168 -176zM312 347
c13 66 -11 93 -48 93s-71 -27 -84 -93l-38 -194c-13 -66 11 -93 48 -93s71 27 84 93z" />
    <glyph glyph-name="OE" unicode="&#x152;" horiz-adv-x="563" 
d="M297 0c-15 0 -19 4 -17 16c-27 -14 -56 -20 -86 -20c-83 0 -141 47 -117 170l71 368c24 123 100 170 183 170c30 0 57 -7 78 -21c4 13 10 17 24 17h201c15 0 19 -5 16 -20l-5 -24c-3 -15 -9 -20 -24 -20h-133c-20 0 -20 0 -24 -20l-38 -195c-4 -20 -4 -20 16 -20h133
c15 0 19 -5 17 -20l-5 -24c-3 -15 -9 -20 -24 -20h-133c-20 0 -20 0 -24 -20l-45 -233c-4 -20 -4 -20 16 -20h133c15 0 19 -5 16 -20l-5 -24c-3 -15 -8 -20 -23 -20h-201zM377 517c17 90 -3 123 -58 123s-89 -33 -106 -123l-65 -334c-17 -90 3 -123 58 -123
c52 0 85 30 104 110z" />
    <glyph glyph-name="AE" unicode="&#xc6;" horiz-adv-x="491" 
d="M225 0c-15 0 -20 5 -17 20l13 64c4 20 4 20 -16 20h-45c-20 0 -19 0 -27 -20l-26 -69c-5 -15 -11 -15 -24 -15h-30c-10 0 -20 0 -14 17l254 665c6 15 10 18 26 18h243c15 0 19 -5 16 -20l-5 -24c-3 -15 -9 -20 -24 -20h-133c-20 0 -20 0 -24 -20l-38 -195
c-4 -20 -4 -20 16 -20h133c15 0 19 -5 17 -20l-5 -24c-3 -15 -9 -20 -24 -20h-133c-20 0 -20 0 -24 -20l-45 -233c-4 -20 -4 -20 16 -20h133c15 0 19 -5 16 -20l-5 -24c-3 -15 -8 -20 -23 -20h-201zM302 543l-130 -355c-7 -20 -7 -20 13 -20h32c20 0 20 0 24 20l69 355
c0 5 -6 5 -8 0z" />
    <glyph glyph-name="Oslash" unicode="&#xd8;" horiz-adv-x="390" 
d="M377 166c-24 -123 -100 -170 -183 -170h-1l-17 -52c-5 -15 -12 -20 -27 -20h-27c-15 0 -18 5 -13 20l21 64c-46 21 -70 70 -53 158l71 368c24 123 100 170 183 170l17 52c5 15 12 20 27 20h28c15 0 18 -5 13 -20l-22 -64c46 -21 71 -70 54 -158zM377 517
c17 90 -3 123 -58 123s-89 -33 -106 -123l-65 -334c-17 -90 3 -123 58 -123s89 33 106 123z" />
    <glyph glyph-name="approxequal" unicode="&#x2248;" horiz-adv-x="517" 
d="M432 384c-67 0 -114 46 -180 52c-36 3 -67 -29 -83 -48c-7 -8 -10 -7 -17 -3l-31 23c-5 4 -8 7 -3 14c28 46 84 81 136 81c68 0 115 -46 180 -52c37 -3 68 29 84 48c6 8 10 7 16 3l32 -23c5 -4 7 -7 3 -14c-28 -46 -85 -81 -137 -81zM403 227c-67 0 -114 46 -180 52
c-36 3 -67 -29 -83 -48c-7 -8 -10 -7 -17 -3l-31 23c-5 4 -8 7 -3 14c28 46 84 81 136 81c68 0 115 -46 180 -52c37 -3 68 29 84 48c6 8 10 7 16 3l32 -23c5 -4 7 -7 3 -14c-28 -46 -85 -81 -137 -81z" />
    <glyph glyph-name="quoteright" unicode="&#x2019;" horiz-adv-x="130" 
d="M153 661c4 20 25 39 47 39c39 0 59 -59 -35 -143c-4 -3 -6 -5 -11 -2l-8 7c-4 3 -4 6 0 10c56 61 -1 46 7 89z" />
    <glyph glyph-name="quoteleft" unicode="&#x2018;" horiz-adv-x="130" 
d="M223 608c-4 -20 -25 -39 -47 -39c-39 0 -59 59 35 143c3 3 6 5 10 2l9 -7c3 -3 4 -6 0 -10c-56 -61 1 -46 -7 -89z" />
    <glyph glyph-name="oe" unicode="&#x153;" horiz-adv-x="558" 
d="M178 -4c-71 0 -126 43 -100 176l30 156c26 133 97 176 168 176c39 0 73 -13 92 -46c31 33 70 46 108 46c71 0 126 -43 100 -176l-12 -62c-3 -15 -9 -20 -24 -20h-160c-14 0 -19 0 -21 -9l-17 -84c-13 -66 11 -93 48 -93c44 0 71 38 80 75c4 18 9 20 22 20h29
c17 0 20 -7 13 -29c-33 -101 -98 -130 -156 -130c-38 0 -73 13 -91 46c-32 -33 -70 -46 -109 -46zM312 347c13 66 -11 93 -48 93s-71 -27 -84 -93l-38 -194c-13 -66 11 -93 48 -93s71 27 84 93zM464 440c-37 0 -71 -27 -84 -93l-3 -17c-4 -20 -4 -20 16 -20h92
c20 0 20 0 24 20l3 17c13 66 -11 93 -48 93z" />
    <glyph glyph-name="divide" unicode="&#xf7;" horiz-adv-x="350" 
d="M235 519c4 21 25 39 46 39c22 0 36 -18 32 -39c-4 -22 -25 -39 -47 -39c-21 0 -35 17 -31 39zM176 217c4 21 26 39 47 39c22 0 35 -18 31 -39c-4 -22 -24 -39 -46 -39c-21 0 -36 17 -32 39zM109 382c3 15 9 20 24 20h240c15 0 19 -5 16 -20l-6 -28c-3 -15 -9 -20 -24 -20
h-240c-15 0 -19 5 -16 20z" />
    <glyph glyph-name="onedotenleader" unicode="&#x2024;" horiz-adv-x="128" 
d="M42 39c4 21 26 39 47 39c22 0 35 -18 31 -39c-4 -22 -24 -39 -46 -39c-21 0 -36 17 -32 39z" />
    <glyph glyph-name="Hbar" unicode="&#x126;" horiz-adv-x="410" 
d="M75 0c-15 0 -20 5 -17 20l98 503c2 7 -1 10 -8 10c-15 0 -19 5 -16 20l5 24c3 15 9 20 24 20c7 0 10 3 11 10l15 73c3 15 9 20 24 20h28c15 0 19 -5 16 -20l-15 -73c-1 -7 2 -10 9 -10h144c7 0 10 3 11 10l15 73c3 15 9 20 24 20h28c15 0 19 -5 16 -20l-15 -73
c-1 -7 2 -10 9 -10c15 0 19 -5 16 -20l-5 -24c-3 -15 -9 -20 -24 -20c-7 0 -10 -3 -12 -10l-98 -503c-3 -15 -8 -20 -23 -20h-28c-15 0 -20 5 -17 20l58 297c4 20 4 20 -16 20h-124c-20 0 -20 0 -24 -20l-58 -297c-3 -15 -8 -20 -23 -20h-28zM344 401c20 0 20 0 24 20
l20 102c2 7 -1 10 -8 10h-144c-7 0 -10 -3 -12 -10l-20 -102c-4 -20 -4 -20 16 -20h124z" />
    <glyph glyph-name="Ldot" unicode="&#x13f;" horiz-adv-x="326" 
d="M292 472c4 21 26 39 47 39c22 0 35 -18 31 -39c-4 -22 -24 -39 -46 -39c-21 0 -36 17 -32 39zM75 0c-15 0 -20 5 -17 20l129 660c3 15 9 20 24 20h28c15 0 19 -5 16 -20c-8 -39 -34 -171 -116 -596c-4 -20 -4 -20 16 -20h143c15 0 19 -5 16 -20l-5 -24
c-3 -15 -8 -20 -23 -20h-211z" />
    <glyph glyph-name="section" unicode="&#xa7;" horiz-adv-x="336" 
d="M126 387c8 40 34 75 68 96c-22 28 -38 60 -29 104c13 67 76 117 138 117c59 0 106 -41 96 -114c-3 -17 -9 -20 -24 -20h-23c-10 0 -16 1 -14 17c3 33 -19 53 -45 53c-28 0 -59 -23 -65 -55c-17 -90 167 -123 134 -262c-8 -38 -32 -71 -61 -93c21 -29 33 -62 22 -107
c-17 -74 -87 -127 -157 -127c-75 0 -118 57 -107 128c3 18 8 20 21 20h28c14 0 19 -5 17 -20c-4 -35 16 -64 53 -64c38 0 74 29 82 69c19 96 -159 131 -134 258zM189 385c-8 -45 33 -75 73 -112c18 12 32 32 36 56c10 44 -23 75 -59 109c-23 -7 -45 -27 -50 -53z" />
    <glyph glyph-name="ampersand" unicode="&#x26;" horiz-adv-x="403" 
d="M348 151c-14 -70 -54 -155 -165 -155c-81 0 -131 43 -105 176l16 82c13 65 36 94 59 113c1 1 2 2 2 3c1 1 0 2 -1 3c-15 19 -28 48 -15 113l8 42c26 133 92 176 173 176s114 -45 111 -121c-2 -32 -6 -37 -23 -37h-31c-13 0 -16 2 -14 20c4 42 -16 74 -55 74
c-37 0 -76 -27 -89 -93l-13 -64c-15 -80 29 -80 44 -80s19 -5 16 -20l-5 -26c-3 -14 -9 -21 -24 -20c-19 0 -59 0 -75 -80l-20 -104c-13 -66 16 -93 53 -93c42 0 76 37 86 85l28 147c3 15 9 20 24 20h90c15 0 19 -5 16 -20l-3 -18c-3 -15 -9 -20 -24 -20h-34
c-7 0 -11 -3 -12 -11z" />
    <glyph glyph-name="paragraph" unicode="&#xb6;" horiz-adv-x="620" 
d="M390 -292c-15 0 -19 5 -16 20l172 888c3 15 -1 20 -16 20h-32c-15 0 -21 -5 -24 -20l-172 -888c-3 -15 -9 -20 -24 -20h-28c-15 0 -19 5 -16 20l101 519c6 33 6 33 -27 33h-11c-113 0 -190 92 -167 210c22 114 126 210 235 210h336c15 0 19 -5 16 -20l-5 -24
c-3 -15 -9 -20 -24 -20h-50c-15 0 -21 -5 -24 -20l-172 -888c-3 -15 -9 -20 -24 -20h-28z" />
    <glyph glyph-name="dcaron" unicode="&#x10f;" horiz-adv-x="501" 
d="M282 153l38 193c13 68 -17 94 -52 94c-37 0 -75 -27 -88 -93l-38 -194c-13 -66 15 -93 52 -93c35 0 75 27 88 93zM453 680l-129 -660c-3 -15 -8 -20 -23 -20h-28c-15 0 -20 5 -17 20l4 18c-28 -30 -60 -41 -88 -42c-72 -2 -120 43 -94 176l30 156c26 133 92 178 162 176
c28 -1 56 -12 72 -43l43 219c3 15 9 20 24 20h28c15 0 19 -5 16 -20zM528 711c4 20 25 39 47 39c39 0 59 -59 -35 -143c-4 -3 -6 -5 -11 -2l-8 7c-4 3 -4 6 0 10c56 61 -1 46 7 89z" />
    <glyph glyph-name="lcaron" unicode="&#x13e;" horiz-adv-x="264" 
d="M166 64c15 -1 19 -5 16 -20l-5 -24c-3 -15 -8 -20 -23 -20c-104 0 -87 91 -66 199l94 481c3 15 9 20 24 20h28c15 0 19 -5 16 -20l-100 -512c-12 -61 -20 -102 16 -104zM296 712c4 20 25 39 47 39c39 0 59 -59 -35 -143c-4 -3 -6 -5 -11 -2l-8 7c-4 3 -4 6 0 10
c56 61 -1 46 7 89z" />
    <glyph glyph-name="quotesinglbase" unicode="&#x201a;" horiz-adv-x="130" 
d="M32 39c4 20 25 39 47 39c39 0 59 -59 -35 -143c-4 -3 -6 -5 -11 -2l-8 7c-4 3 -4 6 0 10c56 61 -1 46 7 89z" />
    <glyph glyph-name="O" unicode="O" horiz-adv-x="390" 
d="M377 166c-24 -123 -100 -170 -183 -170s-141 47 -117 170l71 368c24 123 100 170 183 170s141 -47 117 -170zM377 517c17 90 -3 123 -58 123s-89 -33 -106 -123l-65 -334c-17 -90 3 -123 58 -123s89 33 106 123z" />
    <glyph glyph-name="ordfeminine" unicode="&#xaa;" horiz-adv-x="227" 
d="M238 434c-15 -12 -35 -20 -54 -20c-40 0 -65 25 -55 75l3 18c17 84 113 62 134 109c11 26 1 49 -25 49c-17 0 -38 -14 -44 -42c-2 -11 -5 -12 -12 -12h-16c-8 0 -10 3 -9 12c5 40 43 78 88 78c31 0 70 -22 58 -79l-31 -161c-3 -15 -2 -26 -2 -34s-5 -11 -13 -11h-13
c-8 0 -10 2 -9 18zM201 450c20 2 36 11 42 44l14 72c-43 -17 -79 -19 -88 -66l-1 -6c-6 -30 5 -46 33 -44z" />
    <glyph glyph-name="ordmasculine" unicode="&#xba;" horiz-adv-x="222" 
d="M190 414c-40 0 -71 24 -57 100l17 88c15 76 56 100 96 100s72 -24 57 -100l-17 -88c-15 -76 -55 -100 -96 -100zM267 613c7 38 -7 53 -28 53s-40 -15 -48 -53l-21 -110c-8 -38 6 -53 27 -53s40 15 48 53z" />
    <glyph glyph-name="germandbls" unicode="&#xdf;" horiz-adv-x="387" 
d="M99 -95c-3 -15 -9 -20 -24 -20h-28c-15 0 -19 5 -16 20l112 577c33 170 101 222 177 222c70 0 126 -50 100 -159c-19 -83 -99 -141 -109 -195c-15 -74 95 -96 75 -200c-11 -54 -60 -116 -151 -153c-19 -8 -21 1 -23 11l-5 26c-2 11 0 20 20 28c50 21 87 47 96 88
c15 70 -100 91 -78 200c16 86 89 111 110 194c5 18 18 96 -44 96c-66 0 -90 -105 -115 -237z" />
    <glyph glyph-name="bullet" unicode="&#x2022;" horiz-adv-x="245" 
d="M176 279c-47 0 -79 40 -70 88c9 47 57 87 104 87c48 0 80 -40 71 -87c-9 -48 -57 -88 -105 -88z" />
    <glyph glyph-name="periodcentered" unicode="&#xb7;" horiz-adv-x="148" 
d="M106 368c4 21 26 39 47 39c22 0 35 -18 31 -39c-4 -22 -25 -39 -47 -39c-21 0 -35 17 -31 39z" />
    <glyph glyph-name="degree" unicode="&#xb0;" horiz-adv-x="237" 
d="M223 537c-47 0 -77 37 -68 83c9 47 53 84 100 84c46 0 76 -37 67 -84c-9 -46 -53 -83 -99 -83zM275 620c4 21 -9 37 -29 37c-21 0 -40 -16 -44 -37c-4 -20 9 -36 30 -36c20 0 39 16 43 36z" />
    <glyph glyph-name="less" unicode="&#x3c;" horiz-adv-x="268" 
d="M183 362l92 -86c7 -6 9 -11 7 -20l-10 -51c-1 -9 -10 -12 -17 -6l-149 138c-4 4 -4 10 -3 16l6 32c2 6 4 12 9 16l203 138c9 6 17 3 15 -6l-10 -51c-2 -9 -6 -14 -15 -20l-125 -86c-7 -4 -8 -9 -3 -14z" />
    <glyph glyph-name="greater" unicode="&#x3e;" horiz-adv-x="268" 
d="M99 276l275 -68c7 5 8 10 3 14l-93 86c-7 6 -9 11 -7 20l10 51c2 9 10 12 17 22c5 -4 5 -10 3 -16l-6 -32l-1 -6c-2 -6 -8 -10 -211 -148c-9 -6 -16 -3 -15 6l10 51c2 9 6 14 15 20z" />
    <glyph glyph-name="adieresis" unicode="&#xe4;" horiz-adv-x="360" 
d="M260 32c-27 -22 -63 -36 -95 -36c-72 0 -116 44 -98 133l6 31c29 150 199 110 235 193c20 47 2 87 -43 87c-30 0 -68 -24 -78 -75c-3 -18 -8 -20 -21 -20h-28c-15 0 -18 5 -17 20c9 71 77 139 156 139c55 0 123 -40 103 -140l-55 -285c-5 -26 -4 -45 -4 -59
c0 -15 -8 -20 -23 -20h-22c-15 0 -18 4 -16 32zM195 60c35 3 62 19 73 77l25 128c-76 -30 -139 -34 -155 -117l-2 -11c-10 -52 8 -81 59 -77zM195 584c4 21 25 39 47 39c21 0 35 -18 31 -39c-4 -22 -25 -39 -46 -39c-22 0 -36 17 -32 39zM306 584c4 21 26 39 47 39
c22 0 35 -18 31 -39c-4 -22 -24 -39 -46 -39c-21 0 -36 17 -32 39z" />
    <glyph glyph-name="edieresis" unicode="&#xeb;" horiz-adv-x="358" 
d="M157 227l-15 -74c-13 -66 11 -93 48 -93c35 0 66 25 80 75c4 18 9 20 22 20h27c17 0 20 -7 14 -29c-19 -67 -69 -130 -155 -130c-71 0 -126 43 -100 176l30 156c26 133 97 176 168 176s126 -43 100 -176l-12 -62c-3 -15 -9 -20 -24 -20h-160c-20 0 -20 0 -23 -19z
M264 440c-37 0 -71 -27 -84 -93l-3 -17c-4 -20 -4 -20 16 -20h92c20 0 20 0 24 20l3 17c13 66 -11 93 -48 93zM199 584c4 21 25 39 47 39c21 0 35 -18 31 -39c-4 -22 -25 -39 -46 -39c-22 0 -36 17 -32 39zM310 584c4 21 26 39 47 39c22 0 35 -18 31 -39
c-4 -22 -24 -39 -46 -39c-21 0 -36 17 -32 39z" />
    <glyph glyph-name="odieresis" unicode="&#xf6;" horiz-adv-x="358" 
d="M178 -4c-71 0 -126 43 -100 176l30 156c26 133 97 176 168 176s126 -43 100 -176l-30 -156c-26 -133 -97 -176 -168 -176zM312 347c13 66 -11 93 -48 93s-71 -27 -84 -93l-38 -194c-13 -66 11 -93 48 -93s71 27 84 93zM197 584c4 21 25 39 47 39c21 0 35 -18 31 -39
c-4 -22 -25 -39 -46 -39c-22 0 -36 17 -32 39zM308 584c4 21 26 39 47 39c22 0 35 -18 31 -39c-4 -22 -24 -39 -46 -39c-21 0 -36 17 -32 39z" />
    <glyph glyph-name="ydieresis" unicode="&#xff;" horiz-adv-x="328" 
d="M117 483c0 14 4 17 21 17h28c13 0 19 0 19 -15v-354c0 -5 6 -5 8 0l138 354c6 15 12 15 25 15h28c17 0 19 -3 13 -17l-226 -555c-31 -76 -63 -105 -117 -108c-15 0 -20 4 -17 20l5 24c3 15 9 19 24 20c25 1 49 36 57 76s4 32 -6 523zM183 584c4 21 25 39 47 39
c21 0 35 -18 31 -39c-4 -22 -25 -39 -46 -39c-22 0 -36 17 -32 39zM294 584c4 21 26 39 47 39c22 0 35 -18 31 -39c-4 -22 -24 -39 -46 -39c-21 0 -36 17 -32 39z" />
    <glyph glyph-name="wdieresis" unicode="&#x1e85;" horiz-adv-x="544" 
d="M373 500c13 0 18 0 19 -15l20 -322c0 -5 6 -5 8 0l128 322c6 15 12 15 25 15h28c10 0 21 0 13 -17l-191 -465c-6 -15 -9 -18 -25 -18h-16c-16 0 -18 3 -19 18l-21 325c0 5 -6 5 -8 0l-147 -325c-8 -15 -9 -18 -25 -18h-16c-16 0 -19 3 -19 18l-11 465c0 17 11 17 21 17
h28c13 0 19 0 19 -15l2 -322c0 -5 6 -5 8 0l146 322c7 15 12 15 25 15h8zM289 584c4 21 25 39 47 39c21 0 35 -18 31 -39c-4 -22 -25 -39 -46 -39c-22 0 -36 17 -32 39zM400 584c4 21 26 39 47 39c22 0 35 -18 31 -39c-4 -22 -24 -39 -46 -39c-21 0 -36 17 -32 39z" />
    <glyph glyph-name="hungarumlaut" unicode="&#x2dd;" horiz-adv-x="251" 
d="M182 735c-7 0 -9 3 -8 10l19 98c4 17 10 21 25 21h38c15 0 19 -8 8 -27l-46 -85c-8 -15 -11 -17 -21 -17h-15zM297 735c-7 0 -9 3 -8 10l19 98c4 17 10 21 25 21h38c15 0 19 -8 8 -27l-46 -85c-8 -15 -11 -17 -21 -17h-15z" />
    <glyph glyph-name="ohungarumlaut" unicode="&#x151;" horiz-adv-x="358" 
d="M178 -4c-71 0 -126 43 -100 176l30 156c26 133 97 176 168 176s126 -43 100 -176l-30 -156c-26 -133 -97 -176 -168 -176zM312 347c13 66 -11 93 -48 93s-71 -27 -84 -93l-38 -194c-13 -66 11 -93 48 -93s71 27 84 93zM292 302c-7 0 -9 3 -8 10l19 98c4 17 10 21 25 21
h38c15 0 19 -8 8 -27l-46 -85c-8 -15 -11 -17 -21 -17h-15zM407 302c-7 0 -9 3 -8 10l19 98c4 17 10 21 25 21h38c15 0 19 -8 8 -27l-46 -85c-8 -15 -11 -17 -21 -17h-15z" />
    <glyph glyph-name="Ohungarumlaut" unicode="&#x150;" horiz-adv-x="390" 
d="M377 166c-24 -123 -100 -170 -183 -170s-141 47 -117 170l71 368c24 123 100 170 183 170s141 -47 117 -170zM377 517c17 90 -3 123 -58 123s-89 -33 -106 -123l-65 -334c-17 -90 3 -123 58 -123s89 33 106 123zM268 735c-7 0 -9 3 -8 10l19 98c4 17 10 21 25 21h38
c15 0 19 -8 8 -27l-46 -85c-8 -15 -11 -17 -21 -17h-15zM383 735z" />
    <glyph glyph-name="Uhungarumlaut" unicode="&#x170;" horiz-adv-x="400" 
d="M382 166c-24 -123 -100 -170 -183 -170s-141 47 -117 170l100 514c3 15 9 20 24 20h28c15 0 19 -5 16 -20l-97 -497c-17 -90 3 -123 58 -123s89 33 106 123l97 497c3 15 9 20 24 20h28c15 0 19 -5 16 -20zM277 735c-7 0 -9 3 -8 10l19 98c4 17 10 21 25 21h38
c15 0 19 -8 8 -27l-46 -85c-8 -15 -11 -17 -21 -17h-15zM392 735c-7 0 -9 3 -8 10l19 98c4 17 10 21 25 21h38c15 0 19 -8 8 -27l-46 -85c-8 -15 -11 -17 -21 -17h-15z" />
    <glyph glyph-name="uhungarumlaut" unicode="&#x171;" horiz-adv-x="381" 
d="M177 -4l-342 458v0l308 26c3 15 9 20 24 20h28c15 0 19 -5 16 -20l-64 -327c-13 -66 15 -93 52 -93c35 0 75 26 88 94l64 326c3 15 9 20 24 20h28c15 0 19 -5 16 -20l-90 -460c-3 -15 -8 -20 -23 -20h-28c-15 0 -20 5 -17 20l4 19c-28 -31 -60 -42 -88 -43zM-129 1007
c-7 0 -9 3 -8 10l19 98c4 17 10 21 25 21h38c15 0 19 -8 8 -27l-46 -85c-8 -15 -11 -17 -21 -17h-15zM-14 1007c-7 0 -9 3 -8 10l19 98c4 17 10 21 25 21h38c15 0 19 -8 8 -27l-46 -85c-8 -15 -11 -17 -21 -17h-15z" />
    <glyph glyph-name="exclam" unicode="!" horiz-adv-x="188" 
d="M114 157c-15 0 -19 5 -16 20l93 503c3 15 9 20 24 20h28c15 0 19 -5 16 -20l-103 -503c-3 -15 -9 -20 -24 -20h-18zM62 39c4 21 26 39 47 39c22 0 35 -18 31 -39c-4 -22 -24 -39 -46 -39c-21 0 -36 17 -32 39z" />
    <glyph glyph-name="questiondown" unicode="&#xbf;" horiz-adv-x="339" 
d="M257 307h-1c-31 -147 -121 -209 -161 -350c-23 -84 26 -98 46 -98c21 0 67 12 83 90c3 15 8 20 23 20h28c15 0 19 -5 17 -20c-15 -105 -97 -154 -163 -154c-61 0 -130 46 -103 161c35 144 141 202 173 351l7 35c3 15 10 20 24 20h18c15 0 19 -5 16 -20zM296 460l-31 18
c-4 -21 -26 -39 -47 -39v0v21c4 22 24 39 46 39c21 0 36 -17 32 -39z" />
    <glyph glyph-name="dcroat" unicode="&#x111;" 
d="M358 541l-76 41l76 -45c1 8 0 10 -8 10h-122c-15 0 -19 5 -17 20l5 22c3 15 9 20 24 20h122c8 0 10 2 12 10l11 57c3 15 9 20 24 20h28c15 0 19 -5 16 -20l-11 -57c-2 -8 0 -10 8 -10c15 0 19 -5 16 -20l-5 -22c-2 -15 -8 -20 -23 -20c-8 0 -11 -2 -12 -10l-102 -521
c-3 -15 -8 -20 -23 -20h-28c-15 0 -20 5 -17 20l4 18c-28 -30 -60 -41 -88 -42c-72 -2 -120 43 -94 176l30 156c26 133 92 182 162 180c28 -1 56 -12 72 -43zM-26 -292l192 995h404l-193 -995h-403zM4 -318l192 995h404l-193 -995h-403z" />
    <glyph glyph-name="dagger" unicode="&#x2020;" horiz-adv-x="338" 
d="M98 -292v-2c-15 0 -19 5 -16 20l141 729c2 7 -1 10 -8 10h-70c-15 0 -19 5 -16 20l4 22c3 15 9 20 24 20h70c7 0 11 3 12 10l28 142c3 15 9 20 24 20h28c15 0 19 -5 16 -20l-28 -142c-1 -7 1 -10 8 -10h70c15 0 19 -5 16 -20l-4 -22c-3 -15 -9 -20 -24 -20h-70
c-6 0 -10 -2 -11 -8l-142 -729c-3 -15 -9 -20 -24 -20h-28z" />
    <glyph glyph-name="Dcroat" unicode="&#x110;" horiz-adv-x="414" 
d="M402 170c-24 -123 -100 -170 -183 -170h-144c-15 0 -20 5 -17 20l79 406c2 8 0 10 -8 10c-15 0 -19 5 -16 20l5 24c3 15 9 20 24 20c8 0 10 2 12 10l33 170c3 15 9 20 24 20h144c83 0 140 -47 117 -170zM400 513c18 90 -3 123 -58 123h-76c-20 0 -20 0 -24 -20l-20 -106
c-2 -8 0 -10 8 -10h26c15 0 19 -5 16 -20l-5 -24c-3 -15 -9 -20 -24 -20h-26c-8 0 -10 -2 -12 -10l-66 -342c-4 -20 -4 -20 16 -20h76c55 0 88 33 106 123z" />
    <glyph glyph-name="hcircumflex" unicode="&#x125;" horiz-adv-x="381" 
d="M330 347l-18 -203c13 66 -15 93 -52 93c-35 0 -75 -26 -88 -94l-64 -326c-3 -15 -8 -20 -23 -20h-28c-15 0 -20 5 -17 20l129 660c3 15 9 20 24 20h28c15 0 19 -5 16 -20l3 15v0c32 11 60 12 132 14c48 -45 22 -178 -38 -486c-3 -15 -8 -20 -23 -20h-28
c-15 0 -20 5 -17 20zM245 543l-11 67c-1 5 -5 5 -8 0l-37 -67c-4 -6 -8 -11 -16 -11h-43c-13 0 -12 10 -5 18l84 104c6 7 9 7 16 7h28c7 0 10 0 14 -7l44 -104c3 -8 0 -18 -13 -18h-43c-8 0 -10 5 -10 11z" />
    <glyph glyph-name="udieresis" unicode="&#xfc;" horiz-adv-x="381" 
d="M177 -4l108 262c-72 -2 -120 43 -94 176l60 308c3 15 9 20 24 20h28c15 0 19 -5 16 -20l-64 -327c-13 -66 15 -93 52 -93c35 0 76 26 89 94l-45 64c3 15 9 20 24 20h28c15 0 19 -5 16 -20l-90 -460c-3 -15 -8 -20 -23 -20h-28c-15 0 -20 5 -17 20l4 19
c-28 -31 -60 -42 -88 -43zM308 846c4 21 25 39 47 39c21 0 35 -18 31 -39c-4 -22 -25 -39 -46 -39c-22 0 -36 17 -32 39zM419 846c4 21 26 39 47 39c22 0 35 -18 31 -39c-4 -22 -24 -39 -46 -39c-21 0 -36 17 -32 39z" />
    <glyph glyph-name="thorn" unicode="&#xfe;" 
d="M300 504c72 2 120 -43 94 -176l-30 -156c-26 -133 -92 -178 -162 -176c-28 1 -56 12 -72 43l-39 -199c-3 -15 -8 -20 -23 -20h-28c-15 0 -20 5 -17 20l164 840c3 16 9 20 24 20h28c15 0 19 -4 16 -20l-40 -206l-3 -12c28 30 60 41 88 42zM217 387v0z" />
    <glyph glyph-name="Gcommaaccent" unicode="&#x122;" horiz-adv-x="391" 
d="M436 317c4 20 4 20 -16 20h-40c-15 0 -19 5 -16 20l5 24c2 15 8 20 23 20h108c15 0 19 -5 17 -20l-42 -215c-24 -123 -100 -170 -183 -170s-141 47 -117 170l71 368c24 123 100 170 183 170c82 0 139 -46 118 -168c-3 -17 -10 -23 -25 -23h-28c-14 0 -18 4 -17 16
c13 81 -8 111 -60 111c-55 0 -89 -33 -106 -123l-65 -334c-17 -90 3 -123 58 -123s89 33 106 123zM242 -70c4 20 25 39 47 39c39 0 59 -59 -35 -143c-4 -3 -6 -5 -11 -2l-8 7c-4 3 -4 6 0 10c56 61 -1 46 7 89z" />
    <glyph glyph-name="IJ" unicode="&#x132;" horiz-adv-x="358" 
d="M126 20c-3 -15 -8 -20 -23 -20h-28c-15 0 -20 5 -17 20l129 660c3 15 9 20 24 20h28c15 0 19 -5 16 -20zM188 64c65 4 72 43 84 104l100 512c3 15 9 20 24 20h28c15 0 19 -5 16 -20l-94 -481c-19 -97 -38 -199 -170 -199c-15 0 -20 5 -17 20l5 24c3 15 9 19 24 20z" />
    <glyph glyph-name="Kcommaaccent" unicode="&#x136;" horiz-adv-x="389" 
d="M126 20l-20 -20c-3 -15 -8 -20 -23 -20h-28c-15 0 -20 5 -17 20l129 660c3 15 9 20 24 20h28c15 0 19 -5 16 -20l-61 -310c0 -4 4 -6 8 0l230 315c11 15 12 15 25 15h34c8 0 17 -3 4 -21l-172 -239c-8 -11 -8 -15 -7 -24c19 -111 59 -395 59 -395c15 0 5 -5 -3 -5h-29
c-13 0 -17 0 -20 19l-45 332c0 4 -4 4 -7 0l-79 -111c-5 -8 -7 -15 -8 -22zM135 -90c4 20 25 39 47 39c39 0 59 -59 -35 -143c-4 -3 -6 -5 -11 -2l-8 7c-4 3 -4 6 0 10c56 61 -1 46 7 89z" />
    <glyph glyph-name="Lcommaaccent" unicode="&#x13b;" horiz-adv-x="326" 
d="M75 0c-15 0 -20 5 -17 20l129 660c3 15 9 20 24 20h28c15 0 19 -5 16 -20c-8 -39 -34 -171 -116 -596c-4 -20 -4 -20 16 -20h143c15 0 19 -5 16 -20l-5 -24c-3 -15 -8 -20 -23 -20h-211zM130 -70c4 20 25 39 47 39c39 0 59 -59 -35 -143c-4 -3 -6 -5 -11 -2l-8 7
c-4 3 -4 6 0 10c56 61 -1 46 7 89z" />
    <glyph glyph-name="Rcommaaccent" unicode="&#x156;" horiz-adv-x="384" 
d="M75 0c-15 0 -20 5 -17 20l129 660c3 15 9 20 24 20h114c83 0 140 -47 117 -170l-11 -55c-15 -75 -49 -122 -92 -147l2 -311c0 -17 -10 -17 -20 -17h-29c-13 0 -19 0 -20 15l-1 275c0 15 -2 15 -16 15h-53c-20 0 -20 0 -24 -20l-52 -265c-3 -15 -8 -20 -23 -20h-28z
M242 616l-44 -227c-4 -20 -4 -20 16 -20h46c55 0 89 33 106 123l4 21c18 90 -3 123 -58 123h-46c-20 0 -20 0 -24 -20zM136 -70c4 20 25 39 47 39c39 0 59 -59 -35 -143c-4 -3 -6 -5 -11 -2l-8 7c-4 3 -4 6 0 10c56 61 -1 46 7 89z" />
    <glyph glyph-name="gcommaaccent" unicode="&#x123;" 
d="M38 -73l37 31c13 4 14 -1 16 -8c7 -40 36 -50 59 -50c37 0 82 27 94 93l13 65c-28 -31 -60 -42 -88 -43c-72 -2 -120 43 -94 176l30 156c26 133 92 178 162 176c28 -1 56 -12 72 -42l4 18c3 15 9 20 24 20h28c15 0 19 -5 16 -20l-95 -487c-26 -133 -107 -176 -178 -176
c-53 0 -103 23 -113 91v0h13zM279 173l38 193c13 66 -17 93 -52 93c-37 0 -75 -27 -88 -93l-38 -194c-13 -66 15 -93 52 -93c35 0 75 26 88 94zM327 603c-4 -20 -25 -39 -47 -39c-39 0 -59 59 35 143c3 3 6 5 10 2l9 -7c3 -3 4 -6 0 -10c-56 -61 1 -46 -7 -89z" />
    <glyph glyph-name="kcommaaccent" unicode="&#x137;" horiz-adv-x="339" 
d="M75 0c-15 0 -20 5 -17 20l129 660c3 15 9 20 24 20h28c15 0 19 -5 16 -20l-81 -416l156 216c11 15 16 20 31 20h34c11 0 17 -5 6 -20l-141 -195l65 -265c4 -14 -4 -20 -16 -20h-33c-15 0 -18 5 -22 20l-50 204l-53 -76l-25 -128c-3 -15 -8 -20 -23 -20h-28zM138 -70
c4 20 25 39 47 39c39 0 59 -59 -35 -143c-4 -3 -6 -5 -11 -2l-8 7c-4 3 -4 6 0 10c56 61 -1 46 7 89z" />
    <glyph glyph-name="napostrophe" unicode="&#x149;" horiz-adv-x="474" 
d="M423 347c13 66 -15 93 -52 93c-35 0 -75 -26 -88 -94l-64 -326c-3 -15 -8 -20 -23 -20h-28c-15 0 -20 5 -17 20l90 460c3 15 9 20 24 20h28c15 0 19 -5 16 -20l-4 -19c28 31 60 42 88 43c72 2 120 -43 94 -176l-60 -308c-3 -15 -8 -20 -23 -20h-28c-15 0 -20 5 -17 20z
M167 711c4 20 25 39 47 39c39 0 59 -59 -35 -143c-4 -3 -6 -5 -11 -2l-8 7c-4 3 -4 6 0 10c56 61 -1 46 7 89z" />
    <glyph glyph-name="ncommaaccent" unicode="&#x146;" horiz-adv-x="381" 
d="M330 347c13 66 -15 93 -52 93c-35 0 -75 -26 -88 -94l-64 -326c-3 -15 -8 -20 -23 -20h-28c-15 0 -20 5 -17 20l90 460c3 15 9 20 24 20h28c15 0 19 -5 16 -20l-4 -19c28 31 60 42 88 43c72 2 120 -43 94 -176l-60 -308c-3 -15 -8 -20 -23 -20h-28c-15 0 -20 5 -17 20z
M138 -70c4 20 25 39 47 39c39 0 59 -59 -35 -143c-4 -3 -6 -5 -11 -2l-8 7c-4 3 -4 6 0 10c56 61 -1 46 7 89z" />
    <glyph glyph-name="rcommaaccent" unicode="&#x157;" horiz-adv-x="237" 
d="M280 428c-7 2 -14 5 -23 5c-49 0 -60 -52 -70 -102l-61 -311c-3 -15 -8 -20 -23 -20h-28c-15 0 -20 5 -17 20l90 460c3 15 9 20 24 20h28c15 0 19 -5 16 -20l-3 -12c28 23 57 31 79 32h2c15 0 19 -5 16 -20l-6 -32c-3 -15 -10 -24 -24 -20zM31 -70c4 20 25 39 47 39
c39 0 59 -59 -35 -143c-4 -3 -6 -5 -11 -2l-8 7c-4 3 -4 6 0 10c56 61 -1 46 7 89z" />
    <glyph glyph-name="afii61352" unicode="&#x2116;" horiz-adv-x="598" 
d="M667 591l-13 -67c-15 -79 -52 -109 -103 -109c-52 0 -77 28 -62 109l13 67c16 80 53 109 105 109c51 0 76 -29 60 -109zM597 524l13 67c6 29 12 58 -13 58c-26 0 -32 -29 -38 -58l-13 -67c-5 -29 -11 -58 15 -58c25 0 31 29 36 58zM452 331c3 15 9 20 24 20h125
c15 0 19 -5 16 -20l-4 -18c-3 -15 -9 -20 -24 -20h-125c-15 0 -19 5 -16 20zM318 0h-20c-9 0 -16 2 -18 12l-70 446c-1 7 -8 5 -8 0l-86 -438c-3 -15 -8 -20 -23 -20h-28c-15 0 -20 5 -17 20l129 660c3 15 9 20 24 20h20c11 0 15 -2 17 -13l70 -446c1 -6 7 -5 8 0l86 439
c3 15 9 20 24 20h28c15 0 19 -5 16 -20l-129 -660c-3 -15 -8 -20 -23 -20z" />
    <glyph glyph-name="lcommaaccent" unicode="&#x13c;" horiz-adv-x="199" 
d="M166 64c15 -1 19 -5 16 -20l-5 -24c-3 -15 -8 -20 -23 -20c-104 0 -87 91 -66 199l94 481c3 15 9 20 24 20h28c15 0 19 -5 16 -20l-100 -512c-12 -61 -20 -102 16 -104zM61 -69c4 20 25 39 47 39c39 0 59 -59 -35 -143c-4 -3 -6 -5 -11 -2l-8 7c-4 3 -4 6 0 10
c56 61 -1 46 7 89z" />
    <glyph glyph-name="ldot" unicode="&#x140;" horiz-adv-x="271" 
d="M166 64c15 -1 19 -5 16 -20l-5 -24c-3 -15 -8 -20 -23 -20c-104 0 -87 91 -66 199l94 481c3 15 9 20 24 20h28c15 0 19 -5 16 -20l-100 -512c-12 -61 -20 -102 16 -104zM239 368c4 21 26 39 47 39c22 0 35 -18 31 -39c-4 -22 -25 -39 -47 -39c-21 0 -35 17 -31 39z" />
    <glyph glyph-name="Ncommaaccent" unicode="&#x145;" horiz-adv-x="423" 
d="M348 0h-20c-9 0 -16 2 -18 12l-87 466c0 7 -7 5 -8 0l-89 -458c-3 -15 -8 -20 -23 -20h-28c-15 0 -20 5 -17 20l129 660c3 15 9 20 24 20h20c11 0 15 -2 17 -13l86 -466c1 -6 7 -5 8 0l90 459c3 15 9 20 24 20h28c15 0 19 -5 16 -20l-129 -660c-3 -15 -8 -20 -23 -20z
M161 -70c4 20 25 39 47 39c39 0 59 -59 -35 -143c-4 -3 -6 -5 -11 -2l-8 7c-4 3 -4 6 0 10c56 61 -1 46 7 89z" />
    <glyph glyph-name="Tbar" unicode="&#x166;" horiz-adv-x="340" 
d="M152 680c3 15 9 20 24 20h260c15 0 19 -5 16 -20l-5 -24c-3 -15 -9 -20 -24 -20h-76c-20 0 -20 0 -24 -20l-23 -119c-1 -8 0 -10 8 -10h56c15 0 19 -5 16 -20l-4 -24c-3 -15 -9 -20 -24 -20h-56c-8 0 -11 -2 -12 -10l-77 -393c-3 -15 -8 -20 -23 -20h-28
c-15 0 -20 5 -17 20l77 393c1 8 0 10 -8 10h-51c-15 0 -19 5 -16 20l4 24c3 15 9 20 24 20h51c8 0 11 2 12 10l23 119c4 20 4 20 -15 20h-77c-15 0 -19 5 -16 20z" />
    <glyph glyph-name="uni0163" unicode="&#x163;" horiz-adv-x="204" 
d="M91 -125l-30 8c-10 3 -10 6 -8 14l57 113c-49 26 -34 102 -17 189l42 213c1 8 0 10 -8 10c-15 0 -19 5 -17 20l5 22c3 15 9 20 24 20c8 0 10 2 12 10l18 93c3 15 8 20 23 20h28c15 0 20 -5 17 -20l-18 -93c-2 -8 0 -10 8 -10h18c15 0 19 -5 16 -20l-5 -22
c-2 -15 -8 -20 -23 -20h-18c-8 0 -11 -2 -12 -10l-48 -244c-12 -61 -20 -102 16 -104c15 -1 19 -5 16 -20l-5 -24c-3 -14 -7 -19 -19 -20l-29 -59c71 23 110 -30 99 -84c-18 -80 -105 -123 -163 -90c-4 2 -3 7 0 12l19 36c4 8 10 6 13 5c10 -3 17 -4 23 -4c23 0 43 19 48 41
c4 20 -10 39 -33 39c-13 0 -25 -6 -35 -16c-5 -5 -6 -7 -14 -5z" />
    <glyph glyph-name="uni021A" unicode="&#x21a;" horiz-adv-x="340" 
d="M152 680c3 15 9 20 24 20h260c15 0 19 -5 16 -20l-5 -24c-3 -15 -9 -20 -24 -20h-76c-20 0 -20 0 -24 -20l-116 -596c-3 -15 -8 -20 -23 -20h-28c-15 0 -20 5 -17 20l116 596c4 20 4 20 -15 20h-77c-15 0 -19 5 -16 20zM117 -60c4 20 25 39 47 39c39 0 59 -59 -35 -143
c-4 -3 -6 -5 -11 -2l-8 7c-4 3 -4 6 0 10c56 61 -1 46 7 89z" />
    <glyph glyph-name="uni021B" unicode="&#x21b;" horiz-adv-x="204" 
d="M171 64c15 -1 19 -5 16 -20l-5 -24c-3 -15 -8 -20 -23 -20c-104 0 -87 91 -66 199l42 213c1 8 0 10 -8 10c-15 0 -19 5 -17 20l5 22c3 15 9 20 24 20c8 0 10 2 12 10l18 93c3 15 8 20 23 20h28c15 0 20 -5 17 -20l-18 -93c-2 -8 0 -10 8 -10h18c15 0 19 -5 16 -20l-5 -22
c-2 -15 -8 -20 -23 -20h-18c-8 0 -11 -2 -12 -10l-48 -244c-12 -61 -20 -102 16 -104zM66 -70c4 20 25 39 47 39c39 0 59 -59 -35 -143c-4 -3 -6 -5 -11 -2l-8 7c-4 3 -4 6 0 10c56 61 -1 46 7 89z" />
    <glyph glyph-name="uni0162" unicode="&#x162;" horiz-adv-x="340" 
d="M124 -125l-30 8c-10 3 -10 6 -8 14l55 107c-3 3 -4 8 -2 16l116 596c4 20 4 20 -15 20h-77c-15 0 -19 5 -16 20l5 24c3 15 9 20 24 20h260c15 0 19 -5 16 -20l-5 -24c-3 -15 -9 -20 -24 -20h-76c-20 0 -20 0 -24 -20l-116 -596c-2 -10 -5 -15 -10 -18l-30 -61
c71 23 110 -30 99 -84c-18 -80 -105 -123 -163 -90c-4 2 -3 7 0 12l19 36c4 8 10 6 13 5c10 -3 17 -4 23 -4c23 0 43 19 48 41c4 20 -10 39 -33 39c-13 0 -25 -6 -35 -16c-5 -5 -6 -7 -14 -5z" />
    <glyph glyph-name="eth" unicode="&#xf0;" horiz-adv-x="366" 
d="M228 672l13 26c3 6 5 5 9 4c13 -4 41 -15 74 -43c4 -3 7 -3 12 1l36 30c13 11 20 11 29 0l12 -15c9 -11 7 -18 -6 -29l-36 -30c-3 -3 -7 -6 -5 -10c29 -51 47 -128 25 -243l-37 -191c-26 -133 -91 -176 -172 -176s-130 43 -104 176l19 97c26 133 91 176 162 176
c28 0 56 -13 72 -42c5 27 15 98 -9 162c-2 7 -5 6 -10 1l-30 -25c-13 -11 -20 -11 -28 0l-13 16c-9 10 -8 17 5 28l35 29c6 5 7 9 3 14c-14 14 -31 27 -53 37c-2 1 -6 1 -3 7zM194 60c37 0 75 27 88 93l26 135c13 66 -16 93 -51 93c-37 0 -76 -27 -89 -93l-26 -135
c-13 -66 15 -93 52 -93z" />
    <glyph glyph-name="Thorn" unicode="&#xde;" horiz-adv-x="341" 
d="M75 0c-15 0 -20 5 -17 20l129 660c3 15 9 20 24 20h28c15 0 19 -5 16 -20l-18 -91c-4 -20 -4 -20 16 -20h13c83 0 141 -47 117 -170l-18 -95c-24 -123 -100 -170 -183 -170h-13c-20 0 -20 0 -24 -20l-19 -94c-3 -15 -8 -20 -23 -20h-28zM217 485l-52 -267
c-4 -20 -4 -20 16 -20h13c55 0 88 33 106 123l12 61c17 90 -3 123 -58 123h-13c-20 0 -20 0 -24 -20z" />
    <glyph glyph-name="partialdiff" unicode="&#x2202;" horiz-adv-x="366" 
d="M228 672l13 26c3 6 5 5 9 4c33 -10 193 -74 141 -339l-37 -191c-26 -133 -91 -176 -172 -176s-130 43 -104 176l19 97c26 133 91 176 162 176c28 0 56 -13 72 -42c9 45 29 202 -100 262c-2 1 -6 1 -3 7zM194 60c37 0 75 27 88 93l26 135c13 66 -16 93 -51 93
c-37 0 -76 -27 -89 -93l-26 -135c-13 -66 15 -93 52 -93z" />
    <glyph glyph-name="zeroinferior" unicode="&#x2080;" horiz-adv-x="222" 
d="M157 -75c-9 -50 -40 -69 -74 -69s-57 19 -48 69l29 150c10 50 41 69 75 69c33 0 57 -19 47 -69zM157 68c7 36 -1 50 -23 50c-23 0 -36 -14 -43 -50l-27 -136c-7 -36 1 -50 24 -50c22 0 36 14 43 50z" />
    <glyph glyph-name="parenleftinferior" unicode="&#x208d;" horiz-adv-x="134" 
d="M87 115l-45 -230c-4 -21 -6 -48 17 -47c7 0 8 -2 7 -9l-2 -10c-1 -7 -4 -9 -10 -9c-41 0 -51 24 -39 87l41 207c12 62 31 87 72 87c6 0 8 -3 7 -9l-2 -10c-2 -7 -4 -9 -11 -9c-23 1 -30 -26 -35 -48z" />
    <glyph glyph-name="parenrightinferior" unicode="&#x208e;" horiz-adv-x="134" 
d="M47 -115l45 230c5 22 7 49 -17 48c-6 0 -8 2 -6 9l2 10c1 6 4 9 10 9c41 0 51 -25 39 -87l-41 -207c-12 -63 -31 -87 -72 -87c-6 0 -8 2 -7 9l2 10c1 7 4 9 10 9c24 -1 31 26 35 47z" />
    <glyph glyph-name="Eth" unicode="&#xd0;" horiz-adv-x="414" 
d="M402 170c-24 -123 -100 -170 -183 -170h-144c-15 0 -20 5 -17 20l79 406c2 8 0 10 -8 10c-15 0 -19 5 -16 20l5 24c3 15 9 20 24 20c8 0 10 2 12 10l33 170c3 15 9 20 24 20h144c83 0 140 -47 117 -170zM400 513c18 90 -3 123 -58 123h-76c-20 0 -20 0 -24 -20l-20 -106
c-2 -8 0 -10 8 -10h26c15 0 19 -5 16 -20l-5 -24c-3 -15 -9 -20 -24 -20h-26c-8 0 -10 -2 -12 -10l-66 -342c-4 -20 -4 -20 16 -20h76c55 0 88 33 106 123z" />
    <glyph glyph-name="uni0218" unicode="&#x218;" 
d="M54 145c1 14 4 27 22 27h31c13 0 19 -5 15 -23c-5 -45 21 -89 75 -89c68 0 112 61 116 113c11 133 -189 208 -166 373c12 88 86 158 173 158c68 0 126 -52 113 -141c-3 -12 -10 -14 -24 -14h-22c-13 0 -18 2 -17 14c4 44 -18 77 -62 77c-45 0 -92 -37 -97 -100
c-8 -122 181 -199 168 -363c-8 -90 -91 -181 -194 -181c-86 0 -141 67 -131 149zM135 -70c4 20 25 39 47 39c39 0 59 -59 -35 -143c-4 -3 -6 -5 -11 -2l-8 7c-4 3 -4 6 0 10c56 61 -1 46 7 89z" />
    <glyph glyph-name="uni0219" unicode="&#x219;" horiz-adv-x="316" 
d="M350 390c-3 -17 -9 -20 -24 -20h-23c-10 0 -15 1 -14 17c3 33 -19 53 -45 53c-28 0 -58 -23 -65 -55c-17 -90 167 -123 134 -262c-17 -74 -87 -127 -157 -127c-75 0 -118 57 -107 128c3 18 8 20 21 20h28c14 0 19 -5 17 -20c-4 -35 16 -64 53 -64c38 0 74 29 82 69
c19 96 -159 131 -134 258c13 67 76 117 138 117c59 0 106 -41 96 -114zM108 -70c4 20 25 39 47 39c39 0 59 -59 -35 -143c-4 -3 -6 -5 -11 -2l-8 7c-4 3 -4 6 0 10c56 61 -1 46 7 89z" />
    <glyph glyph-name="D" unicode="D" horiz-adv-x="414" 
d="M402 170c-24 -123 -100 -170 -183 -170h-144c-15 0 -20 5 -17 20l129 660c3 15 9 20 24 20h144c83 0 140 -47 117 -170zM242 616l-103 -532c-4 -20 -4 -20 16 -20h76c55 0 88 33 106 123l63 326c18 90 -3 123 -58 123h-76c-20 0 -20 0 -24 -20z" />
    <glyph glyph-name="scommaaccent" horiz-adv-x="316" 
d="M350 390c-3 -17 -9 -20 -24 -20h-23c-10 0 -15 1 -14 17c3 33 -19 53 -45 53c-28 0 -58 -23 -65 -55c-17 -90 167 -123 134 -262c-17 -74 -87 -127 -157 -127c-75 0 -118 57 -107 128c3 18 8 20 21 20h28c14 0 19 -5 17 -20c-4 -35 16 -64 53 -64c38 0 74 29 82 69
c19 96 -159 131 -134 258c13 67 76 117 138 117c59 0 106 -41 96 -114zM109 -70c4 20 25 39 47 39c39 0 59 -59 -35 -143c-4 -3 -6 -5 -11 -2l-8 7c-4 3 -4 6 0 10c56 61 -1 46 7 89z" />
    <glyph glyph-name="Aring" unicode="&#xc5;" horiz-adv-x="402" 
d="M349 0h-30c-13 0 -19 0 -20 15l2 69c0 20 0 20 -18 20h-123c-20 0 -19 0 -27 -20l-26 -69c-5 -15 -11 -15 -24 -15h-30c-10 0 -20 0 -14 17l254 665c6 15 10 18 26 18h36c16 0 18 -3 18 -18l-4 -665c0 -17 -10 -17 -20 -17zM302 543l-130 -355c-7 -20 -7 -20 13 -20h96
c20 0 20 0 21 20l8 355c0 5 -6 5 -8 0zM343 731c-45 0 -76 38 -67 83c9 46 54 84 99 84c46 0 77 -38 68 -84c-9 -45 -54 -83 -100 -83zM320 814c-5 -22 10 -39 31 -39c22 0 42 17 47 39c4 21 -10 39 -32 39c-21 0 -42 -18 -46 -39z" />
    <glyph glyph-name="Atilde" unicode="&#xc3;" horiz-adv-x="402" 
d="M349 0h-30c-13 0 -19 0 -20 15l2 69c0 20 0 20 -18 20h-123c-20 0 -19 0 -27 -20l-26 -69c-5 -15 -11 -15 -24 -15h-30c-10 0 -20 0 -14 17l254 665c6 15 10 18 26 18h36c16 0 18 -3 18 -18l-4 -665c0 -17 -10 -17 -20 -17zM302 543l-130 -355c-7 -20 -7 -20 13 -20h96
c20 0 20 0 21 20l8 355c0 5 -6 5 -8 0zM381 731c-30 3 -55 33 -75 33c-16 0 -24 -11 -31 -26c-2 -3 -3 -7 -9 -7h-40c-4 0 -7 1 -5 6c16 42 47 80 101 76c29 -2 54 -33 74 -33c16 0 24 11 31 26c2 3 4 7 10 7h40c4 0 6 -1 4 -6c-16 -42 -47 -81 -100 -76z" />
    <glyph glyph-name="uni0404" unicode="&#x404;" horiz-adv-x="386" 
d="M333 187h28c15 0 20 -6 15 -23c-25 -122 -100 -168 -182 -168c-83 0 -141 47 -117 170l71 368c24 123 100 170 183 170c82 0 139 -46 118 -168c-3 -17 -10 -23 -25 -23h-28c-14 0 -18 4 -17 16c13 81 -8 111 -60 111c-55 0 -89 -33 -106 -123l-24 -125c-2 -8 0 -10 8 -10
h121c15 0 19 -5 16 -20l-4 -22c-3 -15 -9 -20 -24 -20h-121c-8 0 -11 -2 -12 -10l-25 -127c-17 -90 3 -123 58 -123c52 0 85 30 104 111c3 12 9 16 23 16z" />
    <glyph glyph-name="uni0405" unicode="&#x405;" 
d="M54 145c1 14 4 27 22 27h31c13 0 19 -5 15 -23c-5 -45 21 -89 75 -89c68 0 112 61 116 113c11 133 -189 208 -166 373c12 88 86 158 173 158c68 0 126 -52 113 -141c-3 -12 -10 -14 -24 -14h-22c-13 0 -18 2 -17 14c4 44 -18 77 -62 77c-45 0 -92 -37 -97 -100
c-8 -122 181 -199 168 -363c-8 -90 -91 -181 -194 -181c-86 0 -141 67 -131 149z" />
    <glyph glyph-name="uni0406" unicode="&#x406;" horiz-adv-x="178" 
d="M126 20c-3 -15 -8 -20 -23 -20h-28c-15 0 -20 5 -17 20l129 660c3 15 9 20 24 20h28c15 0 19 -5 16 -20z" />
    <glyph glyph-name="uni0407" unicode="&#x407;" horiz-adv-x="178" 
d="M126 20c-3 -15 -8 -20 -23 -20h-28c-15 0 -20 5 -17 20l129 660c3 15 9 20 24 20h28c15 0 19 -5 16 -20zM144 770c4 21 25 39 47 39c21 0 35 -18 31 -39c-4 -22 -25 -39 -46 -39c-22 0 -36 17 -32 39zM255 770c4 21 26 39 47 39c22 0 35 -18 31 -39
c-4 -22 -24 -39 -46 -39c-21 0 -36 17 -32 39z" />
    <glyph glyph-name="uni0408" unicode="&#x408;" horiz-adv-x="222" 
d="M52 64c65 4 72 43 84 104l100 512c3 15 9 20 24 20h28c15 0 19 -5 16 -20l-94 -481c-19 -97 -38 -199 -170 -199c-15 0 -20 5 -17 20l5 24c3 15 9 19 24 20z" />
    <glyph glyph-name="uni0409" unicode="&#x409;" horiz-adv-x="610" 
d="M424 346l-38 -193c-13 -66 17 -93 52 -93c37 0 75 27 88 93l38 194c13 66 -15 93 -52 93c-35 0 -75 -26 -88 -94zM236 680c3 15 9 20 24 20h213c15 0 19 -5 16 -20l-43 -219c28 31 60 43 88 43c71 0 120 -43 94 -176l-30 -156c-26 -133 -91 -176 -162 -176
c-28 0 -56 12 -72 42l-4 -18c-3 -15 -8 -20 -23 -20h-28c-15 0 -20 5 -17 20l116 596c4 20 4 20 -16 20h-77c-20 0 -20 0 -24 -20l-81 -417c-19 -97 -38 -199 -170 -199c-15 0 -20 5 -17 20l5 24c3 15 9 19 24 20c65 4 72 43 84 104z" />
    <glyph glyph-name="uni040A" unicode="&#x40a;" horiz-adv-x="592" 
d="M332 317c4 20 4 20 -16 20h-108c-20 0 -20 0 -24 -20l-58 -297c-3 -15 -8 -20 -23 -20h-28c-15 0 -20 5 -17 20l129 660c3 15 9 20 24 20h28c15 0 19 -5 16 -20l-51 -259c-4 -20 -4 -20 16 -20h108c20 0 20 0 24 20l51 259c3 15 9 20 24 20h28c15 0 19 -5 16 -20
l-43 -219c28 31 60 43 88 43c71 0 120 -43 94 -176l-30 -156c-26 -133 -91 -176 -162 -176c-28 0 -56 12 -72 42l-4 -18c-3 -15 -8 -20 -23 -20h-28c-15 0 -20 5 -17 20zM406 346l-38 -193c-13 -66 17 -93 52 -93c37 0 75 27 88 93l38 194c13 66 -15 93 -52 93
c-35 0 -75 -26 -88 -94z" />
    <glyph glyph-name="uni040B" unicode="&#x40b;" horiz-adv-x="406" 
d="M355 347c13 66 -15 93 -52 93c-35 0 -75 -26 -88 -94l-64 -326c-3 -15 -8 -20 -23 -20h-28c-15 0 -20 5 -17 20l116 596c4 20 4 20 -15 20h-36c-15 0 -19 5 -16 20l5 24c3 15 9 20 24 20h178c15 0 19 -5 16 -20l-5 -24c-3 -15 -9 -20 -24 -20h-35c-20 0 -20 0 -24 -20
l-30 -155c28 31 60 43 88 43c71 0 120 -43 94 -176l-60 -308c-3 -15 -8 -20 -23 -20h-28c-15 0 -20 5 -17 20z" />
    <glyph glyph-name="uni040C" unicode="&#x40c;" horiz-adv-x="389" 
d="M126 20c-3 -15 -8 -20 -23 -20h-28c-15 0 -20 5 -17 20l129 660c3 15 9 20 24 20h28c15 0 19 -5 16 -20l-61 -310c0 -4 4 -6 8 0l230 315c11 15 12 15 25 15h34c8 0 17 -3 4 -21l-172 -239c-8 -11 -8 -15 -7 -24c15 -111 55 -395 55 -395c1 -16 -9 -21 -17 -21h-31
c-13 0 -17 0 -20 15l-45 332c0 4 -4 4 -7 0l-79 -111c-5 -8 -7 -15 -8 -22zM320 735c-7 0 -9 3 -8 10l19 98c4 17 10 21 25 21h38c15 0 19 -8 8 -27l-46 -85c-8 -15 -11 -17 -21 -17h-15z" />
    <glyph glyph-name="uni00AD" unicode="&#xad;" horiz-adv-x="499" 
d="M91 289c3 15 9 20 24 20h389c15 0 19 -5 16 -20l-6 -28c-3 -15 -9 -20 -24 -20h-389c-15 0 -19 5 -16 20z" />
    <glyph glyph-name="uni040E" unicode="&#x40e;" horiz-adv-x="346" 
d="M173 179l-15 504c0 17 11 17 21 17h28c13 0 19 0 19 -15l7 -352c0 -5 6 -5 8 0l145 352c6 15 12 15 25 15h28c10 0 21 0 13 -17l-278 -665c-6 -15 -10 -18 -26 -18h-23c-16 0 -26 0 -19 18zM273 844c-11 -85 104 -87 126 0c5 17 9 17 24 17h12c13 0 20 0 15 -17
c-34 -149 -252 -151 -228 0c3 17 10 17 23 17h12c15 0 19 0 16 -17z" />
    <glyph glyph-name="uni040F" unicode="&#x40f;" horiz-adv-x="378" 
d="M155 64h92c20 0 20 0 24 20l116 596c3 15 9 20 24 20h28c15 0 19 -5 16 -20l-129 -660c-3 -15 -8 -20 -23 -20h-60c-20 0 -20 0 -24 -20l-9 -45c-3 -15 -9 -20 -24 -20h-28c-15 0 -19 5 -16 20l9 45c4 20 4 20 -16 20h-60c-15 0 -20 5 -17 20l129 660c3 15 9 20 24 20h28
c15 0 19 -5 16 -20l-116 -596c-4 -20 -4 -20 16 -20z" />
    <glyph glyph-name="uni0410" unicode="&#x410;" horiz-adv-x="402" 
d="M349 0h-30c-13 0 -19 0 -20 15l2 69c0 20 0 20 -18 20h-123c-20 0 -19 0 -27 -20l-26 -69c-5 -15 -11 -15 -24 -15h-30c-10 0 -20 0 -14 17l254 665c6 15 10 18 26 18h36c16 0 18 -3 18 -18l-4 -665c0 -17 -10 -17 -20 -17zM302 543l-130 -355c-7 -20 -7 -20 13 -20h96
c20 0 20 0 21 20l8 355c0 5 -6 5 -8 0z" />
    <glyph glyph-name="uni0411" unicode="&#x411;" horiz-adv-x="368" 
d="M201 404l-62 -320c-4 -20 -4 -20 16 -20h30c55 0 88 33 106 123l22 114c18 90 -3 123 -58 123h-30c-20 0 -20 0 -24 -20zM75 0c-15 0 -20 5 -17 20l129 660c3 15 9 20 24 20h207c15 0 19 -5 16 -20l-5 -24c-3 -15 -9 -20 -24 -20h-139c-20 0 -20 0 -24 -20l-21 -108
c-4 -20 -4 -20 16 -20h30c83 0 141 -47 117 -170l-28 -148c-24 -123 -100 -170 -183 -170h-98z" />
    <glyph glyph-name="uni0412" unicode="&#x412;" horiz-adv-x="400" 
d="M388 170c-24 -123 -100 -170 -183 -170h-130c-15 0 -20 5 -17 20l129 660c3 15 9 20 24 20h130c83 0 140 -47 117 -170l-5 -23c-13 -66 -40 -110 -75 -136c-2 -1 -2 -3 -1 -4c25 -27 35 -70 22 -136zM184 317l-45 -233c-4 -20 -4 -20 16 -20h62c53 0 86 31 104 115l9 46
c14 81 -7 112 -60 112h-62c-20 0 -20 0 -24 -20zM242 616l-38 -195c-4 -20 -4 -20 16 -20h62c53 0 86 31 105 115l1 8c14 81 -7 112 -60 112h-62c-20 0 -20 0 -24 -20z" />
    <glyph glyph-name="uni0413" unicode="&#x413;" horiz-adv-x="278" 
d="M187 680c3 15 9 20 24 20h163c15 0 19 -5 16 -20l-5 -24c-3 -15 -9 -20 -24 -20h-95c-20 0 -20 0 -24 -20l-116 -596c-3 -15 -8 -20 -23 -20h-28c-15 0 -20 5 -17 20z" />
    <glyph glyph-name="uni0414" unicode="&#x414;" horiz-adv-x="475" 
d="M403 84c-4 -20 -4 -20 16 -20h28c15 0 19 -5 16 -20l-21 -109c-3 -15 -9 -20 -24 -20h-28c-15 0 -19 5 -16 20l9 45c4 20 4 20 -16 20h-264c-10 0 -16 -5 -18 -15l-10 -50c-3 -15 -9 -20 -24 -20h-28c-15 0 -19 5 -16 20l21 109c3 15 9 20 24 20h39s138 320 195 616
c3 15 9 20 24 20h193c15 0 19 -5 16 -20zM343 621c-54 -239 -179 -557 -179 -557h147c20 0 20 0 24 20l104 537c2 10 -2 15 -12 15h-66c-10 0 -16 -5 -18 -15z" />
    <glyph glyph-name="uni0415" unicode="&#x415;" horiz-adv-x="346" 
d="M75 0c-15 0 -20 5 -17 20l129 660c3 15 9 20 24 20h201c15 0 19 -5 16 -20l-5 -24c-3 -15 -9 -20 -24 -20h-133c-20 0 -20 0 -24 -20l-38 -195c-4 -20 -4 -20 16 -20h133c15 0 19 -5 17 -20l-5 -24c-3 -15 -9 -20 -24 -20h-133c-20 0 -20 0 -24 -20l-45 -233
c-4 -20 -4 -20 16 -20h133c15 0 19 -5 16 -20l-5 -24c-3 -15 -8 -20 -23 -20h-201z" />
    <glyph glyph-name="uni0416" unicode="&#x416;" horiz-adv-x="498" 
d="M30 18l192 333l-63 331c-2 14 5 18 11 18h41c13 0 16 -1 19 -15l53 -280c2 -7 10 -5 11 1l54 274c3 15 9 20 24 20h26c15 0 19 -5 16 -20l-54 -274c-1 -6 7 -8 11 -1l163 280c7 14 12 15 25 15h41c6 0 11 -4 3 -18l-191 -331l62 -333c2 -14 -4 -18 -10 -18h-41
c-13 0 -17 1 -20 15l-53 282c-1 7 -10 5 -11 -1l-54 -276c-3 -15 -8 -20 -23 -20h-26c-15 0 -20 5 -17 20l54 276c1 6 -6 8 -11 1l-163 -282c-7 -14 -11 -15 -24 -15h-41c-6 0 -12 4 -4 18z" />
    <glyph glyph-name="uni0417" unicode="&#x417;" horiz-adv-x="360" 
d="M409 486c-13 -65 -36 -94 -59 -113l-3 -3c0 -1 1 -2 2 -3c15 -19 28 -48 15 -113l-16 -82c-26 -133 -92 -176 -173 -176s-114 45 -111 121c2 32 6 37 23 37h31c13 0 16 -2 15 -20c-5 -42 15 -74 54 -74c37 0 76 27 89 93l20 104c16 80 -27 80 -51 80h-10
c-12 1 -15 6 -12 20l5 26c3 15 9 20 24 20h6c24 0 67 0 82 80l13 64c13 66 -16 93 -53 93c-39 0 -71 -32 -83 -74c-6 -18 -9 -20 -22 -20h-31c-17 0 -19 5 -9 37c27 76 76 121 157 121s131 -43 105 -176z" />
    <glyph glyph-name="uni0418" unicode="&#x418;" horiz-adv-x="403" 
d="M95 0h-20c-15 0 -20 5 -17 20l129 660c3 15 9 20 24 20h28c15 0 19 -5 16 -20l-86 -439c-1 -5 5 -6 8 0l244 446c6 11 12 13 23 13h20c15 0 19 -5 16 -20l-129 -660c-3 -15 -8 -20 -23 -20h-28c-15 0 -20 5 -17 20l86 438c0 5 -5 7 -8 0l-244 -446
c-6 -10 -13 -12 -22 -12z" />
    <glyph glyph-name="uni0419" unicode="&#x419;" horiz-adv-x="403" 
d="M95 0h-20c-15 0 -20 5 -17 20l129 660c3 15 9 20 24 20h28c15 0 19 -5 16 -20l-86 -439c-1 -5 5 -6 8 0l244 446c6 11 12 13 23 13h20c15 0 19 -5 16 -20l-129 -660c-3 -15 -8 -20 -23 -20h-28c-15 0 -20 5 -17 20l86 438c0 5 -5 7 -8 0l-244 -446
c-6 -10 -13 -12 -22 -12zM305 844c-11 -85 104 -87 126 0c5 17 9 17 24 17h12c13 0 20 0 15 -17c-34 -149 -252 -151 -228 0c3 17 10 17 23 17h12c15 0 19 0 16 -17z" />
    <glyph glyph-name="uni041A" unicode="&#x41a;" horiz-adv-x="389" 
d="M126 20c-3 -15 -8 -20 -23 -20h-28c-15 0 -20 5 -17 20l129 660c3 15 9 20 24 20h28c15 0 19 -5 16 -20l-61 -310c0 -4 4 -6 8 0l230 315c11 15 12 15 25 15h34c8 0 17 -3 4 -21l-172 -239c-8 -11 -8 -15 -7 -24c15 -111 55 -395 55 -395c1 -16 -9 -21 -17 -21h-31
c-13 0 -17 0 -20 15l-45 332c0 4 -4 4 -7 0l-79 -111c-5 -8 -7 -15 -8 -22z" />
    <glyph glyph-name="uni041B" unicode="&#x41b;" horiz-adv-x="412" 
d="M236 680c3 15 9 20 24 20h213c15 0 19 -5 16 -20l-129 -660c-3 -15 -8 -20 -23 -20h-28c-15 0 -20 5 -17 20l116 596c4 20 4 20 -16 20h-77c-20 0 -20 0 -24 -20l-81 -417c-19 -97 -38 -199 -170 -199c-15 0 -20 5 -17 20l5 24c3 15 9 19 24 20c65 4 72 43 84 104z" />
    <glyph glyph-name="uni041C" unicode="&#x41c;" horiz-adv-x="480" 
d="M237 0c-10 0 -18 0 -20 14l-17 355c0 5 -5 4 -6 0l-68 -349c-3 -15 -8 -20 -23 -20h-28c-15 0 -20 5 -17 20l129 660c3 15 9 20 24 20h20c12 0 16 -3 16 -12l24 -503c0 -5 6 -5 8 0l220 503c4 9 10 12 22 12h20c15 0 19 -5 16 -20l-129 -660c-3 -15 -8 -20 -23 -20h-28
c-15 0 -20 5 -17 20l68 349c1 4 -4 5 -6 0l-155 -355c-6 -14 -14 -14 -24 -14h-6z" />
    <glyph glyph-name="uni041D" unicode="&#x41d;" horiz-adv-x="410" 
d="M348 317c4 20 4 20 -16 20h-124c-20 0 -20 0 -24 -20l-58 -297c-3 -15 -8 -20 -23 -20h-28c-15 0 -20 5 -17 20l129 660c3 15 9 20 24 20h28c15 0 19 -5 16 -20l-51 -259c-4 -20 -4 -20 16 -20h124c20 0 20 0 24 20l51 259c3 15 9 20 24 20h28c15 0 19 -5 16 -20
l-129 -660c-3 -15 -8 -20 -23 -20h-28c-15 0 -20 5 -17 20z" />
    <glyph glyph-name="uni041E" unicode="&#x41e;" horiz-adv-x="390" 
d="M377 166c-24 -123 -100 -170 -183 -170s-141 47 -117 170l71 368c24 123 100 170 183 170s141 -47 117 -170zM377 517c17 90 -3 123 -58 123s-89 -33 -106 -123l-65 -334c-17 -90 3 -123 58 -123s89 33 106 123z" />
    <glyph glyph-name="uni041F" unicode="&#x41f;" horiz-adv-x="393" 
d="M266 636c-20 0 -20 0 -24 -20l-116 -596c-3 -15 -8 -20 -23 -20h-28c-15 0 -20 5 -17 20l129 660c3 15 9 20 24 20h243c15 0 19 -5 16 -20l-129 -660c-3 -15 -8 -20 -23 -20h-28c-15 0 -20 5 -17 20l116 596c4 20 4 20 -16 20h-107z" />
    <glyph glyph-name="uni0420" unicode="&#x420;" horiz-adv-x="374" 
d="M242 616l-55 -286c-4 -20 -4 -20 16 -20h46c55 0 88 33 106 123l15 80c18 90 -3 123 -58 123h-46c-20 0 -20 0 -24 -20zM166 226l-40 -206c-3 -15 -8 -20 -23 -20h-28c-15 0 -20 5 -17 20l129 660c3 15 9 20 24 20h114c83 0 140 -47 117 -170l-23 -114
c-24 -123 -100 -170 -183 -170h-46c-20 0 -20 0 -24 -20z" />
    <glyph glyph-name="uni0421" unicode="&#x421;" horiz-adv-x="386" 
d="M333 187h28c15 0 20 -6 15 -23c-25 -122 -100 -168 -182 -168c-83 0 -141 47 -117 170l71 368c24 123 100 170 183 170c82 0 139 -46 118 -168c-3 -17 -10 -23 -25 -23h-28c-14 0 -18 4 -17 16c13 81 -8 111 -60 111c-55 0 -89 -33 -106 -123l-65 -334
c-17 -90 3 -123 58 -123c52 0 85 30 104 111c3 12 9 16 23 16z" />
    <glyph glyph-name="uni0422" unicode="&#x422;" horiz-adv-x="340" 
d="M152 680c3 15 9 20 24 20h260c15 0 19 -5 16 -20l-5 -24c-3 -15 -9 -20 -24 -20h-76c-20 0 -20 0 -24 -20l-116 -596c-3 -15 -8 -20 -23 -20h-28c-15 0 -20 5 -17 20l116 596c4 20 4 20 -15 20h-77c-15 0 -19 5 -16 20z" />
    <glyph glyph-name="uni0423" unicode="&#x423;" horiz-adv-x="346" 
d="M173 179l-15 504c0 17 11 17 21 17h28c13 0 19 0 19 -15l7 -352c0 -5 6 -5 8 0l145 352c6 15 12 15 25 15h28c10 0 21 0 13 -17l-278 -665c-6 -15 -10 -18 -26 -18h-23c-16 0 -26 0 -19 18z" />
    <glyph glyph-name="uni0424" unicode="&#x424;" horiz-adv-x="516" 
d="M244 0c-15 0 -20 5 -17 20l2 9c4 20 4 20 -16 20h-9c-83 0 -141 47 -117 170l51 262c24 123 92 170 175 170h17c20 0 20 0 24 20l2 9c3 15 9 20 24 20h28c15 0 19 -5 16 -20l-2 -9c-4 -20 -4 -20 16 -20h17c83 0 133 -47 109 -170l-51 -262c-24 -123 -100 -170 -183 -170
h-9c-20 0 -20 0 -24 -20l-2 -9c-3 -15 -8 -20 -23 -20h-28zM216 113h9c20 0 20 0 24 20l85 434c4 20 4 20 -16 20h-9c-55 0 -89 -33 -106 -123l-45 -228c-17 -90 3 -123 58 -123zM342 113c55 0 89 33 106 123l45 228c17 90 -3 123 -58 123h-9c-20 0 -20 0 -24 -20l-85 -434
c-4 -20 -4 -20 16 -20h9z" />
    <glyph glyph-name="uni0425" unicode="&#x425;" horiz-adv-x="331" 
d="M200 350l-47 329c-1 16 8 21 16 21h32c13 0 17 0 19 -15l30 -227c0 -6 4 -6 8 0l119 227c8 15 12 15 25 15h32c8 0 15 -5 6 -21l-173 -329l46 -329c1 -16 -7 -21 -15 -21h-32c-13 0 -17 0 -20 15l-30 227c-1 6 -5 6 -8 0l-119 -227c-7 -15 -11 -15 -24 -15h-32
c-8 0 -16 5 -7 21z" />
    <glyph glyph-name="uni0426" unicode="&#x426;" horiz-adv-x="411" 
d="M455 680l-116 -596c-4 -20 -4 -20 16 -20h28c15 0 19 -5 16 -20l-21 -109c-3 -15 -9 -20 -24 -20h-28c-15 0 -19 5 -16 20l9 45c4 20 4 20 -16 20h-228c-15 0 -20 5 -17 20l129 660c3 15 9 20 24 20h28c15 0 19 -5 16 -20l-116 -596c-4 -20 -4 -20 16 -20h92
c20 0 20 0 24 20l116 596c3 15 9 20 24 20h28c15 0 19 -5 16 -20z" />
    <glyph glyph-name="uni0427" unicode="&#x427;" horiz-adv-x="360" 
d="M287 364c20 0 20 0 24 20l58 296c3 15 9 20 24 20h28c15 0 19 -5 16 -20l-129 -660c-3 -15 -8 -20 -23 -20h-28c-15 0 -20 5 -17 20l51 260c4 20 4 20 -16 20h-32c-83 0 -141 47 -117 170l41 210c3 15 9 20 24 20h28c15 0 19 -5 16 -20l-38 -193c-17 -90 3 -123 58 -123
h32z" />
    <glyph glyph-name="uni0428" unicode="&#x428;" horiz-adv-x="542" 
d="M369 680c3 15 9 20 24 20h28c15 0 19 -5 16 -20l-116 -596c-4 -20 -4 -20 16 -20h74c20 0 20 0 24 20l116 596c3 15 9 20 24 20h28c15 0 19 -5 16 -20l-129 -660c-3 -15 -8 -20 -23 -20h-392c-15 0 -20 5 -17 20l129 660c3 15 9 20 24 20h28c15 0 19 -5 16 -20l-116 -596
c-4 -20 -4 -20 16 -20h74c20 0 20 0 24 20z" />
    <glyph glyph-name="uni0429" unicode="&#x429;" horiz-adv-x="575" 
d="M75 0c-15 0 -20 5 -17 20l129 660c3 15 9 20 24 20h28c15 0 19 -5 16 -20l-116 -596c-4 -20 -4 -20 16 -20h74c20 0 20 0 24 20l116 596c3 15 9 20 24 20h28c15 0 19 -5 16 -20l-116 -596c-4 -20 -4 -20 16 -20h74c20 0 20 0 24 20l116 596c3 15 9 20 24 20h28
c15 0 19 -5 16 -20l-116 -596c-4 -20 -4 -20 16 -20h28c15 0 19 -5 16 -20l-21 -109c-3 -15 -9 -20 -24 -20h-28c-15 0 -19 5 -16 20l9 45c4 20 4 20 -16 20h-392z" />
    <glyph glyph-name="uni042A" unicode="&#x42a;" horiz-adv-x="408" 
d="M261 508c-4 -20 -4 -20 16 -20h30c83 0 141 -47 117 -170l-28 -148c-24 -123 -100 -170 -183 -170h-98c-15 0 -20 5 -17 20l116 596c4 20 4 20 -16 20h-35c-15 0 -19 5 -16 20l5 24c3 15 9 20 24 20h103c15 0 19 -5 16 -20zM241 404l-62 -320c-4 -20 -4 -20 16 -20h30
c55 0 88 33 106 123l22 114c18 90 -3 123 -58 123h-30c-20 0 -20 0 -24 -20z" />
    <glyph glyph-name="uni042C" unicode="&#x42c;" horiz-adv-x="368" 
d="M201 404l-62 -320c-4 -20 -4 -20 16 -20h30c55 0 88 33 106 123l22 114c18 90 -3 123 -58 123h-30c-20 0 -20 0 -24 -20zM255 680l-34 -172c-4 -20 -4 -20 16 -20h30c83 0 141 -47 117 -170l-28 -148c-24 -123 -100 -170 -183 -170h-98c-15 0 -20 5 -17 20l129 660
c3 15 9 20 24 20h28c15 0 19 -5 16 -20z" />
    <glyph glyph-name="uni042B" unicode="&#x42b;" horiz-adv-x="507" 
d="M404 0c-10 0 -20 0 -17 20l129 660c3 15 9 20 24 20h28c15 0 19 -5 16 -20l-129 -660c-3 -20 -13 -20 -23 -20h-28zM201 404l-62 -320c-4 -20 -4 -20 16 -20h30c55 0 88 33 106 123l22 114c18 90 -3 123 -58 123h-30c-20 0 -20 0 -24 -20zM255 680l-34 -172
c-4 -20 -4 -20 16 -20h30c83 0 141 -47 117 -170l-28 -148c-24 -123 -100 -170 -183 -170h-98c-15 0 -20 5 -17 20l129 660c3 15 9 20 24 20h28c15 0 19 -5 16 -20z" />
    <glyph glyph-name="uni042D" unicode="&#x42d;" horiz-adv-x="386" 
d="M97 187h28c14 0 18 -4 17 -16c-13 -81 8 -111 60 -111c55 0 89 33 106 123l25 127c1 8 0 10 -8 10h-121c-15 0 -19 5 -16 20l4 22c3 15 9 20 24 20h121c8 0 10 2 12 10l24 125c17 90 -3 123 -58 123c-52 0 -85 -30 -104 -111c-3 -12 -9 -16 -23 -16h-28
c-15 0 -20 6 -15 23c25 122 100 168 182 168c83 0 141 -47 117 -170l-71 -368c-24 -123 -100 -170 -183 -170c-82 0 -139 46 -118 168c3 17 10 23 25 23z" />
    <glyph glyph-name="uni042E" unicode="&#x42e;" horiz-adv-x="551" 
d="M538 166c-24 -123 -100 -170 -183 -170s-141 47 -117 170l29 151c4 20 4 20 -16 20h-43c-20 0 -20 0 -24 -20l-58 -297c-3 -15 -8 -20 -23 -20h-28c-15 0 -20 5 -17 20l129 660c3 15 9 20 24 20h28c15 0 19 -5 16 -20l-51 -259c-4 -20 -4 -20 16 -20h43c20 0 20 0 24 20
l22 113c24 123 100 170 183 170s141 -47 117 -170zM538 517c17 90 -3 123 -58 123s-89 -33 -106 -123l-65 -334c-17 -90 3 -123 58 -123s89 33 106 123z" />
    <glyph glyph-name="uni042F" unicode="&#x42f;" horiz-adv-x="384" 
d="M309 0h-28c-15 0 -20 5 -17 20l52 265c4 20 4 20 -16 20h-53c-14 0 -16 0 -22 -15l-108 -275c-5 -15 -11 -15 -24 -15h-30c-10 0 -20 0 -14 17l122 311c-33 25 -49 72 -34 147l11 55c23 123 100 170 183 170h114c15 0 19 -5 16 -20l-129 -660c-3 -15 -8 -20 -23 -20z
M336 389l44 227c4 20 4 20 -16 20h-46c-55 0 -88 -33 -106 -123l-4 -21c-17 -90 3 -123 58 -123h46c20 0 20 0 24 20z" />
    <glyph glyph-name="uni0430" unicode="&#x430;" horiz-adv-x="360" 
d="M260 32c-27 -22 -63 -36 -95 -36c-72 0 -116 44 -98 133l6 31c29 150 199 110 235 193c20 47 2 87 -43 87c-30 0 -68 -24 -78 -75c-3 -18 -8 -20 -21 -20h-28c-15 0 -18 5 -17 20c9 71 77 139 156 139c55 0 123 -40 103 -140l-55 -285c-5 -26 -4 -45 -4 -59
c0 -15 -8 -20 -23 -20h-22c-15 0 -18 4 -16 32zM195 60c35 3 62 19 73 77l25 128c-76 -30 -139 -34 -155 -117l-2 -11c-10 -52 8 -81 59 -77z" />
    <glyph glyph-name="uni0431" unicode="&#x431;" horiz-adv-x="366" 
d="M78 172l56 288c21 106 68 156 138 161c48 3 62 12 74 59c4 15 9 20 24 20h28c15 0 19 -5 16 -20c-18 -90 -74 -120 -130 -123c-57 -3 -70 -34 -78 -75l-4 -20c28 30 60 41 88 42c72 3 120 -43 94 -176l-30 -156c-26 -133 -91 -176 -172 -176s-130 43 -104 176zM194 60
c37 0 75 27 88 93l38 194c13 66 -15 93 -52 93c-35 0 -75 -27 -88 -93l-38 -194c-13 -66 15 -93 52 -93z" />
    <glyph glyph-name="uni0433" unicode="&#x433;" horiz-adv-x="248" 
d="M148 480c3 15 9 20 24 20h133c15 0 19 -5 16 -20l-5 -24c-3 -15 -9 -20 -24 -20h-65c-20 0 -20 0 -24 -20l-77 -396c-3 -15 -8 -20 -23 -20h-28c-15 0 -20 5 -17 20z" />
    <glyph glyph-name="uni0435" unicode="&#x435;" horiz-adv-x="358" 
d="M334 126c-33 -101 -98 -130 -156 -130c-71 0 -126 43 -100 176l30 156c26 133 97 176 168 176s126 -43 100 -176l-12 -62c-3 -15 -9 -20 -24 -20h-160c-15 0 -19 0 -22 -10l-16 -83c-13 -66 11 -93 48 -93c44 0 71 38 80 75c4 18 9 20 22 20h29c17 0 20 -7 13 -29z
M264 440c-37 0 -71 -27 -84 -93l-3 -17c-4 -20 -4 -20 16 -20h92c20 0 20 0 24 20l3 17c13 66 -11 93 -48 93z" />
    <glyph glyph-name="uni0436" unicode="&#x436;" horiz-adv-x="436" 
d="M173 250l-53 229c-3 15 7 21 15 21h35c13 0 15 -1 19 -15l43 -184c2 -7 10 -6 11 2l35 177c3 15 9 20 24 20h26c15 0 19 -5 16 -20l-35 -177c-1 -8 7 -9 11 -2l115 184c8 14 12 15 25 15h35c8 0 16 -6 7 -21l-143 -229l54 -229c3 -15 -7 -21 -15 -21h-35
c-13 0 -16 1 -20 15l-43 184c-1 7 -10 6 -11 -2l-35 -177c-3 -15 -8 -20 -23 -20h-26c-15 0 -20 5 -17 20l35 177c1 8 -6 9 -11 2l-115 -184c-8 -14 -11 -15 -24 -15h-35c-8 0 -16 6 -7 21z" />
    <glyph glyph-name="uni043E" unicode="&#x43e;" horiz-adv-x="358" 
d="M178 -4c-71 0 -126 43 -100 176l30 156c26 133 97 176 168 176s126 -43 100 -176l-30 -156c-26 -133 -97 -176 -168 -176zM312 347c13 66 -11 93 -48 93s-71 -27 -84 -93l-38 -194c-13 -66 11 -93 48 -93s71 27 84 93z" />
    <glyph glyph-name="uni0441" unicode="&#x441;" horiz-adv-x="353" 
d="M178 -4c-71 0 -126 43 -100 176l30 156c26 133 97 176 168 176c76 0 117 -62 104 -130c-4 -22 -8 -29 -25 -29h-28c-13 0 -18 2 -15 20c10 51 -18 75 -48 75c-37 0 -71 -27 -84 -93l-38 -194c-13 -66 11 -93 48 -93c30 0 68 24 78 75c3 18 9 20 22 20h28
c17 0 18 -7 14 -29c-13 -68 -78 -130 -154 -130z" />
    <glyph glyph-name="uni0440" unicode="&#x440;" 
d="M190 347l-38 -193c-13 -68 17 -94 52 -94c37 0 75 27 88 93l38 194c13 66 -15 93 -52 93c-35 0 -75 -27 -88 -93zM23 -160l125 640c3 15 9 20 24 20h28c15 0 19 -5 16 -20l-4 -18c28 30 60 41 88 42c72 2 120 -43 94 -176l-30 -156c-26 -133 -92 -178 -162 -176
c-28 1 -56 12 -72 43l-39 -199c-3 -15 -8 -20 -23 -20h-28c-15 0 -20 5 -17 20z" />
    <glyph glyph-name="uni0443" unicode="&#x443;" horiz-adv-x="334" 
d="M120 483c0 14 4 17 21 17h28c13 0 19 0 19 -15v-354c0 -5 6 -5 8 0l138 354c6 15 12 15 25 15h28c17 0 19 -3 13 -17l-226 -555c-31 -76 -63 -105 -117 -108c-15 0 -20 4 -17 20l5 24c3 15 9 19 24 20c25 1 49 36 57 76s4 32 -6 523z" />
    <glyph glyph-name="uni044E" unicode="&#x44e;" horiz-adv-x="483" 
d="M208 197c4 20 4 20 -16 20h-7c-20 0 -20 0 -24 -20l-35 -177c-3 -15 -8 -20 -23 -20h-28c-15 0 -20 5 -17 20l90 460c3 15 9 20 24 20h28c15 0 19 -5 16 -20l-35 -179c-4 -20 -4 -20 16 -20h7c20 0 20 0 24 20l5 27c26 133 97 176 168 176s126 -43 100 -176l-30 -156
c-26 -133 -97 -176 -168 -176s-126 43 -100 176zM305 347l-38 -194c-13 -66 11 -93 48 -93s71 27 84 93l38 194c13 66 -11 93 -48 93s-71 -27 -84 -93z" />
    <glyph glyph-name="uni0455" unicode="&#x455;" horiz-adv-x="316" 
d="M350 390c-3 -17 -9 -20 -24 -20h-23c-10 0 -15 1 -14 17c3 33 -19 53 -45 53c-28 0 -58 -23 -65 -55c-17 -90 167 -123 134 -262c-17 -74 -87 -127 -157 -127c-75 0 -118 57 -107 128c3 18 8 20 21 20h28c14 0 19 -5 17 -20c-4 -35 16 -64 53 -64c38 0 74 29 82 69
c19 96 -159 131 -134 258c13 67 76 117 138 117c59 0 106 -41 96 -114z" />
    <glyph glyph-name="uni0442" unicode="&#x442;" horiz-adv-x="306" 
d="M113 480c3 15 9 20 24 20h226c15 0 19 -5 16 -20l-5 -24c-3 -15 -9 -20 -24 -20h-59c-20 0 -20 0 -24 -20l-77 -396c-3 -15 -8 -20 -23 -20h-28c-15 0 -20 5 -17 20l77 396c4 20 4 20 -15 20h-60c-15 0 -19 5 -16 20z" />
    <glyph glyph-name="uni0453" unicode="&#x453;" horiz-adv-x="237" 
d="M280 428c-7 2 -14 5 -23 5c-49 0 -60 -52 -70 -102l-61 -311c-3 -15 -8 -20 -23 -20h-28c-15 0 -20 5 -17 20l90 460c3 15 9 20 24 20h28c15 0 19 -5 16 -20l-3 -12c28 23 57 31 79 32h2c15 0 19 -5 16 -20l-6 -32c-3 -15 -10 -24 -24 -20zM186 549c-7 0 -9 3 -8 10
l19 98c4 17 10 21 25 21h38c15 0 19 -8 8 -27l-46 -85c-8 -15 -11 -17 -21 -17h-15z" />
    <glyph glyph-name="uni0458" unicode="&#x458;" horiz-adv-x="178" 
d="M-3 -116c36 2 43 43 55 104l96 492c3 15 9 20 24 20h28c15 0 19 -5 16 -20l-90 -461c-21 -108 -38 -199 -141 -199c-15 0 -20 5 -17 20l5 24c3 15 9 19 24 20zM162 584c4 21 26 39 47 39c22 0 35 -18 31 -39c-4 -22 -25 -39 -47 -39c-21 0 -35 17 -31 39z" />
    <glyph glyph-name="uni045F" unicode="&#x45f;" horiz-adv-x="372" 
d="M155 64h86c20 0 20 0 24 20l77 396c3 15 9 20 24 20h28c15 0 19 -5 16 -20l-90 -460c-3 -15 -8 -20 -23 -20h-50c-20 0 -27 0 -31 -20l-9 -45c-3 -15 -9 -20 -24 -20h-28c-15 0 -19 5 -16 20l9 45c4 20 -3 20 -23 20h-50c-15 0 -20 5 -17 20l90 460c3 15 9 20 24 20h28
c15 0 19 -5 16 -20l-77 -396c-4 -20 -4 -20 16 -20z" />
    <glyph glyph-name="uni045E" unicode="&#x45e;" horiz-adv-x="334" 
d="M120 483c0 14 4 17 21 17h28c13 0 19 0 19 -15v-354c0 -5 6 -5 8 0l138 354c6 15 12 15 25 15h28c17 0 19 -3 13 -17l-226 -555c-31 -76 -63 -105 -117 -108c-15 0 -20 4 -17 20l5 24c3 15 9 19 24 20c25 1 49 36 57 76s4 32 -6 523zM231 657c-11 -85 104 -87 126 0
c5 17 9 17 24 17h12c13 0 20 0 15 -17c-34 -149 -252 -151 -228 0c3 17 10 17 23 17h12c15 0 19 0 16 -17z" />
    <glyph glyph-name="uni043B" unicode="&#x43b;" horiz-adv-x="397" 
d="M28 45c3 15 9 19 24 20c53 6 63 41 75 101l61 314c3 15 9 20 24 20h207c15 0 19 -5 16 -20l-90 -460c-3 -15 -8 -20 -23 -20h-28c-15 0 -20 5 -17 20l77 396c4 20 4 20 -16 20h-71c-20 0 -20 0 -24 -20l-46 -236c-19 -100 -48 -176 -157 -180c-16 -1 -20 5 -17 20z" />
    <glyph glyph-name="uni0451" unicode="&#x451;" horiz-adv-x="358" 
d="M157 227l-15 -74c-13 -66 11 -93 48 -93c35 0 66 25 80 75c4 18 9 20 22 20h27c17 0 20 -7 14 -29c-19 -67 -69 -130 -155 -130c-71 0 -126 43 -100 176l30 156c26 133 97 176 168 176s126 -43 100 -176l-12 -62c-3 -15 -9 -20 -24 -20h-160c-20 0 -20 0 -23 -19z
M264 440c-37 0 -71 -27 -84 -93l-3 -17c-4 -20 -4 -20 16 -20h92c20 0 20 0 24 20l3 17c13 66 -11 93 -48 93zM197 584c4 21 25 39 47 39c21 0 35 -18 31 -39c-4 -22 -25 -39 -46 -39c-22 0 -36 17 -32 39zM308 584c4 21 26 39 47 39c22 0 35 -18 31 -39
c-4 -22 -24 -39 -46 -39c-21 0 -36 17 -32 39z" />
    <glyph glyph-name="uni044A" unicode="&#x44a;" horiz-adv-x="354" 
d="M191 223l-27 -139c-4 -20 -4 -20 16 -20h20c48 0 77 25 89 89c13 65 -6 90 -54 90h-20c-20 0 -20 0 -24 -20zM160 416c4 20 4 20 -16 20h-35c-15 0 -19 5 -16 20l5 24c3 15 9 20 24 20h103c15 0 19 -5 16 -20l-30 -153c-4 -20 -4 -20 16 -20h30c74 0 123 -43 101 -154
c-21 -111 -86 -153 -160 -153h-98c-15 0 -20 5 -17 20z" />
    <glyph glyph-name="uni044C" unicode="&#x44c;" horiz-adv-x="329" 
d="M216 480l-30 -153c-4 -20 -4 -20 16 -20h30c74 0 123 -43 101 -154c-21 -111 -86 -153 -160 -153h-98c-15 0 -20 5 -17 20l90 460c3 15 9 20 24 20h28c15 0 19 -5 16 -20zM166 223l-27 -139c-4 -20 -4 -20 16 -20h20c48 0 77 25 89 89c13 65 -6 90 -54 90h-20
c-20 0 -20 0 -24 -20z" />
    <glyph glyph-name="uni044B" unicode="&#x44b;" horiz-adv-x="483" 
d="M216 480l-30 -153c-4 -20 -4 -20 16 -20h30c74 0 123 -43 101 -154c-21 -111 -86 -153 -160 -153h-98c-15 0 -20 5 -17 20l90 460c3 15 9 20 24 20h28c15 0 19 -5 16 -20zM166 223l-27 -139c-4 -20 -4 -20 16 -20h20c48 0 77 25 89 89c13 65 -6 90 -54 90h-20
c-20 0 -20 0 -24 -20zM521 480l-90 -460c-3 -15 -8 -20 -23 -20h-28c-15 0 -20 5 -17 20l90 460c3 15 9 20 24 20h28c15 0 19 -5 16 -20z" />
    <glyph glyph-name="uni0432" unicode="&#x432;" horiz-adv-x="349" 
d="M75 0c-15 0 -20 5 -17 20l90 460c3 15 9 20 24 20h98c74 0 124 -32 103 -143c-10 -51 -29 -85 -52 -107c16 -22 20 -57 10 -107c-21 -111 -84 -143 -158 -143h-98zM203 416l-23 -118c-3 -20 -3 -20 17 -20h20c48 0 74 14 87 79c12 64 -9 79 -57 79h-20
c-20 0 -20 0 -24 -20zM162 202l-23 -118c-4 -20 -4 -20 16 -20h20c48 0 75 15 87 79c13 65 -8 79 -56 79h-20c-20 0 -20 0 -24 -20z" />
    <glyph glyph-name="uni043F" unicode="&#x43f;" horiz-adv-x="389" 
d="M330 436h-103c-20 0 -20 0 -24 -20l-77 -396c-3 -15 -8 -20 -23 -20h-28c-15 0 -20 5 -17 20l90 460c3 15 9 20 24 20h239c15 0 19 -5 16 -20l-90 -460c-3 -15 -8 -20 -23 -20h-28c-15 0 -20 5 -17 20l77 396c4 20 4 20 -16 20z" />
    <glyph glyph-name="uni043D" unicode="&#x43d;" horiz-adv-x="377" 
d="M293 204c4 20 4 20 -16 20h-91c-20 0 -20 0 -24 -20l-36 -184c-3 -15 -8 -20 -23 -20h-28c-15 0 -20 5 -17 20l90 460c3 15 9 20 24 20h28c15 0 19 -5 16 -20l-34 -172c-4 -20 -4 -20 16 -20h91c20 0 20 0 24 20l34 172c3 15 9 20 24 20h28c15 0 19 -5 16 -20l-90 -460
c-3 -15 -8 -20 -23 -20h-28c-15 0 -20 5 -17 20z" />
    <glyph glyph-name="uni0448" unicode="&#x448;" horiz-adv-x="494" 
d="M516 500c15 0 19 -5 16 -20l-90 -460c-3 -15 -8 -20 -23 -20h-344c-15 0 -20 5 -17 20l90 460c3 15 9 20 24 20h28c15 0 19 -5 16 -20l-77 -396c-4 -20 -4 -20 16 -20h50c20 0 20 0 24 20l77 396c3 15 9 20 24 20h28c15 0 19 -5 16 -20l-77 -396c-4 -20 -4 -20 16 -20h50
c20 0 20 0 24 20l77 396c3 15 9 20 24 20h28z" />
    <glyph glyph-name="uni0449" unicode="&#x449;" horiz-adv-x="527" 
d="M75 0c-15 0 -20 5 -17 20l90 460c3 15 9 20 24 20h28c15 0 19 -5 16 -20l-77 -396c-4 -20 -4 -20 16 -20h50c20 0 20 0 24 20l77 396c3 15 9 20 24 20h28c15 0 19 -5 16 -20l-77 -396c-4 -20 -4 -20 16 -20h50c20 0 20 0 24 20l77 396c3 15 9 20 24 20h28
c15 0 19 -5 16 -20l-77 -396c-4 -20 -4 -20 16 -20h28c15 0 19 -5 16 -20l-21 -109c-3 -15 -9 -20 -24 -20h-28c-15 0 -19 5 -16 20l9 45c4 20 4 20 -16 20h-344z" />
    <glyph glyph-name="uni0447" unicode="&#x447;" horiz-adv-x="349" 
d="M252 238c20 0 20 0 24 20l43 222c3 15 9 20 24 20h28c15 0 19 -5 16 -20l-90 -460c-3 -15 -8 -20 -23 -20h-28c-15 0 -20 5 -17 20l26 134c4 20 4 20 -16 20h-21c-83 0 -143 34 -119 157l29 149c3 15 9 20 24 20h28c15 0 19 -5 16 -20l-26 -132c-17 -90 6 -110 61 -110
h21z" />
    <glyph glyph-name="uni044D" unicode="&#x44d;" horiz-adv-x="353" 
d="M173 -4c-76 0 -117 62 -104 130c4 22 9 29 26 29h28c13 0 17 -2 14 -20c-10 -51 18 -75 48 -75c37 0 71 27 84 93l12 59c0 5 -3 7 -9 7h-45c-15 0 -19 5 -16 20l4 22c3 15 9 20 24 20h45c8 0 11 2 12 10l11 56c13 66 -11 93 -48 93c-30 0 -68 -24 -78 -75
c-3 -18 -8 -20 -21 -20h-28c-17 0 -19 7 -15 29c13 68 78 130 154 130c71 0 126 -43 100 -176l-30 -156c-26 -133 -97 -176 -168 -176z" />
    <glyph glyph-name="uni0446" unicode="&#x446;" horiz-adv-x="403" 
d="M75 0c-15 0 -20 5 -17 20l90 460c3 15 9 20 24 20h28c15 0 19 -5 16 -20l-77 -396c-4 -20 -4 -20 16 -20h84c20 0 20 0 24 20l77 396c3 15 9 20 24 20h28c15 0 19 -5 16 -20l-77 -396c-4 -20 -4 -20 16 -20h28c15 0 19 -5 16 -20l-21 -109c-3 -15 -9 -20 -24 -20h-28
c-15 0 -19 5 -16 20l9 45c4 20 4 20 -16 20h-220z" />
    <glyph glyph-name="uni044F" unicode="&#x44f;" horiz-adv-x="349" 
d="M229 20l30 153c4 20 4 20 -16 20h-25c-8 0 -14 -1 -20 -13l-79 -162c-7 -14 -12 -18 -25 -18h-32c-15 0 -18 8 -13 20l95 192c-32 22 -46 65 -32 135c22 111 87 153 161 153h98c15 0 19 -5 16 -20l-90 -460c-3 -15 -8 -20 -23 -20h-28c-15 0 -20 5 -17 20zM279 277
l27 139c4 20 4 20 -16 20h-20c-48 0 -77 -25 -89 -89c-13 -65 6 -90 54 -90h20c20 0 20 0 24 20z" />
    <glyph glyph-name="uni0459" unicode="&#x459;" horiz-adv-x="548" 
d="M354 416c4 20 4 20 -16 20h-71c-20 0 -20 0 -24 -20l-46 -236c-19 -100 -48 -176 -157 -180c-16 -1 -20 5 -17 20l5 25c3 15 9 19 24 20c53 6 63 41 75 101l61 314c3 15 9 20 24 20h207c15 0 19 -5 16 -20l-30 -153c-4 -20 -4 -20 16 -20h30c74 0 123 -43 101 -154
c-21 -111 -86 -153 -160 -153h-98c-15 0 -20 5 -17 20zM385 223l-27 -139c-4 -20 -4 -20 16 -20h20c48 0 77 25 89 89c13 65 -6 90 -54 90h-20c-20 0 -20 0 -24 -20z" />
    <glyph glyph-name="uni045A" unicode="&#x45a;" horiz-adv-x="522" 
d="M379 327c-4 -20 -4 -20 16 -20h30c74 0 123 -43 101 -154c-21 -111 -86 -153 -160 -153h-98c-15 0 -20 5 -17 20l77 396c4 20 4 20 -16 20h-85c-20 0 -20 0 -24 -20l-77 -396c-3 -15 -8 -20 -23 -20h-28c-15 0 -20 5 -17 20l90 460c3 15 9 20 24 20h221
c15 0 19 -5 16 -20zM359 223l-27 -139c-4 -20 -4 -20 16 -20h20c48 0 77 25 89 89c13 65 -6 90 -54 90h-20c-20 0 -20 0 -24 -20z" />
    <glyph glyph-name="uni0454" unicode="&#x454;" horiz-adv-x="353" 
d="M178 -4c-71 0 -126 43 -100 176l30 156c26 133 97 176 168 176c76 0 117 -62 104 -130c-4 -22 -8 -29 -25 -29h-28c-13 0 -18 2 -15 20c10 51 -18 75 -48 75c-37 0 -71 -27 -84 -93l-11 -56c-1 -8 0 -10 8 -10h45c15 0 19 -5 16 -20l-4 -22c-3 -15 -9 -20 -24 -20h-45
c-6 0 -9 -2 -11 -7l-12 -59c-13 -66 11 -93 48 -93c30 0 68 24 78 75c3 18 9 20 22 20h28c17 0 18 -7 14 -29c-13 -68 -78 -130 -154 -130z" />
    <glyph glyph-name="uni0437" unicode="&#x437;" horiz-adv-x="351" 
d="M265 137c16 80 -27 82 -51 82h-4c-12 1 -15 6 -12 20l4 22c3 15 9 20 24 20c24 0 68 2 83 82c11 56 -17 77 -50 77c-30 0 -68 -24 -78 -75c-3 -18 -8 -20 -21 -20h-28c-17 0 -19 7 -15 29c13 68 78 130 154 130c68 0 118 -43 105 -138c-10 -64 -35 -94 -57 -113
c-2 -1 -3 -2 -3 -3s1 -2 2 -3c15 -19 28 -48 13 -113c-24 -97 -91 -138 -158 -138c-76 0 -117 62 -104 130c4 22 9 29 26 29h28c13 0 17 -2 14 -20c-10 -51 18 -75 48 -75c33 0 69 21 80 77z" />
    <glyph glyph-name="uni0438" unicode="&#x438;" horiz-adv-x="383" 
d="M104 0h-29c-15 0 -20 5 -17 20l90 460c3 15 9 20 24 20h28c15 0 19 -5 16 -20l-57 -293c-1 -5 5 -6 8 -1l186 301c9 13 12 13 23 13h29c15 0 19 -5 16 -20l-90 -460c-3 -15 -8 -20 -23 -20h-28c-15 0 -20 5 -17 20l57 292c1 5 -5 6 -8 1l-186 -301
c-7 -12 -11 -12 -22 -12z" />
    <glyph glyph-name="uni0439" unicode="&#x439;" horiz-adv-x="383" 
d="M104 0h-29c-15 0 -20 5 -17 20l90 460c3 15 9 20 24 20h28c15 0 19 -5 16 -20l-57 -293c-1 -5 5 -6 8 -1l186 301c9 13 12 13 23 13h29c15 0 19 -5 16 -20l-90 -460c-3 -15 -8 -20 -23 -20h-28c-15 0 -20 5 -17 20l57 292c1 5 -5 6 -8 1l-186 -301
c-7 -12 -11 -12 -22 -12zM261 657c-11 -85 104 -87 126 0c5 17 9 17 24 17h12c13 0 20 0 15 -17c-34 -149 -252 -151 -228 0c3 17 10 17 23 17h12c15 0 19 0 16 -17z" />
    <glyph glyph-name="uni043C" unicode="&#x43c;" horiz-adv-x="450" 
d="M254 177c1 -6 7 -6 10 0l172 310c8 13 12 13 23 13h13c15 0 19 -5 16 -20l-90 -460c-3 -15 -8 -20 -23 -20h-28c-15 0 -20 5 -17 20l44 226c1 5 -5 6 -7 1l-137 -244c-3 -4 -9 -4 -10 0l-41 244c-2 5 -8 4 -9 -1l-44 -226c-3 -15 -8 -20 -23 -20h-28c-15 0 -20 5 -17 20
l90 460c3 15 9 20 24 20h13c11 0 15 0 17 -13z" />
    <glyph glyph-name="uni043A" unicode="&#x43a;" horiz-adv-x="321" 
d="M391 479l-160 -229l71 -229c4 -15 -7 -21 -15 -21h-35c-13 0 -15 1 -20 15l-60 184c-1 7 -10 6 -11 -2l-35 -177c-3 -15 -8 -20 -23 -20h-28c-10 0 -20 0 -17 20l90 460c3 15 9 20 24 20h28c15 0 19 -5 16 -20l-35 -177c-1 -8 7 -9 11 -2l132 184c9 14 12 15 25 15h35
c8 0 16 -6 7 -21z" />
    <glyph glyph-name="uni0445" unicode="&#x445;" horiz-adv-x="321" 
d="M282 0h-28c-16 0 -22 3 -26 20l-35 150l-94 -150c-10 -17 -16 -20 -32 -20h-28c-13 0 -15 7 -8 20l143 230l-53 230c-3 12 1 20 16 20h28c18 0 21 -5 24 -20l34 -151l95 151c9 15 14 20 32 20h28c15 0 15 -8 8 -20l-144 -230l54 -230c3 -13 -1 -20 -14 -20z" />
    <glyph glyph-name="uni045C" unicode="&#x45c;" horiz-adv-x="321" 
d="M391 479l-160 -229l71 -229c4 -15 -7 -21 -15 -21h-35c-13 0 -15 1 -20 15l-60 184c-1 7 -10 6 -11 -2l-35 -177c-3 -15 -8 -20 -23 -20h-28c-10 0 -20 0 -17 20l90 460c3 15 9 20 24 20h28c15 0 19 -5 16 -20l-35 -177c-1 -8 7 -9 11 -2l132 184c9 14 12 15 25 15h35
c8 0 16 -6 7 -21zM267 549c-7 0 -9 3 -8 10l19 98c4 17 10 21 25 21h38c15 0 19 -8 8 -27l-46 -85c-8 -15 -11 -17 -21 -17h-15z" />
    <glyph glyph-name="uni045B" unicode="&#x45b;" horiz-adv-x="401" 
d="M272 638c-4 -20 -4 -20 16 -20h35c15 0 19 -5 16 -20l-5 -24c-3 -15 -9 -20 -24 -20h-35c-20 0 -20 0 -24 -20l-14 -73c28 31 60 43 88 43c71 0 120 -43 94 -176l-27 -138c-29 -150 -88 -190 -163 -190c-6 0 -14 0 -7 21l9 30c5 13 10 13 14 13c50 0 65 50 75 101l35 182
c13 66 -15 93 -52 93c-35 0 -75 -26 -88 -94l-64 -326c-3 -15 -8 -20 -23 -20h-28c-15 0 -20 5 -17 20l100 514c4 20 4 20 -15 20h-36c-15 0 -19 5 -16 20l5 24c3 15 9 20 24 20h36c19 0 19 0 23 20l8 42c3 15 9 20 24 20h28c15 0 19 -5 16 -20z" />
    <glyph glyph-name="uni0452" unicode="&#x452;" horiz-adv-x="401" 
d="M272 638c-4 -20 -4 -20 16 -20h35c15 0 19 -5 16 -20l-5 -24c-3 -15 -9 -20 -24 -20h-35c-20 0 -20 0 -24 -20l-14 -73c28 31 60 43 88 43c71 0 120 -43 94 -176l-44 -226c-29 -150 -89 -190 -164 -190c-6 0 -14 0 -7 21l10 30c5 13 10 13 14 13c50 0 65 50 74 101
l53 270c13 66 -15 93 -52 93c-35 0 -75 -26 -88 -94l-64 -326c-3 -15 -8 -20 -23 -20h-28c-15 0 -20 5 -17 20l100 514c4 20 4 20 -15 20h-36c-15 0 -19 5 -16 20l5 24c3 15 9 20 24 20h36c19 0 19 0 23 20l8 42c3 15 9 20 24 20h28c15 0 19 -5 16 -20z" />
    <glyph glyph-name="uni0444" unicode="&#x444;" horiz-adv-x="500" 
d="M226 -49c-15 0 -19 5 -16 20l2 9c4 20 4 20 -16 20h-1c-83 0 -141 47 -117 170l31 160c24 123 92 170 175 170h9c20 0 20 0 24 20l1 9c3 15 9 20 24 20h28c15 0 19 -5 16 -20l-1 -9c-4 -20 -4 -20 16 -20h9c83 0 133 -47 109 -170l-31 -160c-24 -123 -100 -170 -183 -170
h-1c-20 0 -20 0 -24 -20l-2 -9c-3 -15 -9 -20 -24 -20h-28zM207 64h1c20 0 20 0 24 20l64 332c4 20 4 20 -16 20h-1c-55 0 -88 -33 -106 -123l-24 -126c-18 -90 3 -123 58 -123zM317 64c55 0 88 33 106 123l24 126c18 90 -3 123 -58 123h-1c-20 0 -20 0 -24 -20l-64 -332
c-4 -20 -4 -20 16 -20h1z" />
    <glyph glyph-name="uni0434" unicode="&#x434;" horiz-adv-x="435" 
d="M363 84c-4 -20 -4 -20 16 -20h28c15 0 19 -5 16 -20l-21 -109c-3 -15 -9 -20 -24 -20h-28c-15 0 -19 5 -16 20l9 45c4 20 4 20 -16 20h-224c-10 0 -16 -5 -18 -15l-10 -50c-3 -15 -9 -20 -24 -20h-28c-15 0 -19 5 -16 20l21 109c3 15 9 20 24 20h39s99 120 156 416
c3 15 9 20 24 20h153c15 0 19 -5 16 -20zM304 421c-54 -239 -133 -357 -133 -357h100c20 0 20 0 24 20l65 337c2 10 -2 15 -12 15h-26c-10 0 -16 -5 -18 -15z" />
    <glyph glyph-name="uni0457" unicode="&#x457;" horiz-adv-x="178" 
d="M216 480l-90 -460c-3 -15 -8 -20 -23 -20h-28c-15 0 -20 5 -17 20l90 460c3 15 9 20 24 20h28c15 0 19 -5 16 -20zM108 584c4 21 25 39 47 39c21 0 35 -18 31 -39c-4 -22 -25 -39 -46 -39c-22 0 -36 17 -32 39zM219 584c4 21 26 39 47 39c22 0 35 -18 31 -39
c-4 -22 -24 -39 -46 -39c-21 0 -36 17 -32 39z" />
    <glyph glyph-name="uni0456" unicode="&#x456;" horiz-adv-x="178" 
d="M216 480l-90 -460c-3 -15 -8 -20 -23 -20h-28c-15 0 -20 5 -17 20l90 460c3 15 9 20 24 20h28c15 0 19 -5 16 -20zM163 584c4 21 26 39 47 39c22 0 35 -18 31 -39c-4 -22 -25 -39 -47 -39c-21 0 -35 17 -31 39z" />
    <glyph glyph-name="a.salt" 
d="M282 153l38 193c13 68 -17 94 -52 94c-37 0 -75 -27 -88 -93l-38 -194c-13 -66 15 -93 52 -93c35 0 75 27 88 93zM414 480l-90 -460c-3 -15 -8 -20 -23 -20h-28c-15 0 -20 5 -17 20l4 18c-28 -30 -60 -42 -88 -42c-71 0 -120 43 -94 176l30 156c26 133 91 176 162 176
c28 0 56 -12 72 -43l4 19c3 15 9 20 24 20h28c15 0 19 -5 16 -20z" />
    <glyph glyph-name="aacute.salt" 
d="M282 153l38 193c13 68 -17 94 -52 94c-37 0 -75 -27 -88 -93l-38 -194c-13 -66 15 -93 52 -93c35 0 75 27 88 93zM414 480l-90 -460c-3 -15 -8 -20 -23 -20h-28c-15 0 -20 5 -17 20l4 18c-28 -30 -60 -42 -88 -42c-71 0 -120 43 -94 176l30 156c26 133 91 176 162 176
c28 0 56 -12 72 -43l4 19c3 15 9 20 24 20h28c15 0 19 -5 16 -20zM276 549c-7 0 -9 3 -8 10l19 98c4 17 10 21 25 21h38c15 0 19 -8 8 -27l-46 -85c-8 -15 -11 -17 -21 -17h-15z" />
    <glyph glyph-name="abreve.salt" 
d="M282 153l38 193c13 68 -17 94 -52 94c-37 0 -75 -27 -88 -93l-38 -194c-13 -66 15 -93 52 -93c35 0 75 27 88 93zM414 480l-90 -460c-3 -15 -8 -20 -23 -20h-28c-15 0 -20 5 -17 20l4 18c-28 -30 -60 -42 -88 -42c-71 0 -120 43 -94 176l30 156c26 133 91 176 162 176
c28 0 56 -12 72 -43l4 19c3 15 9 20 24 20h28c15 0 19 -5 16 -20zM245 657c-11 -85 104 -87 126 0c5 17 9 17 24 17h12c13 0 20 0 15 -17c-34 -149 -252 -151 -228 0c3 17 10 17 23 17h12c15 0 19 0 16 -17z" />
    <glyph glyph-name="acircumflex.salt" 
d="M282 153l38 193c13 68 -17 94 -52 94c-37 0 -75 -27 -88 -93l-38 -194c-13 -66 15 -93 52 -93c35 0 75 27 88 93zM414 480l-90 -460c-3 -15 -8 -20 -23 -20h-28c-15 0 -20 5 -17 20l4 18c-28 -30 -60 -42 -88 -42c-71 0 -120 43 -94 176l30 156c26 133 91 176 162 176
c28 0 56 -12 72 -43l4 19c3 15 9 20 24 20h28c15 0 19 -5 16 -20zM319 560l-11 67c-1 5 -5 5 -8 0l-37 -67c-4 -6 -8 -11 -16 -11h-43c-13 0 -12 10 -5 18l84 104c6 7 9 7 16 7h28c7 0 10 0 14 -7l44 -104c3 -8 0 -18 -13 -18h-43c-8 0 -10 5 -10 11z" />
    <glyph glyph-name="adieresis.salt" 
d="M282 153l38 193c13 68 -17 94 -52 94c-37 0 -75 -27 -88 -93l-38 -194c-13 -66 15 -93 52 -93c35 0 75 27 88 93zM414 480l-90 -460c-3 -15 -8 -20 -23 -20h-28c-15 0 -20 5 -17 20l4 18c-28 -30 -60 -42 -88 -42c-71 0 -120 43 -94 176l30 156c26 133 91 176 162 176
c28 0 56 -12 72 -43l4 19c3 15 9 20 24 20h28c15 0 19 -5 16 -20zM201 584c4 21 25 39 47 39c21 0 35 -18 31 -39c-4 -22 -25 -39 -46 -39c-22 0 -36 17 -32 39zM312 584c4 21 26 39 47 39c22 0 35 -18 31 -39c-4 -22 -24 -39 -46 -39c-21 0 -36 17 -32 39z" />
    <glyph glyph-name="agrave.salt" 
d="M282 153l38 193c13 68 -17 94 -52 94c-37 0 -75 -27 -88 -93l-38 -194c-13 -66 15 -93 52 -93c35 0 75 27 88 93zM414 480l-90 -460c-3 -15 -8 -20 -23 -20h-28c-15 0 -20 5 -17 20l4 18c-28 -30 -60 -42 -88 -42c-71 0 -120 43 -94 176l30 156c26 133 91 176 162 176
c28 0 56 -12 72 -43l4 19c3 15 9 20 24 20h28c15 0 19 -5 16 -20zM297 549h-15c-10 0 -13 2 -21 17l-46 85c-11 19 -7 27 8 27h38c15 0 21 -4 25 -21l19 -98c1 -7 -1 -10 -8 -10z" />
    <glyph glyph-name="amacron.salt" 
d="M282 153l38 193c13 68 -17 94 -52 94c-37 0 -75 -27 -88 -93l-38 -194c-13 -66 15 -93 52 -93c35 0 75 27 88 93zM414 480l-90 -460c-3 -15 -8 -20 -23 -20h-28c-15 0 -20 5 -17 20l4 18c-28 -30 -60 -42 -88 -42c-71 0 -120 43 -94 176l30 156c26 133 91 176 162 176
c28 0 56 -12 72 -43l4 19c3 15 9 20 24 20h28c15 0 19 -5 16 -20zM196 587c3 15 9 20 24 20h159c15 0 19 -5 16 -20l-4 -18c-3 -15 -9 -20 -24 -20h-159c-15 0 -19 5 -16 20z" />
    <glyph glyph-name="aogonek.salt" 
d="M414 480l-90 -460c-3 -15 -8 -20 -22 -20c-30 -31 -47 -69 3 -79c6 -1 9 -5 5 -14c-5 -15 -9 -24 -15 -36c-3 -8 -7 -9 -14 -8c-63 11 -83 63 -41 119c3 5 10 14 18 22c-3 3 -4 8 -2 16l4 18c-28 -30 -60 -42 -88 -42c-71 0 -120 43 -94 176l30 156
c26 133 91 176 162 176c28 0 56 -12 72 -43l4 19c3 15 9 20 24 20h28c15 0 19 -5 16 -20zM282 153l38 193c13 68 -17 94 -52 94c-37 0 -75 -27 -88 -93l-38 -194c-13 -66 15 -93 52 -93c35 0 75 27 88 93z" />
    <glyph glyph-name="aring.salt" 
d="M282 153l38 193c13 68 -17 94 -52 94c-37 0 -75 -27 -88 -93l-38 -194c-13 -66 15 -93 52 -93c35 0 75 27 88 93zM414 480l-90 -460c-3 -15 -8 -20 -23 -20h-28c-15 0 -20 5 -17 20l4 18c-28 -30 -60 -42 -88 -42c-71 0 -120 43 -94 176l30 156c26 133 91 176 162 176
c28 0 56 -12 72 -43l4 19c3 15 9 20 24 20h28c15 0 19 -5 16 -20zM288 545c-45 0 -76 38 -67 83c9 46 54 84 99 84c46 0 77 -38 68 -84c-9 -45 -54 -83 -100 -83zM265 628c-5 -22 10 -39 31 -39c22 0 42 17 47 39c4 21 -10 39 -32 39c-21 0 -42 -18 -46 -39z" />
    <glyph glyph-name="atilde.salt" 
d="M282 153l38 193c13 68 -17 94 -52 94c-37 0 -75 -27 -88 -93l-38 -194c-13 -66 15 -93 52 -93c35 0 75 27 88 93zM414 480l-90 -460c-3 -15 -8 -20 -23 -20h-28c-15 0 -20 5 -17 20l4 18c-28 -30 -60 -42 -88 -42c-71 0 -120 43 -94 176l30 156c26 133 91 176 162 176
c28 0 56 -12 72 -43l4 19c3 15 9 20 24 20h28c15 0 19 -5 16 -20zM326 545c-30 3 -55 33 -75 33c-16 0 -24 -11 -31 -26c-2 -3 -3 -7 -9 -7h-40c-4 0 -7 1 -5 6c16 42 47 80 101 76c29 -2 54 -33 74 -33c16 0 24 11 31 26c2 3 4 7 10 7h40c4 0 6 -1 4 -6
c-16 -42 -47 -81 -100 -76z" />
    <glyph glyph-name="uni0430.salt" horiz-adv-x="360" 
d="M260 32c-27 -22 -63 -36 -95 -36c-72 0 -116 44 -98 133l6 31c29 150 199 110 235 193c20 47 2 87 -43 87c-30 0 -68 -24 -78 -75c-3 -18 -8 -20 -21 -20h-28c-15 0 -18 5 -17 20c9 71 77 139 156 139c55 0 123 -40 103 -140l-55 -285c-5 -26 -4 -45 -4 -59
c0 -15 -8 -20 -23 -20h-22c-15 0 -18 4 -16 32zM195 60c35 3 62 19 73 77l25 128c-76 -30 -139 -34 -155 -117l-2 -11c-10 -52 8 -81 59 -77z" />
    <glyph glyph-name="d.salt" horiz-adv-x="368" 
d="M261 84l64 332c4 20 4 20 -16 20h-30c-55 0 -88 -33 -106 -123l-24 -126c-18 -90 3 -123 58 -123h30c20 0 20 0 24 20zM346 520l31 160c3 15 9 20 24 20h28c15 0 19 -5 16 -20l-129 -660c-3 -15 -8 -20 -23 -20h-98c-83 0 -141 47 -117 170l31 160
c24 123 100 170 183 170h30c20 0 20 0 24 20z" />
    <glyph glyph-name="dcaron.salt" horiz-adv-x="466" 
d="M494 711c4 20 24 39 46 39c39 0 60 -59 -35 -143c-3 -3 -5 -5 -10 -2l-9 7c-3 3 -3 6 0 10c56 61 -1 46 8 89zM261 84l64 332c4 20 4 20 -16 20h-30c-55 0 -88 -33 -106 -123l-24 -126c-18 -90 3 -123 58 -123h30c20 0 20 0 24 20zM346 520l31 160c3 15 9 20 24 20h28
c15 0 19 -5 16 -20l-129 -660c-3 -15 -8 -20 -23 -20h-98c-83 0 -141 47 -117 170l31 160c24 123 100 170 183 170h30c20 0 20 0 24 20z" />
    <glyph glyph-name="dcroat.salt" horiz-adv-x="368" 
d="M418 541l-102 -521c-3 -15 -8 -20 -23 -20h-98c-83 0 -141 47 -117 170l31 160c24 123 100 170 183 170h30c20 0 20 0 24 20l4 21c1 8 0 10 -8 10h-122c-15 0 -19 5 -17 20l5 22c3 15 9 20 24 20h122c8 0 10 2 12 10l11 57c3 15 9 20 24 20h28c15 0 19 -5 16 -20l-11 -57
c-2 -8 0 -10 8 -10c15 0 19 -5 16 -20l-5 -22c-2 -15 -8 -20 -23 -20c-8 0 -11 -2 -12 -10zM261 84l64 332c4 20 4 20 -16 20h-30c-55 0 -88 -33 -106 -123l-24 -126c-18 -90 3 -123 58 -123h30c20 0 20 0 24 20z" />
    <glyph glyph-name="g.salt" 
d="M36 -134c3 12 9 18 24 18h88c55 0 88 33 106 123l6 32c-28 -31 -60 -43 -88 -43c-71 0 -120 43 -94 176l30 156c26 133 91 176 162 176c28 0 56 -12 72 -42l4 18c3 15 9 20 24 20h28c15 0 19 -5 16 -20l-95 -490c-24 -123 -100 -170 -183 -170h-88c-15 0 -20 5 -17 20z
M282 154l38 193c13 66 -17 93 -52 93c-37 0 -75 -27 -88 -93l-38 -194c-13 -66 15 -93 52 -93c35 0 75 26 88 94z" />
    <glyph glyph-name="gbreve.salt" 
d="M36 -134c3 12 9 18 24 18h88c55 0 88 33 106 123l6 32c-28 -31 -60 -43 -88 -43c-71 0 -120 43 -94 176l30 156c26 133 91 176 162 176c28 0 56 -12 72 -42l4 18c3 15 9 20 24 20h28c15 0 19 -5 16 -20l-95 -490c-24 -123 -100 -170 -183 -170h-88c-15 0 -20 5 -17 20z
M282 154l38 193c13 66 -17 93 -52 93c-37 0 -75 -27 -88 -93l-38 -194c-13 -66 15 -93 52 -93c35 0 75 26 88 94zM245 657c-11 -85 104 -87 126 0c5 17 9 17 24 17h12c13 0 20 0 15 -17c-34 -149 -252 -151 -228 0c3 17 10 17 23 17h12c15 0 19 0 16 -17z" />
    <glyph glyph-name="gcircumflex.salt" 
d="M36 -134c3 12 9 18 24 18h88c55 0 88 33 106 123l6 32c-28 -31 -60 -43 -88 -43c-71 0 -120 43 -94 176l30 156c26 133 91 176 162 176c28 0 56 -12 72 -42l4 18c3 15 9 20 24 20h28c15 0 19 -5 16 -20l-95 -490c-24 -123 -100 -170 -183 -170h-88c-15 0 -20 5 -17 20z
M282 154l38 193c13 66 -17 93 -52 93c-37 0 -75 -27 -88 -93l-38 -194c-13 -66 15 -93 52 -93c35 0 75 26 88 94zM319 560l-11 67c-1 5 -5 5 -8 0l-37 -67c-4 -6 -8 -11 -16 -11h-43c-13 0 -12 10 -5 18l84 104c6 7 9 7 16 7h28c7 0 10 0 14 -7l44 -104c3 -8 0 -18 -13 -18
h-43c-8 0 -10 5 -10 11z" />
    <glyph glyph-name="gcommaaccent.salt" 
d="M36 -134c3 12 9 18 24 18h88c55 0 88 33 106 123l6 32c-28 -31 -60 -43 -88 -43c-71 0 -120 43 -94 176l30 156c26 133 91 176 162 176c28 0 56 -12 72 -42l4 18c3 15 9 20 24 20h28c15 0 19 -5 16 -20l-95 -490c-24 -123 -100 -170 -183 -170h-88c-15 0 -20 5 -17 20z
M282 154l38 193c13 66 -17 93 -52 93c-37 0 -75 -27 -88 -93l-38 -194c-13 -66 15 -93 52 -93c35 0 75 26 88 94zM335 584c-4 -20 -25 -39 -47 -39c-39 0 -59 59 35 143c3 3 6 5 10 2l9 -7c3 -3 4 -6 0 -10c-56 -61 1 -46 -7 -89z" />
    <glyph glyph-name="gdotaccent.salt" 
d="M36 -134c3 12 9 18 24 18h88c55 0 88 33 106 123l6 32c-28 -31 -60 -43 -88 -43c-71 0 -120 43 -94 176l30 156c26 133 91 176 162 176c28 0 56 -12 72 -42l4 18c3 15 9 20 24 20h28c15 0 19 -5 16 -20l-95 -490c-24 -123 -100 -170 -183 -170h-88c-15 0 -20 5 -17 20z
M282 154l38 193c13 66 -17 93 -52 93c-37 0 -75 -27 -88 -93l-38 -194c-13 -66 15 -93 52 -93c35 0 75 26 88 94zM256 584c4 21 26 39 47 39c22 0 35 -18 31 -39c-4 -22 -24 -39 -46 -39c-21 0 -36 17 -32 39z" />
    <glyph glyph-name="l.salt" horiz-adv-x="178" 
d="M126 20c-3 -15 -8 -20 -23 -20h-28c-15 0 -20 5 -17 20l129 660c3 15 9 20 24 20h28c15 0 19 -5 16 -20z" />
    <glyph glyph-name="lacute.salt" horiz-adv-x="178" 
d="M126 20c0 -1 -1 -2 -1 -3c-2 -9 -5 -14 -12 -16c-1 0 -2 -1 -2 -1h-8h-28c-5 0 -9 0 -12 1l-1 1c-2 1 -3 3 -4 5c-2 3 -1 7 0 13l129 660l3 11c1 0 1 1 1 1c1 1 1 1 1 2h1c0 1 1 1 2 2c0 0 1 0 1 1c4 2 9 3 15 3h28c3 0 6 0 8 -1h1c1 0 1 -1 2 -1s2 -1 3 -2
c3 -3 3 -8 2 -16zM223 735c-7 0 -9 3 -8 10l19 98c4 17 10 21 25 21h38c15 0 19 -8 8 -27l-46 -85c-8 -15 -11 -17 -21 -17h-15z" />
    <glyph glyph-name="lcaron.salt" horiz-adv-x="263" 
d="M126 20c-3 -15 -8 -20 -23 -20h-28c-15 0 -20 5 -17 20l129 660c3 15 9 20 24 20h28c15 0 19 -5 16 -20zM290 712c4 20 25 39 47 39c39 0 59 -59 -35 -143c-4 -3 -6 -5 -11 -2l-8 7c-4 3 -4 6 0 10c56 61 -1 46 7 89z" />
    <glyph glyph-name="lcommaaccent.salt" horiz-adv-x="178" 
d="M126 20c-3 -15 -8 -20 -23 -20h-28c-15 0 -20 5 -17 20l129 660c3 15 9 20 24 20h28c15 0 19 -5 16 -20zM35 -70c4 20 25 39 47 39c39 0 59 -59 -35 -143c-4 -3 -6 -5 -11 -2l-8 7c-4 3 -4 6 0 10c56 61 -1 46 7 89z" />
    <glyph glyph-name="ldot.salt" horiz-adv-x="270" 
d="M126 20c-3 -15 -8 -20 -23 -20h-28c-15 0 -20 5 -17 20l129 660c3 15 9 20 24 20h28c15 0 19 -5 16 -20zM233 368c4 21 26 39 47 39c22 0 35 -18 31 -39c-4 -22 -25 -39 -47 -39c-21 0 -35 17 -31 39z" />
    <glyph glyph-name="lslash.salt" horiz-adv-x="210" 
d="M91 0c-10 0 -20 0 -17 20l51 261l-34 -33c-7 -6 -14 -4 -12 5l12 61c2 15 5 22 16 31l38 36l58 299c3 15 9 20 24 20h28c10 0 20 0 16 -20l-43 -217l35 33c7 6 14 4 12 -5l-12 -61c-3 -15 -5 -22 -16 -31l-38 -36l-67 -343c-3 -15 -8 -20 -23 -20h-28z" />
    <glyph glyph-name="Edieresis" unicode="&#xcb;" horiz-adv-x="341" 
d="M75 0c-15 0 -20 5 -17 20l129 660c3 15 9 20 24 20h201c15 0 19 -5 16 -20l-5 -24c-3 -15 -9 -20 -24 -20h-133c-20 0 -20 0 -24 -20l-38 -195c-4 -20 -4 -20 16 -20h133c15 0 19 -5 17 -20l-5 -24c-3 -15 -9 -20 -24 -20h-133c-20 0 -20 0 -24 -20l-45 -233
c-4 -20 -4 -20 16 -20h133c15 0 19 -5 16 -20l-5 -24c-3 -15 -8 -20 -23 -20h-201zM233 770c4 21 25 39 47 39c21 0 35 -18 31 -39c-4 -22 -25 -39 -46 -39c-22 0 -36 17 -32 39zM344 770c4 21 26 39 47 39c22 0 35 -18 31 -39c-4 -22 -24 -39 -46 -39c-21 0 -36 17 -32 39z
" />
    <glyph glyph-name="Lcaron" unicode="&#x13d;" horiz-adv-x="326" 
d="M75 0c-15 0 -20 5 -17 20l129 660c3 15 9 20 24 20h28c15 0 19 -5 16 -20c-8 -39 -34 -171 -116 -596c-4 -20 -4 -20 16 -20h143c15 0 19 -5 16 -20l-5 -24c-3 -15 -8 -20 -23 -20h-211zM244 786l37 67c3 6 7 11 15 11h43c13 0 13 -10 6 -18l-84 -104
c-7 -7 -10 -7 -17 -7h-28c-7 0 -10 0 -13 7l-44 104c-3 8 -1 18 12 18h43c8 0 10 -5 11 -11l11 -67c1 -5 5 -5 8 0z" />
    <glyph glyph-name="AEacute" unicode="&#x1fc;" horiz-adv-x="491" 
d="M225 0c-15 0 -20 5 -17 20l13 64c4 20 4 20 -16 20h-45c-20 0 -19 0 -27 -20l-26 -69c-5 -15 -11 -15 -24 -15h-30c-10 0 -20 0 -14 17l254 665c6 15 10 18 26 18h243c15 0 19 -5 16 -20l-5 -24c-3 -15 -9 -20 -24 -20h-133c-20 0 -20 0 -24 -20l-38 -195
c-4 -20 -4 -20 16 -20h133c15 0 19 -5 17 -20l-5 -24c-3 -15 -9 -20 -24 -20h-133c-20 0 -20 0 -24 -20l-45 -233c-4 -20 -4 -20 16 -20h133c15 0 19 -5 16 -20l-5 -24c-3 -15 -8 -20 -23 -20h-201zM302 543l-130 -355c-7 -20 -7 -20 13 -20h32c20 0 20 0 24 20l69 355
c0 5 -6 5 -8 0zM426 735c-7 0 -9 3 -8 10l19 98c4 17 10 21 25 21h38c15 0 19 -8 8 -27l-46 -85c-8 -15 -11 -17 -21 -17h-15z" />
    <glyph glyph-name="t" unicode="t" horiz-adv-x="204" 
d="M171 64c15 -1 19 -5 16 -20l-5 -24c-3 -15 -8 -20 -23 -20c-104 0 -87 91 -66 199l42 213c1 8 0 10 -8 10c-15 0 -19 5 -17 20l5 22c3 15 9 20 24 20c8 0 10 2 12 10l18 93c3 15 8 20 23 20h28c15 0 20 -5 17 -20l-18 -93c-2 -8 0 -10 8 -10h18c15 0 19 -5 16 -20l-5 -22
c-2 -15 -8 -20 -23 -20h-18c-8 0 -11 -2 -12 -10l-48 -244c-12 -61 -20 -102 16 -104z" />
    <glyph glyph-name="tbar" unicode="&#x167;" horiz-adv-x="204" 
d="M171 64c15 -1 19 -5 16 -20l-5 -24c-3 -15 -8 -20 -23 -20c-104 0 -87 91 -66 199l16 79c1 8 -1 10 -9 10c-15 0 -19 5 -16 20l5 22c3 15 9 20 24 20c8 0 10 2 11 10l11 52c1 8 0 10 -8 10c-15 0 -19 5 -17 20l5 22c3 15 9 20 24 20c8 0 10 2 12 10l18 93
c3 15 8 20 23 20h28c15 0 20 -5 17 -20l-18 -93c-2 -8 0 -10 8 -10h18c15 0 19 -5 16 -20l-5 -22c-2 -15 -8 -20 -23 -20h-18c-8 0 -11 -2 -12 -10l-11 -52c-1 -8 1 -10 9 -10h18c15 0 19 -5 16 -20l-5 -22c-3 -15 -9 -20 -24 -20h-18c-8 0 -10 -2 -11 -10l-22 -110
c-12 -61 -20 -102 16 -104z" />
    <glyph glyph-name="tcaron" unicode="&#x165;" horiz-adv-x="286" 
d="M171 64c15 -1 19 -5 16 -20l-5 -24c-3 -15 -8 -20 -23 -20c-104 0 -87 91 -66 199l42 213c1 8 0 10 -8 10c-15 0 -19 5 -17 20l5 22c3 15 9 20 24 20c8 0 10 2 12 10l18 93c3 15 8 20 23 20h28c15 0 20 -5 17 -20l-18 -93c-2 -8 0 -10 8 -10h18c15 0 19 -5 16 -20l-5 -22
c-2 -15 -8 -20 -23 -20h-18c-8 0 -11 -2 -12 -10l-48 -244c-12 -61 -20 -102 16 -104zM318 712c4 20 25 39 47 39c39 0 59 -59 -35 -143c-4 -3 -6 -5 -11 -2l-8 7c-4 3 -4 6 0 10c56 61 -1 46 7 89z" />
    <glyph glyph-name="c" unicode="c" horiz-adv-x="355" 
d="M108 328c26 133 97 176 168 176c86 0 112 -63 105 -130c-2 -22 -8 -29 -25 -29h-27c-13 0 -17 2 -15 20c6 50 -15 75 -50 75c-37 0 -71 -27 -84 -93l-38 -194c-13 -66 11 -93 48 -93c35 0 66 25 80 75c4 18 9 20 22 20h27c17 0 20 -7 14 -29c-19 -67 -69 -130 -155 -130
c-71 0 -126 43 -100 176z" />
    <glyph glyph-name="cacute" unicode="&#x107;" horiz-adv-x="355" 
d="M108 328c26 133 97 176 168 176c86 0 112 -63 105 -130c-2 -22 -8 -29 -25 -29h-27c-13 0 -17 2 -15 20c6 50 -15 75 -50 75c-37 0 -71 -27 -84 -93l-38 -194c-13 -66 11 -93 48 -93c35 0 66 25 80 75c4 18 9 20 22 20h27c17 0 20 -7 14 -29c-19 -67 -69 -130 -155 -130
c-71 0 -126 43 -100 176zM276 549c-7 0 -9 3 -8 10l19 98c4 17 10 21 25 21h38c15 0 19 -8 8 -27l-46 -85c-8 -15 -11 -17 -21 -17h-15z" />
    <glyph glyph-name="ccaron" unicode="&#x10d;" horiz-adv-x="355" 
d="M108 328c26 133 97 176 168 176c86 0 112 -63 105 -130c-2 -22 -8 -29 -25 -29h-27c-13 0 -17 2 -15 20c6 50 -15 75 -50 75c-37 0 -71 -27 -84 -93l-38 -194c-13 -66 11 -93 48 -93c35 0 66 25 80 75c4 18 9 20 22 20h27c17 0 20 -7 14 -29c-19 -67 -69 -130 -155 -130
c-71 0 -126 43 -100 176zM299 600l37 67c3 6 7 11 15 11h43c13 0 13 -10 6 -18l-84 -104c-7 -7 -10 -7 -17 -7h-28c-7 0 -10 0 -13 7l-44 104c-3 8 -1 18 12 18h43c8 0 10 -5 11 -11l11 -67c1 -5 5 -5 8 0z" />
    <glyph glyph-name="ccedilla" unicode="&#xe7;" horiz-adv-x="355" 
d="M116 -120l-30 8c-10 3 -10 6 -8 14l52 102c-45 18 -72 67 -52 168l30 156c26 133 97 176 168 176c86 0 112 -63 105 -130c-2 -22 -8 -29 -25 -29h-27c-13 0 -17 2 -15 20c6 50 -15 75 -50 75c-37 0 -71 -27 -84 -93l-38 -194c-13 -66 11 -93 48 -93c35 0 66 25 80 75
c4 18 9 20 22 20h27c17 0 20 -7 14 -29c-19 -66 -67 -127 -150 -130l-24 -50c71 23 110 -30 99 -84c-18 -80 -105 -123 -163 -90c-4 2 -3 7 0 12l19 36c4 8 10 6 13 5c10 -3 17 -4 23 -4c23 0 43 19 48 41c4 20 -10 39 -33 39c-13 0 -25 -6 -35 -16c-5 -5 -6 -7 -14 -5z" />
    <glyph glyph-name="ccircumflex" unicode="&#x109;" horiz-adv-x="355" 
d="M108 328c26 133 97 176 168 176c86 0 112 -63 105 -130c-2 -22 -8 -29 -25 -29h-27c-13 0 -17 2 -15 20c6 50 -15 75 -50 75c-37 0 -71 -27 -84 -93l-38 -194c-13 -66 11 -93 48 -93c35 0 66 25 80 75c4 18 9 20 22 20h27c17 0 20 -7 14 -29c-19 -67 -69 -130 -155 -130
c-71 0 -126 43 -100 176zM316 560l-11 67c-1 5 -5 5 -8 0l-37 -67c-4 -6 -8 -11 -16 -11h-43c-13 0 -12 10 -5 18l84 104c6 7 9 7 16 7h28c7 0 10 0 14 -7l44 -104c3 -8 0 -18 -13 -18h-43c-8 0 -10 5 -10 11z" />
    <glyph glyph-name="cdotaccent" unicode="&#x10b;" horiz-adv-x="355" 
d="M108 328c26 133 97 176 168 176c86 0 112 -63 105 -130c-2 -22 -8 -29 -25 -29h-27c-13 0 -17 2 -15 20c6 50 -15 75 -50 75c-37 0 -71 -27 -84 -93l-38 -194c-13 -66 11 -93 48 -93c35 0 66 25 80 75c4 18 9 20 22 20h27c17 0 20 -7 14 -29c-19 -67 -69 -130 -155 -130
c-71 0 -126 43 -100 176zM252 584c4 21 26 39 47 39c22 0 35 -18 31 -39c-4 -22 -24 -39 -46 -39c-21 0 -36 17 -32 39z" />
    <glyph glyph-name="aeacute" unicode="&#x1fd;" horiz-adv-x="550" 
d="M375 -4c-43 0 -84 17 -96 59c-38 -42 -75 -59 -114 -59c-72 0 -116 44 -98 133l6 31c29 150 199 110 235 193c20 47 2 87 -43 87c-30 0 -68 -24 -78 -75c-3 -18 -8 -20 -21 -20h-28c-15 0 -18 5 -17 20c9 71 77 139 156 139c32 0 68 -14 89 -45c31 32 69 45 107 45
c76 0 121 -43 95 -176l-12 -62c-3 -15 -9 -20 -24 -20h-155c-15 0 -21 -5 -24 -20l-14 -73c-13 -66 11 -93 48 -93c30 0 68 24 78 75c3 15 9 20 22 20h28c17 0 18 -7 14 -29c-13 -68 -78 -130 -154 -130zM195 60c35 3 62 19 73 77l25 128c-76 -30 -139 -34 -155 -117l-2 -11
c-10 -52 8 -81 59 -77zM377 347l-3 -17c-4 -20 -4 -20 16 -20h89c20 0 20 0 24 20l3 17c13 66 -8 93 -45 93s-71 -27 -84 -93zM369 549c-7 0 -9 3 -8 10l19 98c4 17 10 21 25 21h38c15 0 19 -8 8 -27l-46 -85c-8 -15 -11 -17 -21 -17h-15z" />
    <glyph glyph-name="j" unicode="j" horiz-adv-x="178" 
d="M-3 -116c36 2 43 43 55 104l96 492c3 15 9 20 24 20h28c15 0 19 -5 16 -20l-90 -461c-21 -108 -38 -199 -141 -199c-15 0 -20 5 -17 20l5 24c3 15 9 19 24 20zM162 584c4 21 26 39 47 39c22 0 35 -18 31 -39c-4 -22 -25 -39 -47 -39c-21 0 -35 17 -31 39z" />
    <glyph glyph-name="ij" unicode="&#x133;" horiz-adv-x="302" 
d="M216 480l-90 -460c-3 -15 -8 -20 -23 -20h-28c-15 0 -20 5 -17 20l90 460c3 15 9 20 24 20h28c15 0 19 -5 16 -20zM163 584c4 21 26 39 47 39c22 0 35 -18 31 -39c-4 -22 -25 -39 -47 -39c-21 0 -35 17 -31 39zM121 -116c36 2 43 43 55 104l96 492c3 15 9 20 24 20h28
c15 0 19 -5 16 -20l-90 -461c-21 -108 -38 -199 -141 -199c-15 0 -20 5 -17 20l5 24c3 15 9 19 24 20zM286 584c4 21 26 39 47 39c22 0 35 -18 31 -39c-4 -22 -25 -39 -47 -39c-21 0 -35 17 -31 39z" />
    <glyph glyph-name="one" unicode="1" horiz-adv-x="234" 
d="M246 690c1 2 5 10 17 10h32c15 0 19 -5 16 -20l-129 -660c-3 -15 -8 -20 -23 -20h-28c-15 0 -20 5 -17 20l92 470c1 7 -1 10 -8 10h-47c-11 0 -16 7 -7 21z" />
    <glyph glyph-name="four" unicode="4" horiz-adv-x="374" 
d="M315 529l-146 -213c-4 -6 -3 -10 3 -10h98c7 0 11 3 12 10l41 212c1 5 -4 7 -8 1zM292 20c-3 -15 -8 -20 -23 -20h-28c-15 0 -20 5 -17 20l42 214c1 7 -1 10 -8 10h-161c-15 0 -19 5 -16 20l3 14c2 11 3 16 14 32l257 376c7 10 15 14 28 14h22c15 0 19 -5 16 -20
l-71 -364c-1 -6 0 -10 8 -10h5c15 0 19 -5 16 -20l-4 -22c-3 -15 -9 -20 -24 -20h-5c-7 0 -11 -3 -12 -10z" />
    <glyph glyph-name="five" unicode="5" 
d="M75 117c2 32 6 37 23 37h31c13 0 16 -2 15 -20c-5 -42 15 -74 54 -74c37 0 76 27 89 93l38 194c13 66 -15 93 -52 93c-35 0 -75 -27 -88 -93l-5 -23c-2 -15 -8 -20 -23 -20h-28c-15 0 -19 5 -17 20l70 356c3 15 9 20 24 20h236c15 0 19 -5 16 -20l-5 -24
c-3 -15 -9 -20 -24 -20h-168c-17 0 -21 -4 -24 -20l-30 -154c28 30 60 42 88 42c71 0 120 -43 94 -176l-30 -156c-26 -133 -92 -176 -173 -176s-114 45 -111 121z" />
    <glyph glyph-name="six" unicode="6" 
d="M152 528c26 133 92 176 173 176s114 -45 111 -121c-2 -32 -6 -37 -23 -37h-31c-13 0 -16 2 -14 20c4 42 -16 74 -55 74c-37 0 -76 -27 -89 -93l-28 -144c28 30 60 42 88 42c71 0 120 -43 94 -176l-19 -97c-26 -133 -91 -176 -172 -176s-130 43 -104 176zM199 60
c37 0 75 27 88 93l26 135c13 66 -14 93 -51 93c-35 0 -76 -27 -89 -93l-26 -135c-13 -66 15 -93 52 -93z" />
    <glyph glyph-name="seven" unicode="7" horiz-adv-x="328" 
d="M83 20l246 604c4 9 0 12 -6 12h-150c-15 0 -19 5 -16 20l5 24c3 15 9 20 24 20h208c15 0 19 -5 16 -20l-6 -29c-2 -10 -2 -10 -8 -24l-245 -607c-7 -19 -15 -20 -25 -20h-31c-10 0 -19 4 -12 20z" />
    <glyph glyph-name="eight" unicode="8" horiz-adv-x="368" 
d="M183 -4c-71 0 -126 43 -100 176l8 41c14 72 41 117 74 144c-23 26 -32 72 -18 144l5 27c26 133 97 176 168 176s126 -43 100 -176l-5 -27c-14 -72 -42 -118 -75 -144c23 -27 33 -72 19 -144l-8 -41c-26 -133 -97 -176 -168 -176zM247 325c-37 0 -72 -27 -84 -93l-16 -79
c-13 -66 11 -93 48 -93s71 27 84 93l16 79c12 62 -8 93 -48 93zM356 547c13 66 -11 93 -48 93s-71 -27 -84 -93l-13 -65c-12 -63 8 -93 48 -93c37 0 71 27 84 93z" />
    <glyph glyph-name="nine" unicode="9" 
d="M315 297c-28 -30 -60 -42 -88 -42c-71 0 -120 43 -94 176l19 97c26 133 91 176 172 176s130 -43 104 -176l-69 -356c-26 -133 -92 -176 -173 -176s-114 45 -111 121c2 32 6 37 23 37h31c13 0 16 -2 15 -20c-5 -42 15 -74 54 -74c37 0 76 27 89 93zM312 640
c-37 0 -75 -27 -88 -93l-26 -135c-13 -66 15 -93 52 -93c35 0 75 27 88 93l26 135c13 66 -15 93 -52 93z" />
    <glyph glyph-name="cent" unicode="&#xa2;" horiz-adv-x="353" 
d="M142 153c-13 -66 11 -93 48 -93c30 0 68 24 78 75c3 18 9 20 22 20h28c17 0 18 -7 14 -29c-11 -58 -59 -110 -119 -126l-8 -38c-3 -15 -9 -20 -24 -20h-28c-15 0 -19 5 -16 20l8 38c-54 12 -89 61 -67 172l30 156c22 111 75 159 134 172l7 38c3 15 9 20 24 20h28
c15 0 19 -5 16 -20l-8 -39c55 -15 82 -68 71 -125c-4 -22 -8 -29 -25 -29h-28c-13 0 -18 2 -15 20c10 51 -18 75 -48 75c-37 0 -71 -27 -84 -93z" />
    <glyph glyph-name="dollar" unicode="$" horiz-adv-x="382" 
d="M59 145c1 14 4 27 22 27h31c13 0 19 -5 15 -23c-5 -45 21 -89 75 -89c68 0 112 61 116 113c11 133 -189 208 -166 373c9 76 67 139 139 154l7 38c3 15 9 20 24 20h28c15 0 19 -5 16 -20l-7 -38c52 -14 89 -63 79 -137c-3 -12 -10 -14 -24 -14h-22c-13 0 -18 2 -17 14
c4 44 -18 77 -62 77c-45 0 -92 -37 -97 -100c-8 -122 181 -199 168 -363c-7 -80 -73 -160 -159 -177l-8 -38c-3 -15 -9 -20 -24 -20h-28c-15 0 -19 5 -16 20l8 38c-68 14 -107 74 -98 145z" />
    <glyph glyph-name="Euro" unicode="&#x20ac;" horiz-adv-x="411" 
d="M353 187h28c15 0 20 -6 15 -23c-25 -122 -100 -168 -182 -168c-83 0 -141 47 -117 170l20 105c2 8 0 10 -8 10h-25c-15 0 -19 5 -16 20l5 24c3 15 9 20 24 20h25c8 0 10 2 12 10l3 17c1 8 0 10 -8 10h-25c-15 0 -19 5 -16 20l4 21c3 15 9 20 24 20h25c8 0 10 2 12 10
l15 81c24 123 100 170 183 170c82 0 139 -46 118 -168c-3 -17 -10 -23 -25 -23h-28c-14 0 -18 4 -17 16c13 81 -8 111 -60 111c-55 0 -89 -33 -106 -123l-13 -65c-1 -7 1 -9 9 -9h49c15 0 19 -5 16 -20l-4 -21c-3 -15 -9 -20 -24 -20h-49c-8 0 -11 -2 -12 -10l-3 -17
c-2 -8 0 -10 8 -10h49c15 0 19 -5 16 -20l-5 -24c-3 -15 -9 -20 -24 -20h-49c-8 0 -10 -2 -12 -10l-17 -88c-17 -90 3 -123 58 -123c52 0 85 30 104 111c3 12 9 16 23 16z" />
    <glyph glyph-name="sterling" unicode="&#xa3;" horiz-adv-x="304" 
d="M75 0c-15 0 -20 5 -17 20l60 309c2 8 0 10 -8 10c-15 0 -19 5 -16 20l4 21c3 15 9 20 24 20c8 0 11 2 12 10l4 20c35 178 102 253 206 268c21 3 22 -2 22 -12l-1 -31c0 -10 -5 -17 -17 -18c-53 -7 -112 -52 -141 -201l-5 -26c-1 -8 0 -10 8 -10h69c15 0 19 -5 16 -20
l-4 -21c-3 -15 -9 -20 -24 -20h-69c-8 0 -10 -2 -12 -10l-47 -244c-4 -21 -4 -21 17 -21h110c15 0 19 -5 16 -20l-5 -24c-3 -15 -8 -20 -23 -20h-179z" />
    <glyph glyph-name="yen" unicode="&#xa5;" horiz-adv-x="322" 
d="M147 0c-10 0 -20 0 -17 20l11 57c2 8 0 10 -8 10h-25c-15 0 -19 5 -16 20l5 24c3 15 9 20 24 20h25c8 0 10 2 12 10l3 17c2 8 0 10 -8 10h-25c-15 0 -19 5 -16 20l4 21c3 15 9 20 24 20h25c10 0 12 4 12 9l-19 425c0 17 11 17 21 17h30c13 0 19 0 19 -15l6 -286
c0 -5 6 -5 8 0l118 286c6 15 12 15 25 15h30c10 0 21 0 13 -17l-183 -425c-2 -5 -2 -9 8 -9h25c15 0 19 -5 16 -20l-4 -21c-3 -15 -9 -20 -24 -20h-25c-8 0 -10 -2 -12 -8l-3 -19c-2 -8 0 -10 8 -10h25c15 0 19 -5 16 -20l-5 -24c-3 -15 -9 -20 -24 -20h-25
c-8 0 -10 -2 -12 -10l-11 -57c-3 -20 -13 -20 -23 -20h-28z" />
    <glyph glyph-name="lira" unicode="&#x20a4;" horiz-adv-x="331" 
d="M75 0c-15 0 -20 5 -17 20l62 316c1 8 0 10 -8 10c-15 0 -19 5 -16 20l4 24c3 15 9 20 24 20c8 0 11 2 12 10l3 17c2 7 0 10 -8 10c-15 0 -19 5 -16 20l4 21c3 15 9 20 24 20c8 0 11 2 12 10l32 162c3 15 9 20 24 20h28c15 0 19 -5 16 -20l-32 -162c-1 -8 0 -10 8 -10h153
c15 0 19 -5 16 -20l-4 -21c-3 -15 -9 -20 -24 -20h-153c-8 0 -10 -2 -12 -10l-3 -17c-1 -8 0 -10 8 -10h153c15 0 19 -5 16 -20l-4 -24c-3 -15 -9 -20 -24 -20h-153c-8 0 -11 -2 -12 -10l-49 -252c-4 -20 -4 -20 16 -20h143c15 0 19 -5 16 -20l-5 -24c-3 -15 -8 -20 -23 -20
h-211z" />
    <glyph glyph-name="two" unicode="2" horiz-adv-x="369" 
d="M146 144l-11 -60c-4 -20 -4 -20 16 -20h160c15 0 19 -5 16 -20l-5 -24c-3 -15 -8 -20 -23 -20h-228c-15 0 -20 5 -17 20l27 137c17 88 90 154 154 223c42 45 107 100 122 176c5 40 5 84 -50 84c-63 0 -74 -65 -86 -107c-4 -15 -9 -20 -24 -20h-28c-15 0 -19 5 -16 20
c16 80 54 171 167 171c111 0 113 -87 104 -150c-13 -88 -88 -163 -154 -232c-59 -62 -110 -110 -124 -178z" />
    <glyph glyph-name="three" unicode="3" horiz-adv-x="365" 
d="M409 486c-13 -65 -36 -94 -59 -113l-3 -3c0 -1 1 -2 2 -3c15 -19 28 -48 15 -113l-16 -82c-26 -133 -92 -176 -173 -176s-114 45 -111 121c2 32 6 37 23 37h31c13 0 16 -2 15 -20c-5 -42 15 -74 54 -74c37 0 76 27 89 93l20 104c16 80 -27 80 -51 80h-10
c-12 1 -15 6 -12 20l5 26c3 15 9 20 24 20h6c24 0 67 0 82 80l13 64c13 66 -16 93 -53 93c-39 0 -71 -32 -83 -74c-6 -18 -9 -20 -22 -20h-31c-17 0 -19 5 -9 37c27 76 76 121 157 121s131 -43 105 -176z" />
    <glyph glyph-name="oneinferior" unicode="&#x2081;" horiz-adv-x="156" 
d="M96 137c0 1 2 4 7 4h12c6 0 8 -2 7 -8l-52 -266c-1 -6 -3 -8 -9 -8h-11c-6 0 -8 2 -7 8l37 189c0 3 -1 4 -4 4h-18c-5 0 -7 3 -3 9z" />
    <glyph glyph-name="twoinferior" unicode="&#x2082;" horiz-adv-x="210" 
d="M61 -83l-4 -24c-2 -8 -2 -8 6 -8h65c6 0 8 -2 7 -8l-2 -10c-2 -6 -4 -8 -10 -8h-92c-6 0 -8 2 -7 8l11 56c7 35 36 62 62 90c17 18 44 40 50 71c2 16 2 34 -20 34c-26 0 -30 -26 -35 -43c-2 -6 -4 -8 -10 -8h-11c-6 0 -8 2 -7 8c7 32 22 69 68 69c45 0 46 -35 42 -61
c-5 -35 -36 -66 -62 -94c-24 -25 -45 -44 -51 -72z" />
    <glyph glyph-name="threeinferior" unicode="&#x2083;" horiz-adv-x="203" 
d="M164 56c-5 -27 -15 -39 -24 -46l-1 -1v-2c6 -7 12 -19 6 -46l-6 -33c-11 -54 -38 -72 -71 -72s-46 19 -45 50c1 13 3 15 9 15h13c5 0 7 -1 6 -8c-2 -18 6 -31 22 -31c15 0 31 11 37 38l8 43c6 32 -11 32 -21 32h-4c-5 0 -6 3 -5 8l2 11c1 6 4 8 10 8h2c10 0 28 0 34 32
l5 27c5 26 -7 37 -22 37c-16 0 -29 -13 -33 -30c-3 -7 -4 -8 -9 -8h-13c-7 0 -8 2 -4 15c11 31 31 49 64 49s54 -17 43 -71z" />
    <glyph glyph-name="fourinferior" unicode="&#x2084;" horiz-adv-x="198" 
d="M117 72l-58 -86c-2 -2 -1 -4 1 -4h39c3 0 5 1 5 4l17 86c0 2 -2 3 -4 0zM108 -133c-1 -6 -3 -8 -9 -8h-11c-6 0 -8 2 -7 8l17 86c0 3 -1 4 -3 4h-65c-6 0 -8 2 -6 8l1 6c1 4 1 6 5 13l103 151c3 4 7 6 12 6h9c6 0 7 -2 6 -8l-29 -147c0 -2 0 -4 4 -4h2c6 0 7 -2 6 -8
l-1 -9c-2 -6 -4 -8 -10 -8h-2c-3 0 -5 -1 -5 -4z" />
    <glyph glyph-name="fiveinferior" unicode="&#x2085;" horiz-adv-x="212" 
d="M32 -95c1 13 3 15 10 15h12c5 0 7 0 6 -8c-2 -17 6 -30 22 -30c15 0 31 11 36 38l15 78c6 27 -6 38 -21 38c-14 0 -30 -11 -35 -38l-2 -9c-1 -6 -3 -8 -10 -8h-11c-6 0 -8 2 -7 8l29 144c1 6 3 8 9 8h96c6 0 7 -2 6 -8l-2 -9c-1 -7 -3 -9 -10 -9h-67c-7 0 -9 -1 -10 -8
l-12 -62c11 12 24 17 35 17c29 0 49 -17 38 -71l-12 -63c-10 -54 -37 -72 -70 -72s-46 19 -45 49z" />
    <glyph glyph-name="sixinferior" unicode="&#x2086;" horiz-adv-x="213" 
d="M64 73c11 54 38 71 71 71s46 -18 45 -49c-1 -13 -3 -15 -10 -15h-12c-5 0 -7 1 -6 8c2 17 -6 30 -22 30c-15 0 -31 -11 -37 -37l-11 -59c11 12 24 17 36 17c29 0 49 -17 38 -72l-8 -39c-10 -54 -37 -72 -70 -72s-53 18 -42 72zM83 -118c15 0 31 11 36 38l11 55
c5 27 -6 38 -21 38c-14 0 -31 -11 -36 -38l-11 -55c-5 -27 6 -38 21 -38z" />
    <glyph glyph-name="seveninferior" unicode="&#x2087;" horiz-adv-x="181" 
d="M25 -136l100 246c2 4 0 5 -2 5h-62c-6 0 -7 2 -6 8l2 10c1 6 4 8 10 8h84c7 0 8 -2 7 -8l-2 -12c-1 -4 -1 -4 -4 -10l-100 -247c-2 -8 -6 -8 -10 -8h-12c-4 0 -8 2 -5 8z" />
    <glyph glyph-name="eightinferior" unicode="&#x2088;" horiz-adv-x="209" 
d="M76 -144c-28 0 -51 18 -40 72l3 17c6 29 17 47 30 58c-9 11 -13 30 -7 59l2 11c10 54 39 71 68 71s51 -17 41 -71l-2 -11c-6 -29 -17 -48 -31 -59c10 -11 14 -29 8 -58l-3 -17c-11 -54 -40 -72 -69 -72zM102 -10c-15 0 -29 -11 -34 -38l-6 -32c-6 -27 4 -38 19 -38
s29 11 34 38l7 32c5 26 -3 38 -20 38zM147 81c5 26 -5 37 -20 37s-29 -11 -34 -37l-5 -27c-5 -26 3 -38 19 -38c15 0 29 11 35 38z" />
    <glyph glyph-name="nineinferior" unicode="&#x2089;" horiz-adv-x="213" 
d="M131 -21c-12 -12 -25 -17 -36 -17c-29 0 -49 17 -39 71l8 40c11 54 37 71 70 71s53 -17 43 -71l-29 -145c-10 -54 -37 -72 -70 -72s-47 19 -45 50c0 13 2 15 9 15h13c5 0 6 -1 6 -8c-2 -18 6 -31 22 -31c15 0 31 11 36 38zM129 118c-15 0 -30 -11 -36 -37l-10 -55
c-6 -27 6 -38 21 -38c14 0 31 11 36 38l10 55c6 26 -6 37 -21 37z" />
    <glyph glyph-name="zerosuperior" unicode="&#x2070;" horiz-adv-x="222" 
d="M265 483c-9 -50 -40 -69 -74 -69s-57 19 -48 69l29 150c10 50 41 69 75 69c33 0 57 -19 47 -69zM265 626c7 36 -1 50 -23 50c-23 0 -36 -14 -43 -50l-27 -136c-7 -36 1 -50 24 -50c22 0 36 14 43 50z" />
    <glyph glyph-name="onesuperior" unicode="&#xb9;" horiz-adv-x="157" 
d="M204 696c0 1 2 4 7 4h13c6 0 8 -2 6 -8l-52 -268c-1 -6 -3 -8 -9 -8h-12c-6 0 -8 2 -7 8l38 191c0 3 -1 4 -4 4h-19c-4 0 -6 3 -3 8z" />
    <glyph glyph-name="twosuperior" unicode="&#xb2;" horiz-adv-x="210" 
d="M169 474l-4 -24c-2 -8 -2 -8 6 -8h65c7 0 8 -2 7 -8l-2 -10c-1 -6 -3 -8 -9 -8h-93c-6 0 -8 2 -7 8l11 56c7 35 37 62 63 90c17 18 43 41 49 72c2 16 2 34 -20 34c-26 0 -30 -27 -35 -44c-2 -6 -4 -8 -10 -8h-11c-6 0 -8 2 -7 8c7 33 22 70 68 70c45 0 46 -36 42 -61
c-5 -36 -35 -66 -62 -94c-24 -26 -45 -45 -51 -73z" />
    <glyph glyph-name="threesuperior" unicode="&#xb3;" horiz-adv-x="201" 
d="M270 613c-6 -26 -15 -38 -24 -46c-1 0 -1 0 -2 -1l1 -1c6 -8 12 -20 6 -46l-6 -33c-11 -54 -37 -72 -70 -72s-46 19 -45 49c1 13 2 15 9 15h13c5 0 6 0 6 -8c-2 -17 6 -30 22 -30c15 0 30 11 36 38l8 42c6 33 -11 33 -21 33h-4c-5 0 -6 2 -5 8l2 10c1 6 4 9 10 9h2
c10 0 28 0 34 32l5 26c5 27 -7 38 -22 38s-28 -13 -33 -30c-3 -8 -4 -8 -9 -8h-13c-7 0 -7 2 -3 15c11 30 30 49 63 49s53 -18 43 -72z" />
    <glyph glyph-name="foursuperior" unicode="&#x2074;" horiz-adv-x="200" 
d="M226 631l-59 -87c-2 -2 -2 -4 1 -4h40c3 0 4 1 5 4l16 86c1 2 -1 3 -3 1zM217 424c-2 -6 -4 -8 -10 -8h-11c-6 0 -8 2 -7 8l17 87c0 3 0 4 -3 4h-66c-6 0 -7 2 -6 8l1 6c1 4 1 6 6 13l104 152c3 4 6 6 12 6h9c6 0 7 -2 6 -8l-29 -148c0 -2 0 -4 3 -4h2c7 0 8 -2 7 -8
l-2 -9c-1 -6 -3 -8 -9 -8h-2c-3 0 -5 -1 -5 -4z" />
    <glyph glyph-name="fivesuperior" unicode="&#x2075;" horiz-adv-x="212" 
d="M140 463c1 13 3 15 10 15h12c6 0 7 0 6 -8c-2 -17 7 -30 22 -30s31 11 37 38l15 79c5 27 -6 38 -21 38c-14 0 -31 -11 -36 -38l-2 -10c-1 -6 -3 -8 -9 -8h-12c-6 0 -7 2 -7 8l29 145c1 6 4 8 10 8h96c6 0 7 -2 6 -8l-2 -10c-1 -6 -4 -8 -10 -8h-68c-7 0 -9 -2 -10 -8
l-12 -63c11 13 24 17 36 17c29 0 49 -17 38 -71l-12 -63c-11 -54 -38 -72 -70 -72c-33 0 -47 19 -46 49z" />
    <glyph glyph-name="sixsuperior" unicode="&#x2076;" horiz-adv-x="212" 
d="M172 630c10 54 37 72 70 72s46 -19 45 -49c-1 -13 -3 -15 -10 -15h-12c-5 0 -7 0 -6 8c2 17 -6 30 -22 30c-15 0 -31 -11 -36 -38l-12 -58c12 12 25 17 36 17c29 0 49 -18 38 -72l-7 -39c-11 -54 -37 -72 -70 -72s-53 18 -42 72zM191 440c15 0 30 11 35 38l11 55
c5 27 -6 38 -21 38c-14 0 -31 -11 -36 -38l-10 -55c-6 -27 6 -38 21 -38z" />
    <glyph glyph-name="sevensuperior" unicode="&#x2077;" horiz-adv-x="181" 
d="M132 424l100 245c2 4 0 5 -2 5h-62c-6 0 -7 2 -6 8l2 10c1 6 4 8 10 8h84c7 0 8 -2 7 -8l-3 -12c0 -4 0 -4 -3 -10l-100 -246c-2 -8 -6 -8 -10 -8h-12c-4 0 -8 2 -5 8z" />
    <glyph glyph-name="eightsuperior" unicode="&#x2078;" horiz-adv-x="209" 
d="M184 414c-28 0 -51 18 -40 72l3 16c6 30 17 48 30 59c-9 10 -13 29 -7 58l2 11c10 54 39 72 68 72s51 -18 41 -72l-2 -11c-6 -29 -17 -48 -31 -58c10 -11 14 -29 8 -59l-3 -16c-11 -54 -40 -72 -69 -72zM211 548c-16 0 -30 -11 -35 -38l-6 -32c-5 -27 4 -38 19 -38
s29 11 35 38l6 32c5 25 -3 38 -19 38zM255 638c5 27 -5 38 -20 38s-29 -11 -34 -38l-5 -26c-5 -26 3 -38 19 -38c15 0 29 11 35 38z" />
    <glyph glyph-name="ninesuperior" unicode="&#x2079;" horiz-adv-x="212" 
d="M238 536c-12 -12 -25 -17 -36 -17c-29 0 -49 18 -38 72l8 39c10 54 37 72 69 72c33 0 53 -18 43 -72l-28 -144c-11 -54 -38 -72 -71 -72c-32 0 -46 19 -45 49c1 13 3 15 10 15h12c6 0 7 0 6 -8c-2 -17 6 -30 22 -30c15 0 31 11 36 38zM237 676c-15 0 -31 -11 -36 -38
l-11 -55c-5 -27 6 -38 21 -38s31 11 36 38l11 55c5 27 -6 38 -21 38z" />
    <glyph glyph-name="onehalf" unicode="&#xbd;" horiz-adv-x="453" 
d="M119 20l274 658c8 18 13 22 24 22h8c13 0 13 -8 8 -20l-274 -658c-8 -18 -12 -22 -23 -22h-8c-13 0 -14 8 -9 20zM220 694c1 1 3 6 10 6h18c9 0 11 -3 9 -11l-73 -377c-2 -8 -5 -11 -13 -11h-16c-9 0 -12 3 -10 11l53 268c0 4 -1 6 -5 6h-27c-6 0 -9 4 -4 12zM310 82
l-6 -34c-2 -12 -2 -12 9 -12h91c8 0 10 -3 9 -11l-3 -14c-2 -8 -5 -11 -13 -11h-129c-8 0 -11 3 -10 11l16 78c9 50 51 87 87 126c23 26 60 57 69 100c2 23 2 48 -29 48c-35 0 -41 -37 -48 -61c-2 -8 -5 -11 -14 -11h-16c-8 0 -10 3 -9 11c9 45 31 97 95 97
c62 0 63 -49 58 -85c-7 -50 -49 -92 -87 -132c-33 -35 -62 -62 -70 -100z" />
    <glyph glyph-name="onequarter" unicode="&#xbc;" horiz-adv-x="429" 
d="M119 20l274 658c8 18 13 22 24 22h8c13 0 13 -8 8 -20l-274 -658c-8 -18 -12 -22 -23 -22h-8c-13 0 -14 8 -9 20zM379 302l-83 -122c-2 -3 -2 -6 2 -6h55c4 0 7 2 7 6l23 121c1 3 -2 4 -4 1zM366 11c-2 -8 -5 -11 -13 -11h-16c-9 0 -11 3 -10 11l24 122c1 4 0 6 -4 6h-92
c-8 0 -11 3 -9 11l2 8c1 7 1 10 8 19l146 214c4 6 8 8 16 8h12c9 0 11 -3 9 -11l-40 -208c-1 -3 0 -6 4 -6h3c9 0 11 -2 9 -11l-2 -13c-2 -8 -5 -11 -14 -11h-2c-4 0 -7 -2 -7 -6zM220 694c1 1 3 6 10 6h18c9 0 11 -3 9 -11l-73 -377c-2 -8 -5 -11 -13 -11h-16
c-9 0 -12 3 -10 11l53 268c0 4 -1 6 -5 6h-27c-6 0 -9 4 -4 12z" />
    <glyph glyph-name="threequarters" unicode="&#xbe;" horiz-adv-x="484" 
d="M175 20l274 658c8 18 13 22 24 22h8c13 0 13 -8 8 -20l-274 -658c-8 -18 -12 -22 -23 -22h-8c-13 0 -14 8 -9 20zM313 580c-7 -37 -20 -54 -33 -65c-1 0 -2 -1 -2 -1c0 -1 0 -2 1 -2c9 -11 16 -27 9 -64l-10 -47c-14 -76 -52 -100 -98 -100s-65 25 -63 69
c1 18 3 21 13 21h17c8 0 9 -1 9 -12c-3 -24 8 -42 31 -42c21 0 43 16 50 53l12 59c9 46 -16 46 -29 46h-6c-7 0 -9 3 -7 11l3 15c2 9 5 11 14 11h3c14 0 38 0 47 46l7 36c8 38 -9 53 -30 53c-22 0 -40 -18 -47 -42c-4 -10 -5 -11 -13 -11h-17c-10 0 -11 3 -6 21
c16 43 44 69 90 69s75 -25 60 -100zM434 303l-83 -122c-2 -3 -2 -6 2 -6h55c4 0 7 2 7 6l23 121c1 3 -2 4 -4 1zM421 12c-2 -8 -5 -11 -13 -11h-16c-9 0 -11 3 -10 11l24 122c1 4 0 6 -4 6h-92c-8 0 -11 3 -9 11l2 8c1 7 1 10 8 19l146 214c4 6 8 8 16 8h12c9 0 11 -3 9 -11
l-40 -208c-1 -3 0 -6 4 -6h3c9 0 11 -2 9 -11l-2 -13c-2 -8 -5 -11 -14 -11h-2c-4 0 -7 -2 -7 -6z" />
    <glyph glyph-name="onethird" unicode="&#x2153;" horiz-adv-x="454" 
d="M119 20l274 658c8 18 13 22 24 22h8c13 0 13 -8 8 -20l-274 -658c-8 -18 -12 -22 -23 -22h-8c-13 0 -14 8 -9 20zM462 277c-7 -37 -20 -54 -33 -65c-1 0 -2 -1 -2 -1c0 -1 0 -2 1 -2c9 -11 16 -27 9 -64l-10 -47c-14 -76 -52 -100 -98 -100s-65 25 -63 69
c1 18 3 21 13 21h17c8 0 9 -1 9 -12c-3 -24 8 -42 31 -42c21 0 43 16 50 53l12 59c9 46 -16 46 -29 46h-6c-7 0 -9 3 -7 11l3 15c2 9 5 11 14 11h3c14 0 38 0 47 46l7 36c8 38 -9 53 -30 53c-22 0 -40 -18 -47 -42c-4 -10 -5 -11 -13 -11h-17c-10 0 -11 3 -6 21
c16 43 44 69 90 69s75 -25 60 -100zM220 694c1 1 3 6 10 6h18c9 0 11 -3 9 -11l-73 -377c-2 -8 -5 -11 -13 -11h-16c-9 0 -12 3 -10 11l53 268c0 4 -1 6 -5 6h-27c-6 0 -9 4 -4 12z" />
    <glyph glyph-name="oneeighth" unicode="&#x215b;" horiz-adv-x="456" 
d="M119 20l274 658c8 18 13 22 24 22h8c13 0 13 -8 8 -20l-274 -658c-8 -18 -12 -22 -23 -22h-8c-13 0 -14 8 -9 20zM220 694c1 1 3 6 10 6h18c9 0 11 -3 9 -11l-73 -377c-2 -8 -5 -11 -13 -11h-16c-9 0 -12 3 -10 11l53 268c0 4 -1 6 -5 6h-27c-6 0 -9 4 -4 12zM333 -2
c-40 0 -71 24 -57 100l5 24c8 41 23 66 42 82c-13 15 -18 41 -10 82l3 15c15 76 55 101 96 101c40 0 72 -25 57 -101l-3 -15c-8 -41 -24 -67 -43 -82c13 -16 19 -41 11 -82l-5 -24c-14 -76 -55 -100 -96 -100zM370 185c-21 0 -41 -15 -48 -53l-9 -45c-8 -37 6 -53 27 -53
s41 16 48 53l9 45c7 36 -4 53 -27 53zM432 312c8 38 -6 53 -27 53s-41 -15 -48 -53l-8 -37c-6 -36 5 -53 28 -53c21 0 40 15 48 53z" />
    <glyph glyph-name="twothirds" unicode="&#x2154;" horiz-adv-x="508" 
d="M173 20l274 658c8 18 13 22 24 22h8c13 0 13 -8 8 -20l-274 -658c-8 -18 -12 -22 -23 -22h-8c-13 0 -14 8 -9 20zM516 277c-7 -37 -20 -54 -33 -65c-1 0 -2 -1 -2 -1c0 -1 0 -2 1 -2c9 -11 16 -27 9 -64l-10 -47c-14 -76 -52 -100 -98 -100s-65 25 -63 69
c1 18 3 21 13 21h17c8 0 9 -1 9 -12c-3 -24 8 -42 31 -42c21 0 43 16 50 53l12 59c9 46 -16 46 -29 46h-6c-7 0 -9 3 -7 11l3 15c2 9 5 11 14 11h3c14 0 38 0 47 46l7 36c8 38 -9 53 -30 53c-22 0 -40 -18 -47 -42c-4 -10 -5 -11 -13 -11h-17c-10 0 -11 3 -6 21
c16 43 44 69 90 69s75 -25 60 -100zM158 383l-6 -34c-3 -12 -3 -12 9 -12h91c8 0 11 -2 9 -11l-3 -14c-2 -8 -5 -11 -13 -11h-130c-8 0 -11 3 -9 11l15 78c10 51 51 88 88 127c23 26 60 57 69 101c3 22 3 48 -29 48c-35 0 -42 -37 -48 -61c-3 -9 -6 -12 -14 -12h-16
c-8 0 -11 3 -9 12c9 45 31 97 95 97c63 0 64 -50 59 -85c-7 -51 -50 -93 -88 -133c-33 -35 -62 -62 -70 -101z" />
    <glyph glyph-name="exclamdbl" unicode="&#x203c;" horiz-adv-x="307" 
d="M114 157c-15 0 -19 5 -16 20l93 503c3 15 9 20 24 20h28c15 0 19 -5 16 -20l-103 -503c-3 -15 -9 -20 -24 -20h-18zM62 39c4 21 26 39 47 39c22 0 35 -18 31 -39c-4 -22 -24 -39 -46 -39c-21 0 -36 17 -32 39zM233 157c-15 0 -19 5 -16 20l93 503c3 15 9 20 24 20h28
c15 0 19 -5 16 -20l-103 -503c-3 -15 -9 -20 -24 -20h-18zM181 39c4 21 26 39 47 39c22 0 35 -18 31 -39c-4 -22 -24 -39 -46 -39c-21 0 -36 17 -32 39z" />
    <glyph glyph-name="exclamdown" unicode="&#xa1;" horiz-adv-x="188" 
d="M158 343c15 0 19 -5 16 -20l-93 -503c-3 -15 -9 -20 -24 -20h-28c-15 0 -19 5 -16 20l103 503c3 15 9 20 24 20h18zM210 461c-4 -21 -26 -39 -47 -39c-22 0 -35 18 -31 39c4 22 24 39 46 39c21 0 36 -17 32 -39z" />
    <glyph glyph-name="guillemotleft" unicode="&#xab;" horiz-adv-x="360" 
d="M85 239c-4 7 -2 16 4 22l152 150c12 11 19 4 17 -5l-11 -60c-2 -9 -2 -11 -15 -23l-67 -67c-4 -4 -4 -8 -2 -12l41 -67c8 -12 7 -14 5 -23l-11 -60c-2 -9 -12 -16 -19 -5zM230 239c-4 7 -2 16 4 22l152 150c12 11 19 4 17 -5l-11 -60c-2 -9 -2 -11 -15 -23l-67 -67
c-4 -4 -4 -8 -2 -12l41 -67c8 -12 7 -14 5 -23l-11 -60c-2 -9 -12 -16 -19 -5z" />
    <glyph glyph-name="guillemotright" unicode="&#xbb;" horiz-adv-x="360" 
d="M367 239l-152 -150c-11 -11 -19 -4 -17 5l11 60c2 9 3 11 15 23l67 67c4 4 4 8 2 12l-41 67c-7 12 -7 14 -5 23l11 60c2 9 13 16 19 5l94 -150c4 -6 2 -15 -4 -22zM222 239l-152 -150c-11 -11 -19 -4 -17 5l11 60c2 9 3 11 15 23l67 67c4 4 4 8 2 12l-41 67
c-7 12 -7 14 -5 23l11 60c2 9 13 16 19 5l94 -150c4 -6 2 -15 -4 -22z" />
    <glyph glyph-name="guilsinglleft" unicode="&#x2039;" horiz-adv-x="215" 
d="M85 239c-4 7 -2 16 4 22l152 150c12 11 19 4 17 -5l-11 -60c-2 -9 -2 -11 -15 -23l-67 -67c-4 -4 -4 -8 -2 -12l41 -67c8 -12 7 -14 5 -23l-11 -60c-2 -9 -12 -16 -19 -5z" />
    <glyph glyph-name="guilsinglright" unicode="&#x203a;" horiz-adv-x="215" 
d="M222 239l-152 -150c-11 -11 -19 -4 -17 5l11 60c2 9 3 11 15 23l67 67c4 4 4 8 2 12l-41 67c-7 12 -7 14 -5 23l11 60c2 9 13 16 19 5l94 -150c4 -6 2 -15 -4 -22z" />
    <glyph glyph-name="trademark" unicode="&#x2122;" horiz-adv-x="365" 
d="M169 692c1 6 4 8 10 8h106c6 0 7 -2 6 -8l-2 -10c-1 -6 -3 -8 -9 -8h-31c-8 0 -8 0 -10 -8l-47 -243c-1 -6 -4 -8 -10 -8h-11c-6 0 -8 2 -7 8l47 243c2 8 2 8 -6 8h-31c-6 0 -8 2 -7 8zM333 415c-4 0 -7 0 -8 6l-5 145c-1 2 -3 1 -3 0l-28 -143c-1 -6 -4 -8 -10 -8h-11
c-6 0 -7 2 -6 8l52 269c1 6 4 8 10 8h8c5 0 6 -1 7 -5l9 -204c0 -2 3 -2 3 0l90 204c1 4 4 5 9 5h8c6 0 7 -2 6 -8l-52 -269c-1 -6 -4 -8 -10 -8h-11c-6 0 -7 2 -6 8l28 143c0 1 -2 2 -3 0l-64 -145c-3 -6 -6 -6 -10 -6h-3z" />
    <glyph glyph-name="uni0401" unicode="&#x401;" horiz-adv-x="346" 
d="M75 0c-15 0 -20 5 -17 20l129 660c3 15 9 20 24 20h201c15 0 19 -5 16 -20l-5 -24c-3 -15 -9 -20 -24 -20h-133c-20 0 -20 0 -24 -20l-38 -195c-4 -20 -4 -20 16 -20h133c15 0 19 -5 17 -20l-5 -24c-3 -15 -9 -20 -24 -20h-133c-20 0 -20 0 -24 -20l-45 -233
c-4 -20 -4 -20 16 -20h133c15 0 19 -5 16 -20l-5 -24c-3 -15 -8 -20 -23 -20h-201zM237 770c4 21 25 39 47 39c21 0 35 -18 31 -39c-4 -22 -25 -39 -46 -39c-22 0 -36 17 -32 39zM348 770c4 21 26 39 47 39c22 0 35 -18 31 -39c-4 -22 -24 -39 -46 -39c-21 0 -36 17 -32 39z
" />
    <glyph glyph-name="uni0402" unicode="&#x402;" horiz-adv-x="401" 
d="M419 328l-27 -138c-29 -150 -88 -190 -163 -190c-6 0 -14 0 -7 21l9 30c5 13 10 13 14 13c50 0 65 50 75 101l35 182c13 66 -15 93 -52 93c-35 0 -75 -26 -88 -94l-64 -326c-3 -15 -8 -20 -23 -20h-28c-15 0 -20 5 -17 20l116 596c4 20 4 20 -15 20h-36
c-15 0 -19 5 -16 20l5 24c3 15 9 20 24 20h178c15 0 19 -5 16 -20l-5 -24c-3 -15 -9 -20 -24 -20h-35c-20 0 -20 0 -24 -20l-30 -155c28 31 60 43 88 43c71 0 120 -43 94 -176z" />
    <glyph glyph-name="uni0403" unicode="&#x403;" horiz-adv-x="278" 
d="M187 680c3 15 9 20 24 20h163c15 0 19 -5 16 -20l-5 -24c-3 -15 -9 -20 -24 -20h-95c-20 0 -20 0 -24 -20l-116 -596c-3 -15 -8 -20 -23 -20h-28c-15 0 -20 5 -17 20zM294 735c-7 0 -9 3 -8 10l19 98c4 17 10 21 25 21h38c15 0 19 -8 8 -27l-46 -85
c-8 -15 -11 -17 -21 -17h-15z" />
    </font>
</defs>
</svg>
